STARTFONT 2.1
FONT -FreeType-Arial-Medium-R-Normal--10-100-75-75-P-50-ISO10646-1
SIZE 10 75 75
FONTBOUNDINGBOX 18 18 -7 -4
STARTPROPERTIES 19
POINT_SIZE 100
PIXEL_SIZE 10
RESOLUTION_X 75
RESOLUTION_Y 75
FONT_ASCENT 9
FONT_DESCENT 2
AVERAGE_WIDTH 50
SPACING "P"
FOUNDRY "FreeType"
FAMILY_NAME "Arial"
CHARSET_REGISTRY "ISO10646"
CHARSET_ENCODING "1"
WEIGHT_NAME "Medium"
SLANT "R"
SETWIDTH_NAME "Normal"
COPYRIGHT "Typeface © The Monotype Corporation plc. Data © The Monotype Corporation plc/Type Solutions Inc. 1990-1992. All Rights Reserved"
_TTF_PSNAME "ArialMT"
_TTF_FONTFILE "arial.ttf"
_XMBDFED_INFO "Edited with xmbdfed 4.5."
ENDPROPERTIES
CHARS 1158
STARTCHAR char32
ENCODING 32
SWIDTH 192 0
DWIDTH 2 0
BBX 0 0 0 0
BITMAP
ENDCHAR
STARTCHAR char33
ENCODING 33
SWIDTH 288 0
DWIDTH 3 0
BBX 1 7 1 0
BITMAP
80
80
80
80
80
00
80
ENDCHAR
STARTCHAR char34
ENCODING 34
SWIDTH 384 0
DWIDTH 4 0
BBX 3 3 0 4
BITMAP
A0
A0
A0
ENDCHAR
STARTCHAR char35
ENCODING 35
SWIDTH 576 0
DWIDTH 6 0
BBX 5 7 0 0
BITMAP
28
28
F8
50
F8
A0
A0
ENDCHAR
STARTCHAR char36
ENCODING 36
SWIDTH 576 0
DWIDTH 6 0
BBX 5 8 0 -1
BITMAP
70
A8
E0
38
28
A8
70
20
ENDCHAR
STARTCHAR char37
ENCODING 37
SWIDTH 864 0
DWIDTH 9 0
BBX 7 7 1 0
BITMAP
44
A8
A8
54
1A
2A
24
ENDCHAR
STARTCHAR char38
ENCODING 38
SWIDTH 672 0
DWIDTH 7 0
BBX 7 7 0 0
BITMAP
38
48
30
60
96
8C
76
ENDCHAR
STARTCHAR char39
ENCODING 39
SWIDTH 192 0
DWIDTH 2 0
BBX 1 3 0 4
BITMAP
80
80
80
ENDCHAR
STARTCHAR char40
ENCODING 40
SWIDTH 288 0
DWIDTH 3 0
BBX 3 9 0 -2
BITMAP
20
40
80
80
80
80
80
40
20
ENDCHAR
STARTCHAR char41
ENCODING 41
SWIDTH 288 0
DWIDTH 3 0
BBX 3 9 0 -2
BITMAP
80
40
20
20
20
20
20
40
80
ENDCHAR
STARTCHAR char42
ENCODING 42
SWIDTH 384 0
DWIDTH 4 0
BBX 3 3 0 4
BITMAP
E0
40
A0
ENDCHAR
STARTCHAR char43
ENCODING 43
SWIDTH 576 0
DWIDTH 6 0
BBX 5 5 0 1
BITMAP
20
20
F8
20
20
ENDCHAR
STARTCHAR char44
ENCODING 44
SWIDTH 288 0
DWIDTH 3 0
BBX 1 2 1 -1
BITMAP
80
80
ENDCHAR
STARTCHAR char45
ENCODING 45
SWIDTH 288 0
DWIDTH 3 0
BBX 2 1 0 2
BITMAP
C0
ENDCHAR
STARTCHAR char46
ENCODING 46
SWIDTH 288 0
DWIDTH 3 0
BBX 1 1 1 0
BITMAP
80
ENDCHAR
STARTCHAR char47
ENCODING 47
SWIDTH 288 0
DWIDTH 3 0
BBX 3 7 0 0
BITMAP
20
20
40
40
40
80
80
ENDCHAR
STARTCHAR char48
ENCODING 48
SWIDTH 576 0
DWIDTH 6 0
BBX 5 7 0 0
BITMAP
70
88
88
88
88
88
70
ENDCHAR
STARTCHAR char49
ENCODING 49
SWIDTH 192 0
DWIDTH 2 0
BBX 2 7 0 0
BITMAP
40
C0
40
40
40
40
40
ENDCHAR
STARTCHAR char50
ENCODING 50
SWIDTH 576 0
DWIDTH 6 0
BBX 5 7 0 0
BITMAP
70
88
08
10
20
40
F8
ENDCHAR
STARTCHAR char51
ENCODING 51
SWIDTH 576 0
DWIDTH 6 0
BBX 5 7 0 0
BITMAP
70
88
08
30
08
88
70
ENDCHAR
STARTCHAR char52
ENCODING 52
SWIDTH 576 0
DWIDTH 6 0
BBX 6 7 0 0
BITMAP
18
28
48
88
FC
08
08
ENDCHAR
STARTCHAR char53
ENCODING 53
SWIDTH 576 0
DWIDTH 6 0
BBX 5 7 0 0
BITMAP
78
40
F0
88
08
88
70
ENDCHAR
STARTCHAR char54
ENCODING 54
SWIDTH 576 0
DWIDTH 6 0
BBX 5 7 0 0
BITMAP
70
88
F0
88
88
88
70
ENDCHAR
STARTCHAR char55
ENCODING 55
SWIDTH 576 0
DWIDTH 6 0
BBX 5 7 0 0
BITMAP
F8
10
10
20
20
40
40
ENDCHAR
STARTCHAR char56
ENCODING 56
SWIDTH 576 0
DWIDTH 6 0
BBX 5 7 0 0
BITMAP
70
88
88
70
88
88
70
ENDCHAR
STARTCHAR char57
ENCODING 57
SWIDTH 576 0
DWIDTH 6 0
BBX 5 7 0 0
BITMAP
70
88
88
88
78
88
70
ENDCHAR
STARTCHAR char58
ENCODING 58
SWIDTH 288 0
DWIDTH 3 0
BBX 1 5 1 0
BITMAP
80
00
00
00
80
ENDCHAR
STARTCHAR char59
ENCODING 59
SWIDTH 288 0
DWIDTH 3 0
BBX 1 6 1 -1
BITMAP
80
00
00
00
80
80
ENDCHAR
STARTCHAR char60
ENCODING 60
SWIDTH 576 0
DWIDTH 6 0
BBX 4 5 1 1
BITMAP
10
60
80
60
10
ENDCHAR
STARTCHAR char61
ENCODING 61
SWIDTH 576 0
DWIDTH 6 0
BBX 5 3 0 2
BITMAP
F8
00
F8
ENDCHAR
STARTCHAR char62
ENCODING 62
SWIDTH 576 0
DWIDTH 6 0
BBX 4 5 1 1
BITMAP
80
60
10
60
80
ENDCHAR
STARTCHAR char63
ENCODING 63
SWIDTH 576 0
DWIDTH 6 0
BBX 6 7 0 0
BITMAP
78
84
04
18
10
00
10
ENDCHAR
STARTCHAR char64
ENCODING 64
SWIDTH 960 0
DWIDTH 10 0
BBX 9 9 1 -2
BITMAP
3E00
4100
5A80
A680
A480
A500
9E00
4180
3E00
ENDCHAR
STARTCHAR char65
ENCODING 65
SWIDTH 672 0
DWIDTH 7 0
BBX 7 7 0 0
BITMAP
10
28
28
44
7C
44
82
ENDCHAR
STARTCHAR char66
ENCODING 66
SWIDTH 672 0
DWIDTH 7 0
BBX 5 7 1 0
BITMAP
F0
88
88
F8
88
88
F0
ENDCHAR
STARTCHAR char67
ENCODING 67
SWIDTH 672 0
DWIDTH 7 0
BBX 5 7 1 0
BITMAP
70
88
80
80
80
88
70
ENDCHAR
STARTCHAR char68
ENCODING 68
SWIDTH 672 0
DWIDTH 7 0
BBX 5 7 1 0
BITMAP
E0
90
88
88
88
90
E0
ENDCHAR
STARTCHAR char69
ENCODING 69
SWIDTH 672 0
DWIDTH 7 0
BBX 5 7 1 0
BITMAP
F8
80
80
F8
80
80
F8
ENDCHAR
STARTCHAR char70
ENCODING 70
SWIDTH 576 0
DWIDTH 6 0
BBX 4 7 1 0
BITMAP
F0
80
80
E0
80
80
80
ENDCHAR
STARTCHAR char71
ENCODING 71
SWIDTH 768 0
DWIDTH 8 0
BBX 6 7 1 0
BITMAP
30
48
80
9C
84
48
30
ENDCHAR
STARTCHAR char72
ENCODING 72
SWIDTH 672 0
DWIDTH 7 0
BBX 5 7 1 0
BITMAP
88
88
88
F8
88
88
88
ENDCHAR
STARTCHAR char73
ENCODING 73
SWIDTH 288 0
DWIDTH 3 0
BBX 1 7 1 0
BITMAP
80
80
80
80
80
80
80
ENDCHAR
STARTCHAR char74
ENCODING 74
SWIDTH 480 0
DWIDTH 5 0
BBX 4 8 1 0
BITMAP
30
10
10
10
10
10
90
E0
ENDCHAR
STARTCHAR char75
ENCODING 75
SWIDTH 672 0
DWIDTH 7 0
BBX 6 7 1 0
BITMAP
84
88
90
A0
D0
88
84
ENDCHAR
STARTCHAR char76
ENCODING 76
SWIDTH 576 0
DWIDTH 6 0
BBX 5 7 1 0
BITMAP
80
80
80
80
80
80
F8
ENDCHAR
STARTCHAR char77
ENCODING 77
SWIDTH 864 0
DWIDTH 9 0
BBX 7 7 1 0
BITMAP
82
C6
C6
AA
AA
AA
92
ENDCHAR
STARTCHAR char78
ENCODING 78
SWIDTH 672 0
DWIDTH 7 0
BBX 5 7 1 0
BITMAP
88
C8
C8
A8
98
98
88
ENDCHAR
STARTCHAR char79
ENCODING 79
SWIDTH 768 0
DWIDTH 8 0
BBX 6 7 1 0
BITMAP
78
84
84
84
84
84
78
ENDCHAR
STARTCHAR char80
ENCODING 80
SWIDTH 672 0
DWIDTH 7 0
BBX 5 7 1 0
BITMAP
F0
88
88
F0
80
80
80
ENDCHAR
STARTCHAR char81
ENCODING 81
SWIDTH 768 0
DWIDTH 8 0
BBX 6 7 1 -1
BITMAP
78
84
84
84
84
98
7C
ENDCHAR
STARTCHAR char82
ENCODING 82
SWIDTH 672 0
DWIDTH 7 0
BBX 5 7 1 0
BITMAP
F0
88
88
F0
90
88
88
ENDCHAR
STARTCHAR char83
ENCODING 83
SWIDTH 672 0
DWIDTH 7 0
BBX 5 7 1 0
BITMAP
70
88
80
70
08
88
70
ENDCHAR
STARTCHAR char84
ENCODING 84
SWIDTH 672 0
DWIDTH 7 0
BBX 5 7 1 0
BITMAP
F8
20
20
20
20
20
20
ENDCHAR
STARTCHAR char85
ENCODING 85
SWIDTH 672 0
DWIDTH 7 0
BBX 5 7 1 0
BITMAP
88
88
88
88
88
88
70
ENDCHAR
STARTCHAR char86
ENCODING 86
SWIDTH 672 0
DWIDTH 7 0
BBX 7 7 0 0
BITMAP
82
44
44
44
28
28
30
ENDCHAR
STARTCHAR char87
ENCODING 87
SWIDTH 864 0
DWIDTH 9 0
BBX 9 7 0 0
BITMAP
8880
9480
5500
5500
5500
5500
2200
ENDCHAR
STARTCHAR char88
ENCODING 88
SWIDTH 672 0
DWIDTH 7 0
BBX 7 7 0 0
BITMAP
44
28
10
10
28
44
82
ENDCHAR
STARTCHAR char89
ENCODING 89
SWIDTH 672 0
DWIDTH 7 0
BBX 7 7 0 0
BITMAP
82
44
28
10
10
10
10
ENDCHAR
STARTCHAR char90
ENCODING 90
SWIDTH 576 0
DWIDTH 6 0
BBX 6 7 0 0
BITMAP
FC
0C
18
30
60
C0
FC
ENDCHAR
STARTCHAR char91
ENCODING 91
SWIDTH 288 0
DWIDTH 3 0
BBX 2 9 1 -2
BITMAP
C0
80
80
80
80
80
80
80
C0
ENDCHAR
STARTCHAR char92
ENCODING 92
SWIDTH 288 0
DWIDTH 3 0
BBX 3 7 0 0
BITMAP
80
80
40
40
40
20
20
ENDCHAR
STARTCHAR char93
ENCODING 93
SWIDTH 288 0
DWIDTH 3 0
BBX 2 9 0 -2
BITMAP
C0
40
40
40
40
40
40
40
C0
ENDCHAR
STARTCHAR char94
ENCODING 94
SWIDTH 480 0
DWIDTH 5 0
BBX 5 4 0 3
BITMAP
20
50
50
88
ENDCHAR
STARTCHAR char95
ENCODING 95
SWIDTH 576 0
DWIDTH 6 0
BBX 6 1 0 -2
BITMAP
FC
ENDCHAR
STARTCHAR char96
ENCODING 96
SWIDTH 288 0
DWIDTH 3 0
BBX 2 2 0 5
BITMAP
80
40
ENDCHAR
STARTCHAR char97
ENCODING 97
SWIDTH 576 0
DWIDTH 6 0
BBX 4 5 1 0
BITMAP
70
10
70
90
F0
ENDCHAR
STARTCHAR char98
ENCODING 98
SWIDTH 576 0
DWIDTH 6 0
BBX 4 7 1 0
BITMAP
80
80
E0
90
90
90
E0
ENDCHAR
STARTCHAR char99
ENCODING 99
SWIDTH 576 0
DWIDTH 6 0
BBX 4 5 1 0
BITMAP
60
90
80
90
60
ENDCHAR
STARTCHAR char100
ENCODING 100
SWIDTH 576 0
DWIDTH 6 0
BBX 4 7 1 0
BITMAP
10
10
70
90
90
90
70
ENDCHAR
STARTCHAR char101
ENCODING 101
SWIDTH 576 0
DWIDTH 6 0
BBX 4 5 1 0
BITMAP
60
90
F0
80
70
ENDCHAR
STARTCHAR char102
ENCODING 102
SWIDTH 288 0
DWIDTH 3 0
BBX 3 7 0 0
BITMAP
20
40
E0
40
40
40
40
ENDCHAR
STARTCHAR char103
ENCODING 103
SWIDTH 576 0
DWIDTH 6 0
BBX 4 7 2 -2
BITMAP
70
90
90
90
70
90
60
ENDCHAR
STARTCHAR char104
ENCODING 104
SWIDTH 576 0
DWIDTH 6 0
BBX 4 7 1 0
BITMAP
80
80
E0
90
90
90
90
ENDCHAR
STARTCHAR char105
ENCODING 105
SWIDTH 288 0
DWIDTH 3 0
BBX 1 7 1 0
BITMAP
80
00
80
80
80
80
80
ENDCHAR
STARTCHAR char106
ENCODING 106
SWIDTH 288 0
DWIDTH 3 0
BBX 1 1 1 -2
BITMAP
80
ENDCHAR
STARTCHAR char107
ENCODING 107
SWIDTH 384 0
DWIDTH 4 0
BBX 4 7 0 0
BITMAP
80
80
90
A0
E0
A0
90
ENDCHAR
STARTCHAR char108
ENCODING 108
SWIDTH 288 0
DWIDTH 3 0
BBX 1 7 1 0
BITMAP
80
80
80
80
80
80
80
ENDCHAR
STARTCHAR char109
ENCODING 109
SWIDTH 864 0
DWIDTH 9 0
BBX 7 5 1 0
BITMAP
FC
92
92
92
92
ENDCHAR
STARTCHAR char110
ENCODING 110
SWIDTH 576 0
DWIDTH 6 0
BBX 4 5 1 0
BITMAP
E0
90
90
90
90
ENDCHAR
STARTCHAR char111
ENCODING 111
SWIDTH 576 0
DWIDTH 6 0
BBX 4 5 1 0
BITMAP
60
90
90
90
60
ENDCHAR
STARTCHAR char112
ENCODING 112
SWIDTH 576 0
DWIDTH 6 0
BBX 4 7 1 -2
BITMAP
E0
90
90
90
E0
80
80
ENDCHAR
STARTCHAR char113
ENCODING 113
SWIDTH 576 0
DWIDTH 6 0
BBX 4 7 1 -2
BITMAP
70
90
90
90
70
10
10
ENDCHAR
STARTCHAR char114
ENCODING 114
SWIDTH 288 0
DWIDTH 3 0
BBX 2 5 1 0
BITMAP
C0
80
80
80
80
ENDCHAR
STARTCHAR char115
ENCODING 115
SWIDTH 384 0
DWIDTH 4 0
BBX 4 5 0 0
BITMAP
70
80
60
10
E0
ENDCHAR
STARTCHAR char116
ENCODING 116
SWIDTH 288 0
DWIDTH 3 0
BBX 3 7 0 0
BITMAP
40
40
E0
40
40
40
60
ENDCHAR
STARTCHAR char117
ENCODING 117
SWIDTH 576 0
DWIDTH 6 0
BBX 4 5 1 0
BITMAP
90
90
90
90
70
ENDCHAR
STARTCHAR char118
ENCODING 118
SWIDTH 480 0
DWIDTH 5 0
BBX 5 5 0 0
BITMAP
88
50
50
50
20
ENDCHAR
STARTCHAR char119
ENCODING 119
SWIDTH 672 0
DWIDTH 7 0
BBX 7 5 0 0
BITMAP
92
AA
AA
AA
44
ENDCHAR
STARTCHAR char120
ENCODING 120
SWIDTH 480 0
DWIDTH 5 0
BBX 5 5 0 0
BITMAP
88
50
20
50
88
ENDCHAR
STARTCHAR char121
ENCODING 121
SWIDTH 480 0
DWIDTH 5 0
BBX 5 7 0 -2
BITMAP
88
50
50
50
20
20
40
ENDCHAR
STARTCHAR char122
ENCODING 122
SWIDTH 480 0
DWIDTH 5 0
BBX 5 5 0 0
BITMAP
F8
10
20
40
F8
ENDCHAR
STARTCHAR char123
ENCODING 123
SWIDTH 288 0
DWIDTH 3 0
BBX 3 9 0 -2
BITMAP
60
40
40
40
80
40
40
40
60
ENDCHAR
STARTCHAR char124
ENCODING 124
SWIDTH 288 0
DWIDTH 3 0
BBX 1 9 1 -2
BITMAP
80
80
80
80
80
80
80
80
80
ENDCHAR
STARTCHAR char125
ENCODING 125
SWIDTH 288 0
DWIDTH 3 0
BBX 3 9 0 -2
BITMAP
C0
40
40
40
20
40
40
40
C0
ENDCHAR
STARTCHAR char126
ENCODING 126
SWIDTH 576 0
DWIDTH 6 0
BBX 5 2 0 2
BITMAP
E8
B8
ENDCHAR
STARTCHAR char160
ENCODING 160
SWIDTH 192 0
DWIDTH 2 0
BBX 0 0 0 0
BITMAP
ENDCHAR
STARTCHAR char161
ENCODING 161
SWIDTH 288 0
DWIDTH 3 0
BBX 1 7 1 -2
BITMAP
80
00
80
80
80
80
80
ENDCHAR
STARTCHAR char162
ENCODING 162
SWIDTH 576 0
DWIDTH 6 0
BBX 4 9 1 -3
BITMAP
20
20
60
B0
A0
D0
60
40
40
ENDCHAR
STARTCHAR char163
ENCODING 163
SWIDTH 576 0
DWIDTH 6 0
BBX 6 7 0 0
BITMAP
38
44
40
F0
20
40
FC
ENDCHAR
STARTCHAR char164
ENCODING 164
SWIDTH 576 0
DWIDTH 6 0
BBX 4 4 1 1
BITMAP
F0
90
90
F0
ENDCHAR
STARTCHAR char165
ENCODING 165
SWIDTH 576 0
DWIDTH 6 0
BBX 5 7 0 0
BITMAP
88
50
50
F8
20
F8
20
ENDCHAR
STARTCHAR char166
ENCODING 166
SWIDTH 288 0
DWIDTH 3 0
BBX 1 9 1 -2
BITMAP
80
80
80
00
00
80
80
80
80
ENDCHAR
STARTCHAR char167
ENCODING 167
SWIDTH 576 0
DWIDTH 6 0
BBX 5 9 0 -2
BITMAP
70
88
40
B0
88
68
10
88
70
ENDCHAR
STARTCHAR char168
ENCODING 168
SWIDTH 288 0
DWIDTH 3 0
BBX 3 1 0 6
BITMAP
A0
ENDCHAR
STARTCHAR char169
ENCODING 169
SWIDTH 672 0
DWIDTH 7 0
BBX 7 7 0 0
BITMAP
38
44
9A
A2
9A
44
38
ENDCHAR
STARTCHAR char170
ENCODING 170
SWIDTH 384 0
DWIDTH 4 0
BBX 4 4 0 3
BITMAP
F0
10
F0
F0
ENDCHAR
STARTCHAR char171
ENCODING 171
SWIDTH 576 0
DWIDTH 6 0
BBX 4 4 1 0
BITMAP
20
50
50
20
ENDCHAR
STARTCHAR char172
ENCODING 172
SWIDTH 576 0
DWIDTH 6 0
BBX 5 3 0 2
BITMAP
F8
08
08
ENDCHAR
STARTCHAR char173
ENCODING 173
SWIDTH 288 0
DWIDTH 3 0
BBX 2 1 0 2
BITMAP
C0
ENDCHAR
STARTCHAR char174
ENCODING 174
SWIDTH 672 0
DWIDTH 7 0
BBX 7 7 0 0
BITMAP
38
44
B2
BA
AA
44
38
ENDCHAR
STARTCHAR char175
ENCODING 175
SWIDTH 576 0
DWIDTH 6 0
BBX 6 1 0 8
BITMAP
FC
ENDCHAR
STARTCHAR char176
ENCODING 176
SWIDTH 384 0
DWIDTH 4 0
BBX 3 3 1 4
BITMAP
E0
A0
E0
ENDCHAR
STARTCHAR char177
ENCODING 177
SWIDTH 480 0
DWIDTH 5 0
BBX 5 6 0 0
BITMAP
20
20
F8
20
20
F8
ENDCHAR
STARTCHAR char178
ENCODING 178
SWIDTH 288 0
DWIDTH 3 0
BBX 3 4 0 3
BITMAP
E0
20
40
E0
ENDCHAR
STARTCHAR char179
ENCODING 179
SWIDTH 288 0
DWIDTH 3 0
BBX 3 4 0 3
BITMAP
E0
40
20
E0
ENDCHAR
STARTCHAR char180
ENCODING 180
SWIDTH 288 0
DWIDTH 3 0
BBX 2 2 1 5
BITMAP
40
80
ENDCHAR
STARTCHAR char181
ENCODING 181
SWIDTH 576 0
DWIDTH 6 0
BBX 4 7 1 -2
BITMAP
90
90
90
90
F0
80
80
ENDCHAR
STARTCHAR char182
ENCODING 182
SWIDTH 480 0
DWIDTH 5 0
BBX 5 9 0 -2
BITMAP
78
D0
D0
D0
50
50
50
50
50
ENDCHAR
STARTCHAR char183
ENCODING 183
SWIDTH 288 0
DWIDTH 3 0
BBX 1 1 1 3
BITMAP
80
ENDCHAR
STARTCHAR char184
ENCODING 184
SWIDTH 288 0
DWIDTH 3 0
BBX 2 3 1 -3
BITMAP
40
00
40
ENDCHAR
STARTCHAR char185
ENCODING 185
SWIDTH 288 0
DWIDTH 3 0
BBX 2 4 1 3
BITMAP
40
C0
40
40
ENDCHAR
STARTCHAR char186
ENCODING 186
SWIDTH 384 0
DWIDTH 4 0
BBX 4 4 0 3
BITMAP
60
90
90
60
ENDCHAR
STARTCHAR char187
ENCODING 187
SWIDTH 576 0
DWIDTH 6 0
BBX 4 4 1 0
BITMAP
A0
50
50
A0
ENDCHAR
STARTCHAR char188
ENCODING 188
SWIDTH 768 0
DWIDTH 8 0
BBX 7 7 1 0
BITMAP
22
64
28
3A
16
2E
42
ENDCHAR
STARTCHAR char189
ENCODING 189
SWIDTH 768 0
DWIDTH 8 0
BBX 7 7 1 0
BITMAP
44
C8
50
5E
2A
44
8E
ENDCHAR
STARTCHAR char190
ENCODING 190
SWIDTH 768 0
DWIDTH 8 0
BBX 8 7 0 0
BITMAP
E2
44
24
EA
16
2F
22
ENDCHAR
STARTCHAR char191
ENCODING 191
SWIDTH 576 0
DWIDTH 6 0
BBX 4 7 1 -2
BITMAP
20
00
20
60
80
90
60
ENDCHAR
STARTCHAR char192
ENCODING 192
SWIDTH 672 0
DWIDTH 7 0
BBX 7 10 0 0
BITMAP
10
08
00
10
28
28
44
7C
44
82
ENDCHAR
STARTCHAR char193
ENCODING 193
SWIDTH 672 0
DWIDTH 7 0
BBX 7 10 0 0
BITMAP
08
10
00
10
28
28
44
7C
44
82
ENDCHAR
STARTCHAR char194
ENCODING 194
SWIDTH 672 0
DWIDTH 7 0
BBX 7 10 0 0
BITMAP
10
28
00
10
28
28
44
7C
44
82
ENDCHAR
STARTCHAR char195
ENCODING 195
SWIDTH 672 0
DWIDTH 7 0
BBX 7 10 0 0
BITMAP
28
50
00
10
28
28
44
7C
44
82
ENDCHAR
STARTCHAR char196
ENCODING 196
SWIDTH 672 0
DWIDTH 7 0
BBX 7 9 0 0
BITMAP
28
00
10
28
28
44
7C
44
82
ENDCHAR
STARTCHAR char197
ENCODING 197
SWIDTH 672 0
DWIDTH 7 0
BBX 7 9 0 0
BITMAP
38
28
38
28
28
44
7C
44
82
ENDCHAR
STARTCHAR char198
ENCODING 198
SWIDTH 960 0
DWIDTH 10 0
BBX 8 7 1 0
BITMAP
1F
14
24
67
7C
84
87
ENDCHAR
STARTCHAR char199
ENCODING 199
SWIDTH 672 0
DWIDTH 7 0
BBX 5 10 1 -3
BITMAP
70
88
80
80
80
88
70
20
10
30
ENDCHAR
STARTCHAR char200
ENCODING 200
SWIDTH 672 0
DWIDTH 7 0
BBX 5 10 1 0
BITMAP
40
20
00
F8
80
80
F8
80
80
F8
ENDCHAR
STARTCHAR char201
ENCODING 201
SWIDTH 672 0
DWIDTH 7 0
BBX 5 10 1 0
BITMAP
10
20
00
F8
80
80
F8
80
80
F8
ENDCHAR
STARTCHAR char202
ENCODING 202
SWIDTH 672 0
DWIDTH 7 0
BBX 5 10 1 0
BITMAP
20
50
00
78
40
40
78
40
40
78
ENDCHAR
STARTCHAR char203
ENCODING 203
SWIDTH 672 0
DWIDTH 7 0
BBX 5 9 1 0
BITMAP
50
00
F8
80
80
F8
80
80
F8
ENDCHAR
STARTCHAR char204
ENCODING 204
SWIDTH 288 0
DWIDTH 3 0
BBX 2 10 1 0
BITMAP
80
40
00
80
80
80
80
80
80
80
ENDCHAR
STARTCHAR char205
ENCODING 205
SWIDTH 288 0
DWIDTH 3 0
BBX 2 10 0 0
BITMAP
40
80
00
40
40
40
40
40
40
40
ENDCHAR
STARTCHAR char206
ENCODING 206
SWIDTH 288 0
DWIDTH 3 0
BBX 2 2 0 8
BITMAP
40
80
ENDCHAR
STARTCHAR char207
ENCODING 207
SWIDTH 288 0
DWIDTH 3 0
BBX 3 9 0 0
BITMAP
A0
00
40
40
40
40
40
40
40
ENDCHAR
STARTCHAR char208
ENCODING 208
SWIDTH 672 0
DWIDTH 7 0
BBX 6 7 0 0
BITMAP
70
48
44
F4
44
48
70
ENDCHAR
STARTCHAR char209
ENCODING 209
SWIDTH 672 0
DWIDTH 7 0
BBX 5 10 1 0
BITMAP
50
A0
00
88
C8
C8
A8
98
98
88
ENDCHAR
STARTCHAR char210
ENCODING 210
SWIDTH 768 0
DWIDTH 8 0
BBX 6 10 1 0
BITMAP
20
10
00
78
84
84
84
84
84
78
ENDCHAR
STARTCHAR char211
ENCODING 211
SWIDTH 768 0
DWIDTH 8 0
BBX 6 10 1 0
BITMAP
10
20
00
78
84
84
84
84
84
78
ENDCHAR
STARTCHAR char212
ENCODING 212
SWIDTH 768 0
DWIDTH 8 0
BBX 6 10 1 0
BITMAP
10
28
00
78
84
84
84
84
84
78
ENDCHAR
STARTCHAR char213
ENCODING 213
SWIDTH 768 0
DWIDTH 8 0
BBX 6 10 1 0
BITMAP
28
50
00
78
84
84
84
84
84
78
ENDCHAR
STARTCHAR char214
ENCODING 214
SWIDTH 768 0
DWIDTH 8 0
BBX 6 9 1 0
BITMAP
50
00
78
84
84
84
84
84
78
ENDCHAR
STARTCHAR char215
ENCODING 215
SWIDTH 576 0
DWIDTH 6 0
BBX 5 5 0 1
BITMAP
88
70
20
70
88
ENDCHAR
STARTCHAR char216
ENCODING 216
SWIDTH 768 0
DWIDTH 8 0
BBX 6 7 1 -1
BITMAP
7C
88
94
A4
A4
48
F8
ENDCHAR
STARTCHAR char217
ENCODING 217
SWIDTH 672 0
DWIDTH 7 0
BBX 5 10 1 0
BITMAP
40
20
00
88
88
88
88
88
88
70
ENDCHAR
STARTCHAR char218
ENCODING 218
SWIDTH 672 0
DWIDTH 7 0
BBX 5 10 1 0
BITMAP
20
40
00
88
88
88
88
88
88
70
ENDCHAR
STARTCHAR char219
ENCODING 219
SWIDTH 672 0
DWIDTH 7 0
BBX 5 10 1 0
BITMAP
20
50
00
88
88
88
88
88
88
70
ENDCHAR
STARTCHAR char220
ENCODING 220
SWIDTH 672 0
DWIDTH 7 0
BBX 5 9 1 0
BITMAP
50
00
88
88
88
88
88
88
70
ENDCHAR
STARTCHAR char221
ENCODING 221
SWIDTH 672 0
DWIDTH 7 0
BBX 7 10 0 0
BITMAP
08
10
00
82
44
28
10
10
10
10
ENDCHAR
STARTCHAR char222
ENCODING 222
SWIDTH 672 0
DWIDTH 7 0
BBX 5 7 1 0
BITMAP
80
F0
88
88
88
F0
80
ENDCHAR
STARTCHAR char223
ENCODING 223
SWIDTH 576 0
DWIDTH 6 0
BBX 5 7 1 0
BITMAP
60
90
90
A0
98
C8
B0
ENDCHAR
STARTCHAR char224
ENCODING 224
SWIDTH 576 0
DWIDTH 6 0
BBX 4 8 1 0
BITMAP
40
20
00
70
10
70
90
F0
ENDCHAR
STARTCHAR char225
ENCODING 225
SWIDTH 576 0
DWIDTH 6 0
BBX 4 8 1 0
BITMAP
20
40
00
70
10
70
90
F0
ENDCHAR
STARTCHAR char226
ENCODING 226
SWIDTH 576 0
DWIDTH 6 0
BBX 4 8 1 0
BITMAP
20
50
00
70
10
70
90
F0
ENDCHAR
STARTCHAR char227
ENCODING 227
SWIDTH 576 0
DWIDTH 6 0
BBX 4 8 1 0
BITMAP
50
A0
00
70
10
70
90
F0
ENDCHAR
STARTCHAR char228
ENCODING 228
SWIDTH 576 0
DWIDTH 6 0
BBX 4 7 1 0
BITMAP
50
00
70
10
70
90
F0
ENDCHAR
STARTCHAR char229
ENCODING 229
SWIDTH 576 0
DWIDTH 6 0
BBX 4 9 1 0
BITMAP
70
50
70
00
70
10
70
90
F0
ENDCHAR
STARTCHAR char230
ENCODING 230
SWIDTH 864 0
DWIDTH 9 0
BBX 7 5 1 0
BITMAP
6C
92
7E
90
EE
ENDCHAR
STARTCHAR char231
ENCODING 231
SWIDTH 576 0
DWIDTH 6 0
BBX 4 8 1 -3
BITMAP
60
90
80
90
60
40
20
60
ENDCHAR
STARTCHAR char232
ENCODING 232
SWIDTH 576 0
DWIDTH 6 0
BBX 4 8 1 0
BITMAP
40
20
00
60
90
F0
80
70
ENDCHAR
STARTCHAR char233
ENCODING 233
SWIDTH 576 0
DWIDTH 6 0
BBX 4 8 1 0
BITMAP
20
40
00
60
90
F0
80
70
ENDCHAR
STARTCHAR char234
ENCODING 234
SWIDTH 576 0
DWIDTH 6 0
BBX 4 8 1 0
BITMAP
20
50
00
60
90
F0
80
70
ENDCHAR
STARTCHAR char235
ENCODING 235
SWIDTH 576 0
DWIDTH 6 0
BBX 4 7 1 0
BITMAP
50
00
60
90
F0
80
70
ENDCHAR
STARTCHAR char236
ENCODING 236
SWIDTH 288 0
DWIDTH 3 0
BBX 2 8 1 0
BITMAP
80
40
00
80
80
80
80
80
ENDCHAR
STARTCHAR char237
ENCODING 237
SWIDTH 288 0
DWIDTH 3 0
BBX 2 8 0 0
BITMAP
40
80
00
40
40
40
40
40
ENDCHAR
STARTCHAR char238
ENCODING 238
SWIDTH 288 0
DWIDTH 3 0
BBX 3 8 0 0
BITMAP
20
40
00
20
20
20
20
20
ENDCHAR
STARTCHAR char239
ENCODING 239
SWIDTH 288 0
DWIDTH 3 0
BBX 3 7 0 0
BITMAP
A0
00
40
40
40
40
40
ENDCHAR
STARTCHAR char240
ENCODING 240
SWIDTH 576 0
DWIDTH 6 0
BBX 4 7 1 0
BITMAP
20
20
70
90
90
90
60
ENDCHAR
STARTCHAR char241
ENCODING 241
SWIDTH 576 0
DWIDTH 6 0
BBX 4 8 1 0
BITMAP
50
A0
00
E0
90
90
90
90
ENDCHAR
STARTCHAR char242
ENCODING 242
SWIDTH 576 0
DWIDTH 6 0
BBX 4 8 1 0
BITMAP
40
20
00
60
90
90
90
60
ENDCHAR
STARTCHAR char243
ENCODING 243
SWIDTH 576 0
DWIDTH 6 0
BBX 4 8 1 0
BITMAP
20
40
00
60
90
90
90
60
ENDCHAR
STARTCHAR char244
ENCODING 244
SWIDTH 576 0
DWIDTH 6 0
BBX 4 8 1 0
BITMAP
20
50
00
60
90
90
90
60
ENDCHAR
STARTCHAR char245
ENCODING 245
SWIDTH 576 0
DWIDTH 6 0
BBX 4 8 1 0
BITMAP
50
A0
00
60
90
90
90
60
ENDCHAR
STARTCHAR char246
ENCODING 246
SWIDTH 576 0
DWIDTH 6 0
BBX 4 7 1 0
BITMAP
50
00
60
90
90
90
60
ENDCHAR
STARTCHAR char247
ENCODING 247
SWIDTH 480 0
DWIDTH 5 0
BBX 5 5 0 1
BITMAP
20
00
F8
00
20
ENDCHAR
STARTCHAR char248
ENCODING 248
SWIDTH 576 0
DWIDTH 6 0
BBX 4 5 1 0
BITMAP
30
50
60
20
70
ENDCHAR
STARTCHAR char249
ENCODING 249
SWIDTH 576 0
DWIDTH 6 0
BBX 4 8 1 0
BITMAP
40
20
00
90
90
90
90
70
ENDCHAR
STARTCHAR char250
ENCODING 250
SWIDTH 576 0
DWIDTH 6 0
BBX 4 8 1 0
BITMAP
20
40
00
90
90
90
90
70
ENDCHAR
STARTCHAR char251
ENCODING 251
SWIDTH 576 0
DWIDTH 6 0
BBX 4 8 1 0
BITMAP
20
50
00
40
40
40
40
30
ENDCHAR
STARTCHAR char252
ENCODING 252
SWIDTH 576 0
DWIDTH 6 0
BBX 4 7 1 0
BITMAP
50
00
90
90
90
90
70
ENDCHAR
STARTCHAR char253
ENCODING 253
SWIDTH 480 0
DWIDTH 5 0
BBX 5 10 0 -2
BITMAP
10
20
00
88
50
50
50
20
20
40
ENDCHAR
STARTCHAR char254
ENCODING 254
SWIDTH 576 0
DWIDTH 6 0
BBX 4 9 1 -2
BITMAP
80
80
E0
90
90
90
E0
80
80
ENDCHAR
STARTCHAR char255
ENCODING 255
SWIDTH 480 0
DWIDTH 5 0
BBX 5 9 0 -2
BITMAP
50
00
88
50
50
50
20
20
40
ENDCHAR
STARTCHAR char256
ENCODING 256
SWIDTH 672 0
DWIDTH 7 0
BBX 7 9 0 0
BITMAP
38
00
10
28
28
44
7C
44
82
ENDCHAR
STARTCHAR char257
ENCODING 257
SWIDTH 576 0
DWIDTH 6 0
BBX 4 7 1 0
BITMAP
70
00
70
10
70
90
F0
ENDCHAR
STARTCHAR char258
ENCODING 258
SWIDTH 672 0
DWIDTH 7 0
BBX 7 10 0 0
BITMAP
28
38
00
10
28
28
44
7C
44
82
ENDCHAR
STARTCHAR char259
ENCODING 259
SWIDTH 576 0
DWIDTH 6 0
BBX 4 8 1 0
BITMAP
50
70
00
70
10
70
90
F0
ENDCHAR
STARTCHAR char260
ENCODING 260
SWIDTH 672 0
DWIDTH 7 0
BBX 8 9 0 -2
BITMAP
10
28
28
44
7C
44
82
02
03
ENDCHAR
STARTCHAR char261
ENCODING 261
SWIDTH 576 0
DWIDTH 6 0
BBX 5 7 1 -2
BITMAP
70
10
70
90
F0
10
18
ENDCHAR
STARTCHAR char262
ENCODING 262
SWIDTH 672 0
DWIDTH 7 0
BBX 5 10 1 0
BITMAP
10
20
00
70
88
80
80
80
88
70
ENDCHAR
STARTCHAR char263
ENCODING 263
SWIDTH 576 0
DWIDTH 6 0
BBX 4 8 1 0
BITMAP
20
40
00
60
90
80
90
60
ENDCHAR
STARTCHAR char264
ENCODING 264
SWIDTH 672 0
DWIDTH 7 0
BBX 5 10 1 0
BITMAP
20
50
00
70
88
80
80
80
88
70
ENDCHAR
STARTCHAR char265
ENCODING 265
SWIDTH 576 0
DWIDTH 6 0
BBX 4 8 1 0
BITMAP
20
50
00
60
90
80
90
60
ENDCHAR
STARTCHAR char266
ENCODING 266
SWIDTH 672 0
DWIDTH 7 0
BBX 5 9 1 0
BITMAP
20
00
70
88
80
80
80
88
70
ENDCHAR
STARTCHAR char267
ENCODING 267
SWIDTH 576 0
DWIDTH 6 0
BBX 4 7 1 0
BITMAP
20
00
60
90
80
90
60
ENDCHAR
STARTCHAR char268
ENCODING 268
SWIDTH 672 0
DWIDTH 7 0
BBX 5 10 1 0
BITMAP
50
20
00
70
88
80
80
80
88
70
ENDCHAR
STARTCHAR char269
ENCODING 269
SWIDTH 576 0
DWIDTH 6 0
BBX 4 8 1 0
BITMAP
50
20
00
60
90
80
90
60
ENDCHAR
STARTCHAR char270
ENCODING 270
SWIDTH 672 0
DWIDTH 7 0
BBX 5 10 1 0
BITMAP
50
20
00
70
48
40
40
40
48
70
ENDCHAR
STARTCHAR char271
ENCODING 271
SWIDTH 576 0
DWIDTH 6 0
BBX 6 7 0 0
BITMAP
14
10
70
90
90
90
70
ENDCHAR
STARTCHAR char272
ENCODING 272
SWIDTH 672 0
DWIDTH 7 0
BBX 6 7 0 0
BITMAP
70
48
44
F4
44
48
70
ENDCHAR
STARTCHAR char273
ENCODING 273
SWIDTH 576 0
DWIDTH 6 0
BBX 5 7 1 0
BITMAP
38
10
70
90
90
90
70
ENDCHAR
STARTCHAR char274
ENCODING 274
SWIDTH 672 0
DWIDTH 7 0
BBX 5 9 1 0
BITMAP
70
00
F8
80
80
F8
80
80
F8
ENDCHAR
STARTCHAR char275
ENCODING 275
SWIDTH 576 0
DWIDTH 6 0
BBX 4 7 1 0
BITMAP
70
00
60
90
F0
80
70
ENDCHAR
STARTCHAR char276
ENCODING 276
SWIDTH 672 0
DWIDTH 7 0
BBX 5 10 1 0
BITMAP
50
70
00
F8
80
80
F8
80
80
F8
ENDCHAR
STARTCHAR char277
ENCODING 277
SWIDTH 576 0
DWIDTH 6 0
BBX 4 8 1 0
BITMAP
50
70
00
60
90
F0
80
70
ENDCHAR
STARTCHAR char278
ENCODING 278
SWIDTH 672 0
DWIDTH 7 0
BBX 5 9 1 0
BITMAP
20
00
F8
80
80
F8
80
80
F8
ENDCHAR
STARTCHAR char279
ENCODING 279
SWIDTH 576 0
DWIDTH 6 0
BBX 4 7 1 0
BITMAP
20
00
60
90
F0
80
70
ENDCHAR
STARTCHAR char280
ENCODING 280
SWIDTH 672 0
DWIDTH 7 0
BBX 5 9 1 -2
BITMAP
F8
80
80
F8
80
80
F8
10
18
ENDCHAR
STARTCHAR char281
ENCODING 281
SWIDTH 576 0
DWIDTH 6 0
BBX 4 7 1 -2
BITMAP
60
90
F0
80
70
20
30
ENDCHAR
STARTCHAR char282
ENCODING 282
SWIDTH 672 0
DWIDTH 7 0
BBX 5 10 1 0
BITMAP
50
20
00
78
40
40
78
40
40
78
ENDCHAR
STARTCHAR char283
ENCODING 283
SWIDTH 576 0
DWIDTH 6 0
BBX 4 8 1 0
BITMAP
50
20
00
30
40
70
40
30
ENDCHAR
STARTCHAR char284
ENCODING 284
SWIDTH 768 0
DWIDTH 8 0
BBX 6 10 1 0
BITMAP
20
50
00
30
48
80
9C
84
48
30
ENDCHAR
STARTCHAR char285
ENCODING 285
SWIDTH 576 0
DWIDTH 6 0
BBX 4 10 1 -2
BITMAP
10
20
00
30
40
40
40
30
40
30
ENDCHAR
STARTCHAR char286
ENCODING 286
SWIDTH 768 0
DWIDTH 8 0
BBX 6 10 1 0
BITMAP
28
38
00
30
48
80
9C
84
48
30
ENDCHAR
STARTCHAR char287
ENCODING 287
SWIDTH 576 0
DWIDTH 6 0
BBX 4 10 1 -2
BITMAP
20
30
00
30
40
40
40
30
40
30
ENDCHAR
STARTCHAR char288
ENCODING 288
SWIDTH 768 0
DWIDTH 8 0
BBX 6 9 1 0
BITMAP
10
00
30
48
80
9C
84
48
30
ENDCHAR
STARTCHAR char289
ENCODING 289
SWIDTH 576 0
DWIDTH 6 0
BBX 4 9 1 -2
BITMAP
10
00
30
40
40
40
30
40
30
ENDCHAR
STARTCHAR char290
ENCODING 290
SWIDTH 768 0
DWIDTH 8 0
BBX 6 10 1 -3
BITMAP
30
48
80
9C
84
48
30
20
10
30
ENDCHAR
STARTCHAR char291
ENCODING 291
SWIDTH 576 0
DWIDTH 6 0
BBX 3 10 2 -2
BITMAP
20
20
00
60
80
80
80
60
80
60
ENDCHAR
STARTCHAR char292
ENCODING 292
SWIDTH 672 0
DWIDTH 7 0
BBX 5 10 1 0
BITMAP
20
50
00
88
88
88
F8
88
88
88
ENDCHAR
STARTCHAR char293
ENCODING 293
SWIDTH 576 0
DWIDTH 6 0
BBX 4 10 1 0
BITMAP
20
50
00
40
40
70
40
40
40
40
ENDCHAR
STARTCHAR char294
ENCODING 294
SWIDTH 672 0
DWIDTH 7 0
BBX 7 7 0 0
BITMAP
44
FE
44
7C
44
44
44
ENDCHAR
STARTCHAR char295
ENCODING 295
SWIDTH 576 0
DWIDTH 6 0
BBX 5 7 0 0
BITMAP
E0
40
70
48
48
48
48
ENDCHAR
STARTCHAR char296
ENCODING 296
SWIDTH 288 0
DWIDTH 3 0
BBX 4 10 0 0
BITMAP
50
A0
00
40
40
40
40
40
40
40
ENDCHAR
STARTCHAR char297
ENCODING 297
SWIDTH 288 0
DWIDTH 3 0
BBX 4 8 0 0
BITMAP
50
A0
00
40
40
40
40
40
ENDCHAR
STARTCHAR char298
ENCODING 298
SWIDTH 288 0
DWIDTH 3 0
BBX 3 9 0 0
BITMAP
E0
00
40
40
40
40
40
40
40
ENDCHAR
STARTCHAR char299
ENCODING 299
SWIDTH 288 0
DWIDTH 3 0
BBX 3 7 0 0
BITMAP
E0
00
40
40
40
40
40
ENDCHAR
STARTCHAR char300
ENCODING 300
SWIDTH 288 0
DWIDTH 3 0
BBX 3 10 0 0
BITMAP
A0
E0
00
40
40
40
40
40
40
40
ENDCHAR
STARTCHAR char301
ENCODING 301
SWIDTH 288 0
DWIDTH 3 0
BBX 3 8 0 0
BITMAP
A0
E0
00
40
40
40
40
40
ENDCHAR
STARTCHAR char302
ENCODING 302
SWIDTH 288 0
DWIDTH 3 0
BBX 2 9 1 -2
BITMAP
80
80
80
80
80
80
80
80
C0
ENDCHAR
STARTCHAR char303
ENCODING 303
SWIDTH 288 0
DWIDTH 3 0
BBX 2 9 1 -2
BITMAP
80
00
80
80
80
80
80
80
C0
ENDCHAR
STARTCHAR char304
ENCODING 304
SWIDTH 288 0
DWIDTH 3 0
BBX 1 9 1 0
BITMAP
80
00
80
80
80
80
80
80
80
ENDCHAR
STARTCHAR char305
ENCODING 305
SWIDTH 288 0
DWIDTH 3 0
BBX 1 5 1 0
BITMAP
80
80
80
80
80
ENDCHAR
STARTCHAR char306
ENCODING 306
SWIDTH 672 0
DWIDTH 7 0
BBX 6 7 1 0
BITMAP
84
84
84
84
84
A4
B8
ENDCHAR
STARTCHAR char307
ENCODING 307
SWIDTH 384 0
DWIDTH 4 0
BBX 4 9 0 -2
BITMAP
90
00
90
90
90
90
90
10
20
ENDCHAR
STARTCHAR char308
ENCODING 308
SWIDTH 480 0
DWIDTH 5 0
BBX 5 10 0 0
BITMAP
08
10
00
08
08
08
08
08
48
70
ENDCHAR
STARTCHAR char309
ENCODING 309
SWIDTH 288 0
DWIDTH 3 0
BBX 3 10 0 -2
BITMAP
20
40
00
20
20
20
20
20
20
40
ENDCHAR
STARTCHAR char310
ENCODING 310
SWIDTH 672 0
DWIDTH 7 0
BBX 6 10 1 -3
BITMAP
80
98
A0
A0
D0
88
84
30
10
30
ENDCHAR
STARTCHAR char311
ENCODING 311
SWIDTH 384 0
DWIDTH 4 0
BBX 4 10 0 -3
BITMAP
80
80
90
A0
E0
A0
90
60
20
60
ENDCHAR
STARTCHAR char312
ENCODING 312
SWIDTH 480 0
DWIDTH 5 0
BBX 3 5 1 0
BITMAP
A0
C0
C0
A0
A0
ENDCHAR
STARTCHAR char313
ENCODING 313
SWIDTH 576 0
DWIDTH 6 0
BBX 5 10 1 0
BITMAP
20
40
00
80
80
80
80
80
80
F8
ENDCHAR
STARTCHAR char314
ENCODING 314
SWIDTH 288 0
DWIDTH 3 0
BBX 2 10 0 0
BITMAP
40
80
00
40
40
40
40
40
40
40
ENDCHAR
STARTCHAR char315
ENCODING 315
SWIDTH 576 0
DWIDTH 6 0
BBX 5 10 1 -3
BITMAP
80
80
80
80
80
80
F8
30
10
30
ENDCHAR
STARTCHAR char316
ENCODING 316
SWIDTH 288 0
DWIDTH 3 0
BBX 2 10 0 -3
BITMAP
40
40
40
40
40
40
40
C0
40
C0
ENDCHAR
STARTCHAR char317
ENCODING 317
SWIDTH 576 0
DWIDTH 6 0
BBX 4 7 1 0
BITMAP
90
90
80
80
80
80
F0
ENDCHAR
STARTCHAR char318
ENCODING 318
SWIDTH 288 0
DWIDTH 3 0
BBX 3 7 1 0
BITMAP
A0
A0
80
80
80
80
80
ENDCHAR
STARTCHAR char319
ENCODING 319
SWIDTH 576 0
DWIDTH 6 0
BBX 5 7 1 0
BITMAP
80
80
80
90
80
80
F8
ENDCHAR
STARTCHAR char320
ENCODING 320
SWIDTH 288 0
DWIDTH 3 0
BBX 3 7 1 0
BITMAP
80
80
80
A0
80
80
80
ENDCHAR
STARTCHAR char321
ENCODING 321
SWIDTH 576 0
DWIDTH 6 0
BBX 6 7 0 0
BITMAP
40
40
70
C0
40
40
7C
ENDCHAR
STARTCHAR char322
ENCODING 322
SWIDTH 288 0
DWIDTH 3 0
BBX 3 7 0 0
BITMAP
40
40
60
C0
40
40
40
ENDCHAR
STARTCHAR char323
ENCODING 323
SWIDTH 672 0
DWIDTH 7 0
BBX 5 10 1 0
BITMAP
20
40
00
88
C8
C8
A8
98
98
88
ENDCHAR
STARTCHAR char324
ENCODING 324
SWIDTH 576 0
DWIDTH 6 0
BBX 4 8 1 0
BITMAP
20
40
00
E0
90
90
90
90
ENDCHAR
STARTCHAR char325
ENCODING 325
SWIDTH 672 0
DWIDTH 7 0
BBX 5 10 1 -3
BITMAP
88
C8
C8
A8
98
98
88
30
10
30
ENDCHAR
STARTCHAR char326
ENCODING 326
SWIDTH 576 0
DWIDTH 6 0
BBX 4 8 1 -3
BITMAP
E0
90
90
90
90
60
20
60
ENDCHAR
STARTCHAR char327
ENCODING 327
SWIDTH 672 0
DWIDTH 7 0
BBX 5 10 1 0
BITMAP
50
20
00
88
C8
C8
A8
98
98
88
ENDCHAR
STARTCHAR char328
ENCODING 328
SWIDTH 576 0
DWIDTH 6 0
BBX 4 8 1 0
BITMAP
50
20
00
E0
90
90
90
90
ENDCHAR
STARTCHAR char329
ENCODING 329
SWIDTH 576 0
DWIDTH 6 0
BBX 5 7 0 0
BITMAP
80
80
70
48
48
48
48
ENDCHAR
STARTCHAR char330
ENCODING 330
SWIDTH 672 0
DWIDTH 7 0
BBX 5 7 1 0
BITMAP
B0
C8
88
88
88
88
B0
ENDCHAR
STARTCHAR char331
ENCODING 331
SWIDTH 576 0
DWIDTH 6 0
BBX 4 7 1 -2
BITMAP
E0
90
90
90
90
10
30
ENDCHAR
STARTCHAR char332
ENCODING 332
SWIDTH 768 0
DWIDTH 8 0
BBX 6 9 1 0
BITMAP
38
00
78
84
84
84
84
84
78
ENDCHAR
STARTCHAR char333
ENCODING 333
SWIDTH 576 0
DWIDTH 6 0
BBX 4 7 1 0
BITMAP
70
00
60
90
90
90
60
ENDCHAR
STARTCHAR char334
ENCODING 334
SWIDTH 768 0
DWIDTH 8 0
BBX 6 10 1 0
BITMAP
28
38
00
78
84
84
84
84
84
78
ENDCHAR
STARTCHAR char335
ENCODING 335
SWIDTH 576 0
DWIDTH 6 0
BBX 4 8 1 0
BITMAP
50
70
00
60
90
90
90
60
ENDCHAR
STARTCHAR char336
ENCODING 336
SWIDTH 768 0
DWIDTH 8 0
BBX 6 10 1 0
BITMAP
28
50
00
78
84
84
84
84
84
78
ENDCHAR
STARTCHAR char337
ENCODING 337
SWIDTH 576 0
DWIDTH 6 0
BBX 4 8 1 0
BITMAP
50
A0
00
60
90
90
90
60
ENDCHAR
STARTCHAR char338
ENCODING 338
SWIDTH 960 0
DWIDTH 10 0
BBX 9 7 1 0
BITMAP
7F80
8800
8800
8F80
8800
8800
7F80
ENDCHAR
STARTCHAR char339
ENCODING 339
SWIDTH 864 0
DWIDTH 9 0
BBX 9 5 0 0
BITMAP
7700
8880
8F80
8800
7780
ENDCHAR
STARTCHAR char340
ENCODING 340
SWIDTH 672 0
DWIDTH 7 0
BBX 5 10 1 0
BITMAP
20
40
00
F0
88
88
F0
90
88
88
ENDCHAR
STARTCHAR char341
ENCODING 341
SWIDTH 288 0
DWIDTH 3 0
BBX 2 8 1 0
BITMAP
40
80
00
C0
80
80
80
80
ENDCHAR
STARTCHAR char342
ENCODING 342
SWIDTH 672 0
DWIDTH 7 0
BBX 5 10 1 -3
BITMAP
F0
88
88
F0
90
88
88
30
10
30
ENDCHAR
STARTCHAR char343
ENCODING 343
SWIDTH 288 0
DWIDTH 3 0
BBX 3 8 0 -3
BITMAP
60
40
40
40
40
C0
40
C0
ENDCHAR
STARTCHAR char344
ENCODING 344
SWIDTH 672 0
DWIDTH 7 0
BBX 5 10 1 0
BITMAP
50
20
00
78
40
40
78
48
40
40
ENDCHAR
STARTCHAR char345
ENCODING 345
SWIDTH 288 0
DWIDTH 3 0
BBX 3 8 0 0
BITMAP
40
20
00
20
20
20
20
20
ENDCHAR
STARTCHAR char346
ENCODING 346
SWIDTH 672 0
DWIDTH 7 0
BBX 5 10 1 0
BITMAP
20
40
00
70
88
80
70
08
88
70
ENDCHAR
STARTCHAR char347
ENCODING 347
SWIDTH 384 0
DWIDTH 4 0
BBX 4 8 0 0
BITMAP
20
40
00
70
80
60
10
E0
ENDCHAR
STARTCHAR char348
ENCODING 348
SWIDTH 672 0
DWIDTH 7 0
BBX 5 10 1 0
BITMAP
20
50
00
70
88
80
70
08
88
70
ENDCHAR
STARTCHAR char349
ENCODING 349
SWIDTH 384 0
DWIDTH 4 0
BBX 4 8 0 0
BITMAP
20
50
00
70
80
60
10
E0
ENDCHAR
STARTCHAR char350
ENCODING 350
SWIDTH 672 0
DWIDTH 7 0
BBX 5 10 1 -3
BITMAP
70
88
80
70
08
88
70
20
10
30
ENDCHAR
STARTCHAR char351
ENCODING 351
SWIDTH 384 0
DWIDTH 4 0
BBX 4 8 0 -3
BITMAP
70
80
60
10
E0
40
20
60
ENDCHAR
STARTCHAR char352
ENCODING 352
SWIDTH 672 0
DWIDTH 7 0
BBX 5 10 1 0
BITMAP
50
20
00
70
88
80
70
08
88
70
ENDCHAR
STARTCHAR char353
ENCODING 353
SWIDTH 384 0
DWIDTH 4 0
BBX 4 8 0 0
BITMAP
50
20
00
30
40
30
00
70
ENDCHAR
STARTCHAR char354
ENCODING 354
SWIDTH 672 0
DWIDTH 7 0
BBX 5 10 1 -3
BITMAP
F8
20
20
20
20
20
20
00
20
20
ENDCHAR
STARTCHAR char355
ENCODING 355
SWIDTH 288 0
DWIDTH 3 0
BBX 3 9 0 -3
BITMAP
40
40
E0
40
40
40
60
00
20
ENDCHAR
STARTCHAR char356
ENCODING 356
SWIDTH 672 0
DWIDTH 7 0
BBX 5 10 1 0
BITMAP
50
20
00
F8
20
20
20
20
20
20
ENDCHAR
STARTCHAR char357
ENCODING 357
SWIDTH 384 0
DWIDTH 4 0
BBX 4 7 0 0
BITMAP
50
40
E0
40
40
40
60
ENDCHAR
STARTCHAR char358
ENCODING 358
SWIDTH 480 0
DWIDTH 5 0
BBX 5 7 0 0
BITMAP
F8
20
20
70
20
20
20
ENDCHAR
STARTCHAR char359
ENCODING 359
SWIDTH 288 0
DWIDTH 3 0
BBX 3 7 0 0
BITMAP
40
40
E0
40
E0
40
60
ENDCHAR
STARTCHAR char360
ENCODING 360
SWIDTH 672 0
DWIDTH 7 0
BBX 5 10 1 0
BITMAP
28
50
00
88
88
88
88
88
88
70
ENDCHAR
STARTCHAR char361
ENCODING 361
SWIDTH 576 0
DWIDTH 6 0
BBX 4 8 1 0
BITMAP
50
A0
00
90
90
90
90
70
ENDCHAR
STARTCHAR char362
ENCODING 362
SWIDTH 672 0
DWIDTH 7 0
BBX 5 9 1 0
BITMAP
70
00
88
88
88
88
88
88
70
ENDCHAR
STARTCHAR char363
ENCODING 363
SWIDTH 576 0
DWIDTH 6 0
BBX 4 7 1 0
BITMAP
70
00
90
90
90
90
70
ENDCHAR
STARTCHAR char364
ENCODING 364
SWIDTH 672 0
DWIDTH 7 0
BBX 5 10 1 0
BITMAP
50
70
00
88
88
88
88
88
88
70
ENDCHAR
STARTCHAR char365
ENCODING 365
SWIDTH 576 0
DWIDTH 6 0
BBX 4 8 1 0
BITMAP
50
70
00
90
90
90
90
70
ENDCHAR
STARTCHAR char366
ENCODING 366
SWIDTH 672 0
DWIDTH 7 0
BBX 5 11 1 0
BITMAP
70
50
70
00
88
88
88
88
88
88
70
ENDCHAR
STARTCHAR char367
ENCODING 367
SWIDTH 576 0
DWIDTH 6 0
BBX 4 9 1 0
BITMAP
70
50
70
00
90
90
90
90
70
ENDCHAR
STARTCHAR char368
ENCODING 368
SWIDTH 672 0
DWIDTH 7 0
BBX 5 10 1 0
BITMAP
28
50
00
88
88
88
88
88
88
70
ENDCHAR
STARTCHAR char369
ENCODING 369
SWIDTH 576 0
DWIDTH 6 0
BBX 4 8 1 0
BITMAP
50
A0
00
90
90
90
90
70
ENDCHAR
STARTCHAR char370
ENCODING 370
SWIDTH 672 0
DWIDTH 7 0
BBX 5 9 1 -2
BITMAP
88
88
88
88
88
88
70
20
30
ENDCHAR
STARTCHAR char371
ENCODING 371
SWIDTH 576 0
DWIDTH 6 0
BBX 5 7 1 -2
BITMAP
90
90
90
90
70
10
18
ENDCHAR
STARTCHAR char372
ENCODING 372
SWIDTH 864 0
DWIDTH 9 0
BBX 9 10 0 0
BITMAP
0800
1400
0000
8880
9480
5500
5500
5500
5500
2200
ENDCHAR
STARTCHAR char373
ENCODING 373
SWIDTH 672 0
DWIDTH 7 0
BBX 7 8 0 0
BITMAP
10
28
00
92
AA
AA
AA
44
ENDCHAR
STARTCHAR char374
ENCODING 374
SWIDTH 672 0
DWIDTH 7 0
BBX 7 10 0 0
BITMAP
20
50
00
82
44
28
10
10
10
10
ENDCHAR
STARTCHAR char375
ENCODING 375
SWIDTH 480 0
DWIDTH 5 0
BBX 5 10 0 -2
BITMAP
20
50
00
88
50
50
50
20
20
40
ENDCHAR
STARTCHAR char376
ENCODING 376
SWIDTH 672 0
DWIDTH 7 0
BBX 7 9 0 0
BITMAP
28
00
82
44
28
10
10
10
10
ENDCHAR
STARTCHAR char377
ENCODING 377
SWIDTH 576 0
DWIDTH 6 0
BBX 6 10 0 0
BITMAP
10
20
00
FC
0C
18
30
60
C0
FC
ENDCHAR
STARTCHAR char378
ENCODING 378
SWIDTH 480 0
DWIDTH 5 0
BBX 5 8 0 0
BITMAP
10
20
00
F8
10
20
40
F8
ENDCHAR
STARTCHAR char379
ENCODING 379
SWIDTH 576 0
DWIDTH 6 0
BBX 6 9 0 0
BITMAP
10
00
FC
0C
18
30
60
C0
FC
ENDCHAR
STARTCHAR char380
ENCODING 380
SWIDTH 480 0
DWIDTH 5 0
BBX 5 7 0 0
BITMAP
20
00
F8
10
20
40
F8
ENDCHAR
STARTCHAR char381
ENCODING 381
SWIDTH 576 0
DWIDTH 6 0
BBX 6 10 0 0
BITMAP
28
10
00
FC
0C
18
30
60
C0
FC
ENDCHAR
STARTCHAR char382
ENCODING 382
SWIDTH 480 0
DWIDTH 5 0
BBX 5 8 0 0
BITMAP
50
20
00
F8
10
20
40
F8
ENDCHAR
STARTCHAR char383
ENCODING 383
SWIDTH 288 0
DWIDTH 3 0
BBX 2 7 1 0
BITMAP
C0
80
80
80
80
80
80
ENDCHAR
STARTCHAR char402
ENCODING 402
SWIDTH 576 0
DWIDTH 6 0
BBX 6 9 0 -2
BITMAP
0C
10
38
10
10
20
20
20
E0
ENDCHAR
STARTCHAR char416
ENCODING 416
SWIDTH 864 0
DWIDTH 9 0
BBX 7 7 1 0
BITMAP
7A
86
84
84
84
84
78
ENDCHAR
STARTCHAR char417
ENCODING 417
SWIDTH 672 0
DWIDTH 7 0
BBX 5 5 1 0
BITMAP
68
98
90
90
60
ENDCHAR
STARTCHAR char431
ENCODING 431
SWIDTH 864 0
DWIDTH 9 0
BBX 7 7 1 0
BITMAP
8A
8A
8C
88
88
88
70
ENDCHAR
STARTCHAR char432
ENCODING 432
SWIDTH 672 0
DWIDTH 7 0
BBX 6 5 1 0
BITMAP
94
94
98
90
70
ENDCHAR
STARTCHAR char461
ENCODING 461
SWIDTH 672 0
DWIDTH 7 0
BBX 7 10 0 0
BITMAP
28
10
00
10
28
28
44
7C
44
82
ENDCHAR
STARTCHAR char462
ENCODING 462
SWIDTH 576 0
DWIDTH 6 0
BBX 4 8 1 0
BITMAP
50
20
00
70
10
70
90
F0
ENDCHAR
STARTCHAR char463
ENCODING 463
SWIDTH 288 0
DWIDTH 3 0
BBX 3 10 0 0
BITMAP
40
20
00
20
20
20
20
20
20
20
ENDCHAR
STARTCHAR char464
ENCODING 464
SWIDTH 288 0
DWIDTH 3 0
BBX 3 8 0 0
BITMAP
40
20
00
20
20
20
20
20
ENDCHAR
STARTCHAR char465
ENCODING 465
SWIDTH 768 0
DWIDTH 8 0
BBX 6 10 1 0
BITMAP
28
10
00
78
84
84
84
84
84
78
ENDCHAR
STARTCHAR char466
ENCODING 466
SWIDTH 576 0
DWIDTH 6 0
BBX 4 8 1 0
BITMAP
50
20
00
60
90
90
90
60
ENDCHAR
STARTCHAR char467
ENCODING 467
SWIDTH 672 0
DWIDTH 7 0
BBX 5 10 1 0
BITMAP
50
20
00
88
88
88
88
88
88
70
ENDCHAR
STARTCHAR char468
ENCODING 468
SWIDTH 576 0
DWIDTH 6 0
BBX 4 8 1 0
BITMAP
50
20
00
90
90
90
90
70
ENDCHAR
STARTCHAR char469
ENCODING 469
SWIDTH 672 0
DWIDTH 7 0
BBX 5 10 1 0
BITMAP
70
00
50
88
88
88
88
88
88
70
ENDCHAR
STARTCHAR char470
ENCODING 470
SWIDTH 576 0
DWIDTH 6 0
BBX 4 9 1 0
BITMAP
70
00
50
00
90
90
90
90
70
ENDCHAR
STARTCHAR char471
ENCODING 471
SWIDTH 672 0
DWIDTH 7 0
BBX 5 10 1 0
BITMAP
10
20
50
88
88
88
88
88
88
70
ENDCHAR
STARTCHAR char472
ENCODING 472
SWIDTH 576 0
DWIDTH 6 0
BBX 4 10 1 0
BITMAP
10
20
00
50
00
90
90
90
90
70
ENDCHAR
STARTCHAR char473
ENCODING 473
SWIDTH 672 0
DWIDTH 7 0
BBX 5 10 1 0
BITMAP
50
20
50
88
88
88
88
88
88
70
ENDCHAR
STARTCHAR char474
ENCODING 474
SWIDTH 576 0
DWIDTH 6 0
BBX 4 10 1 0
BITMAP
50
20
00
50
00
90
90
90
90
70
ENDCHAR
STARTCHAR char475
ENCODING 475
SWIDTH 672 0
DWIDTH 7 0
BBX 5 10 1 0
BITMAP
40
20
50
88
88
88
88
88
88
70
ENDCHAR
STARTCHAR char476
ENCODING 476
SWIDTH 576 0
DWIDTH 6 0
BBX 4 10 1 0
BITMAP
40
20
00
50
00
90
90
90
90
70
ENDCHAR
STARTCHAR char506
ENCODING 506
SWIDTH 672 0
DWIDTH 7 0
BBX 7 12 0 0
BITMAP
08
10
00
38
28
38
28
28
44
7C
44
82
ENDCHAR
STARTCHAR char507
ENCODING 507
SWIDTH 576 0
DWIDTH 6 0
BBX 4 12 1 0
BITMAP
10
20
00
70
50
70
00
70
10
70
90
F0
ENDCHAR
STARTCHAR char508
ENCODING 508
SWIDTH 960 0
DWIDTH 10 0
BBX 8 10 1 0
BITMAP
04
08
00
1F
14
24
67
7C
84
87
ENDCHAR
STARTCHAR char509
ENCODING 509
SWIDTH 864 0
DWIDTH 9 0
BBX 7 8 1 0
BITMAP
08
10
00
6C
92
7E
90
EE
ENDCHAR
STARTCHAR char510
ENCODING 510
SWIDTH 768 0
DWIDTH 8 0
BBX 6 10 1 -1
BITMAP
10
20
00
7C
88
94
A4
A4
48
F8
ENDCHAR
STARTCHAR char511
ENCODING 511
SWIDTH 576 0
DWIDTH 6 0
BBX 3 7 2 0
BITMAP
20
00
60
A0
C0
40
E0
ENDCHAR
STARTCHAR char710
ENCODING 710
SWIDTH 288 0
DWIDTH 3 0
BBX 3 2 1 5
BITMAP
20
40
ENDCHAR
STARTCHAR char711
ENCODING 711
SWIDTH 288 0
DWIDTH 3 0
BBX 3 2 1 6
BITMAP
40
20
ENDCHAR
STARTCHAR char713
ENCODING 713
SWIDTH 288 0
DWIDTH 3 0
BBX 3 1 0 6
BITMAP
E0
ENDCHAR
STARTCHAR char728
ENCODING 728
SWIDTH 288 0
DWIDTH 3 0
BBX 3 2 0 5
BITMAP
A0
E0
ENDCHAR
STARTCHAR char729
ENCODING 729
SWIDTH 288 0
DWIDTH 3 0
BBX 1 1 1 6
BITMAP
80
ENDCHAR
STARTCHAR char730
ENCODING 730
SWIDTH 288 0
DWIDTH 3 0
BBX 3 3 1 4
BITMAP
E0
A0
E0
ENDCHAR
STARTCHAR char731
ENCODING 731
SWIDTH 288 0
DWIDTH 3 0
BBX 2 2 1 -2
BITMAP
80
C0
ENDCHAR
STARTCHAR char732
ENCODING 732
SWIDTH 384 0
DWIDTH 4 0
BBX 4 2 0 5
BITMAP
50
A0
ENDCHAR
STARTCHAR char733
ENCODING 733
SWIDTH 288 0
DWIDTH 3 0
BBX 4 2 0 5
BITMAP
50
A0
ENDCHAR
STARTCHAR char768
ENCODING 768
SWIDTH 0 0
DWIDTH 0 0
BBX 2 2 -3 8
BITMAP
80
40
ENDCHAR
STARTCHAR char769
ENCODING 769
SWIDTH 0 0
DWIDTH 0 0
BBX 2 2 -2 8
BITMAP
40
80
ENDCHAR
STARTCHAR char771
ENCODING 771
SWIDTH 0 0
DWIDTH 0 0
BBX 4 2 -5 8
BITMAP
50
A0
ENDCHAR
STARTCHAR char777
ENCODING 777
SWIDTH 0 0
DWIDTH 0 0
BBX 3 2 -3 8
BITMAP
E0
40
ENDCHAR
STARTCHAR char803
ENCODING 803
SWIDTH 0 0
DWIDTH 0 0
BBX 1 1 -5 -2
BITMAP
80
ENDCHAR
STARTCHAR char894
ENCODING 894
SWIDTH 288 0
DWIDTH 3 0
BBX 1 6 1 -1
BITMAP
80
00
00
00
80
80
ENDCHAR
STARTCHAR char900
ENCODING 900
SWIDTH 288 0
DWIDTH 3 0
BBX 2 2 1 5
BITMAP
40
80
ENDCHAR
STARTCHAR char901
ENCODING 901
SWIDTH 288 0
DWIDTH 3 0
BBX 4 2 0 5
BITMAP
20
D0
ENDCHAR
STARTCHAR char902
ENCODING 902
SWIDTH 672 0
DWIDTH 7 0
BBX 7 7 0 0
BITMAP
50
A8
28
44
7C
44
82
ENDCHAR
STARTCHAR char903
ENCODING 903
SWIDTH 288 0
DWIDTH 3 0
BBX 1 1 1 4
BITMAP
80
ENDCHAR
STARTCHAR char904
ENCODING 904
SWIDTH 768 0
DWIDTH 8 0
BBX 8 7 -1 0
BITMAP
5F
90
10
1F
10
10
1F
ENDCHAR
STARTCHAR char905
ENCODING 905
SWIDTH 768 0
DWIDTH 8 0
BBX 8 7 -1 0
BITMAP
51
91
11
1F
11
11
11
ENDCHAR
STARTCHAR char906
ENCODING 906
SWIDTH 384 0
DWIDTH 4 0
BBX 4 7 -1 0
BITMAP
50
90
10
10
10
10
10
ENDCHAR
STARTCHAR char908
ENCODING 908
SWIDTH 768 0
DWIDTH 8 0
BBX 8 7 -1 0
BITMAP
5E
A1
21
21
21
21
1E
ENDCHAR
STARTCHAR char910
ENCODING 910
SWIDTH 864 0
DWIDTH 9 0
BBX 10 7 -1 0
BITMAP
5040
8880
0500
0200
0200
0200
0200
ENDCHAR
STARTCHAR char911
ENCODING 911
SWIDTH 768 0
DWIDTH 8 0
BBX 9 7 -1 0
BITMAP
4E00
9100
2080
2080
2080
1100
3B80
ENDCHAR
STARTCHAR char912
ENCODING 912
SWIDTH 192 0
DWIDTH 2 0
BBX 4 8 -1 0
BITMAP
20
D0
00
40
40
40
40
40
ENDCHAR
STARTCHAR char913
ENCODING 913
SWIDTH 672 0
DWIDTH 7 0
BBX 7 7 0 0
BITMAP
10
28
28
44
7C
44
82
ENDCHAR
STARTCHAR char914
ENCODING 914
SWIDTH 672 0
DWIDTH 7 0
BBX 5 7 1 0
BITMAP
F0
88
88
F8
88
88
F0
ENDCHAR
STARTCHAR char915
ENCODING 915
SWIDTH 576 0
DWIDTH 6 0
BBX 4 7 1 0
BITMAP
F0
80
80
80
80
80
80
ENDCHAR
STARTCHAR char916
ENCODING 916
SWIDTH 672 0
DWIDTH 7 0
BBX 5 7 1 0
BITMAP
10
30
28
28
40
40
78
ENDCHAR
STARTCHAR char917
ENCODING 917
SWIDTH 672 0
DWIDTH 7 0
BBX 5 7 1 0
BITMAP
F8
80
80
F8
80
80
F8
ENDCHAR
STARTCHAR char918
ENCODING 918
SWIDTH 576 0
DWIDTH 6 0
BBX 6 7 0 0
BITMAP
FC
0C
18
30
60
C0
FC
ENDCHAR
STARTCHAR char919
ENCODING 919
SWIDTH 672 0
DWIDTH 7 0
BBX 5 7 1 0
BITMAP
88
88
88
F8
88
88
88
ENDCHAR
STARTCHAR char920
ENCODING 920
SWIDTH 768 0
DWIDTH 8 0
BBX 6 7 1 0
BITMAP
78
84
84
B4
84
84
78
ENDCHAR
STARTCHAR char921
ENCODING 921
SWIDTH 288 0
DWIDTH 3 0
BBX 1 7 1 0
BITMAP
80
80
80
80
80
80
80
ENDCHAR
STARTCHAR char922
ENCODING 922
SWIDTH 672 0
DWIDTH 7 0
BBX 6 7 1 0
BITMAP
80
98
A0
A0
D0
88
84
ENDCHAR
STARTCHAR char923
ENCODING 923
SWIDTH 672 0
DWIDTH 7 0
BBX 5 7 1 0
BITMAP
10
18
28
28
40
40
40
ENDCHAR
STARTCHAR char924
ENCODING 924
SWIDTH 864 0
DWIDTH 9 0
BBX 7 7 1 0
BITMAP
82
C6
C6
AA
AA
AA
92
ENDCHAR
STARTCHAR char925
ENCODING 925
SWIDTH 672 0
DWIDTH 7 0
BBX 5 7 1 0
BITMAP
88
C8
C8
A8
98
98
88
ENDCHAR
STARTCHAR char926
ENCODING 926
SWIDTH 672 0
DWIDTH 7 0
BBX 5 7 1 0
BITMAP
F8
00
00
70
00
00
F8
ENDCHAR
STARTCHAR char927
ENCODING 927
SWIDTH 768 0
DWIDTH 8 0
BBX 6 7 1 0
BITMAP
78
84
84
84
84
84
78
ENDCHAR
STARTCHAR char928
ENCODING 928
SWIDTH 672 0
DWIDTH 7 0
BBX 5 7 1 0
BITMAP
F8
88
88
88
88
88
88
ENDCHAR
STARTCHAR char929
ENCODING 929
SWIDTH 672 0
DWIDTH 7 0
BBX 5 7 1 0
BITMAP
F0
88
88
F0
80
80
80
ENDCHAR
STARTCHAR char931
ENCODING 931
SWIDTH 576 0
DWIDTH 6 0
BBX 5 7 1 0
BITMAP
F8
80
40
20
40
80
F8
ENDCHAR
STARTCHAR char932
ENCODING 932
SWIDTH 672 0
DWIDTH 7 0
BBX 5 7 1 0
BITMAP
F8
20
20
20
20
20
20
ENDCHAR
STARTCHAR char933
ENCODING 933
SWIDTH 672 0
DWIDTH 7 0
BBX 7 7 0 0
BITMAP
82
44
28
10
10
10
10
ENDCHAR
STARTCHAR char934
ENCODING 934
SWIDTH 672 0
DWIDTH 7 0
BBX 5 7 1 0
BITMAP
20
70
A8
A8
A8
70
20
ENDCHAR
STARTCHAR char935
ENCODING 935
SWIDTH 672 0
DWIDTH 7 0
BBX 7 7 0 0
BITMAP
44
28
10
10
28
44
82
ENDCHAR
STARTCHAR char936
ENCODING 936
SWIDTH 672 0
DWIDTH 7 0
BBX 5 7 1 0
BITMAP
A8
A8
A8
A8
70
20
20
ENDCHAR
STARTCHAR char937
ENCODING 937
SWIDTH 672 0
DWIDTH 7 0
BBX 6 7 1 0
BITMAP
30
48
84
84
84
48
FC
ENDCHAR
STARTCHAR char938
ENCODING 938
SWIDTH 288 0
DWIDTH 3 0
BBX 3 9 0 0
BITMAP
A0
00
40
40
40
40
40
40
40
ENDCHAR
STARTCHAR char939
ENCODING 939
SWIDTH 672 0
DWIDTH 7 0
BBX 7 9 0 0
BITMAP
28
00
82
44
28
10
10
10
10
ENDCHAR
STARTCHAR char940
ENCODING 940
SWIDTH 480 0
DWIDTH 5 0
BBX 5 8 0 0
BITMAP
10
20
00
68
90
90
90
68
ENDCHAR
STARTCHAR char941
ENCODING 941
SWIDTH 480 0
DWIDTH 5 0
BBX 3 8 1 0
BITMAP
20
40
00
E0
80
40
80
E0
ENDCHAR
STARTCHAR char942
ENCODING 942
SWIDTH 576 0
DWIDTH 6 0
BBX 4 10 1 -2
BITMAP
20
40
00
E0
90
90
90
90
10
10
ENDCHAR
STARTCHAR char943
ENCODING 943
SWIDTH 288 0
DWIDTH 3 0
BBX 2 8 0 0
BITMAP
40
80
00
40
40
40
40
40
ENDCHAR
STARTCHAR char944
ENCODING 944
SWIDTH 576 0
DWIDTH 6 0
BBX 4 8 1 0
BITMAP
20
D0
00
90
90
90
90
60
ENDCHAR
STARTCHAR char945
ENCODING 945
SWIDTH 480 0
DWIDTH 5 0
BBX 5 5 0 0
BITMAP
68
90
90
90
68
ENDCHAR
STARTCHAR char946
ENCODING 946
SWIDTH 576 0
DWIDTH 6 0
BBX 4 9 1 -2
BITMAP
60
90
90
A0
90
90
F0
80
80
ENDCHAR
STARTCHAR char947
ENCODING 947
SWIDTH 480 0
DWIDTH 5 0
BBX 3 7 1 -2
BITMAP
40
40
40
20
20
20
20
ENDCHAR
STARTCHAR char948
ENCODING 948
SWIDTH 576 0
DWIDTH 6 0
BBX 4 7 1 0
BITMAP
F0
40
60
90
90
90
60
ENDCHAR
STARTCHAR char949
ENCODING 949
SWIDTH 480 0
DWIDTH 5 0
BBX 3 5 1 0
BITMAP
E0
80
40
80
E0
ENDCHAR
STARTCHAR char950
ENCODING 950
SWIDTH 384 0
DWIDTH 4 0
BBX 3 9 1 -2
BITMAP
E0
40
40
80
80
80
E0
20
40
ENDCHAR
STARTCHAR char951
ENCODING 951
SWIDTH 576 0
DWIDTH 6 0
BBX 4 7 1 -2
BITMAP
E0
90
90
90
90
10
10
ENDCHAR
STARTCHAR char952
ENCODING 952
SWIDTH 576 0
DWIDTH 6 0
BBX 4 7 1 0
BITMAP
60
90
90
F0
90
90
60
ENDCHAR
STARTCHAR char953
ENCODING 953
SWIDTH 288 0
DWIDTH 3 0
BBX 1 5 1 0
BITMAP
80
80
80
80
80
ENDCHAR
STARTCHAR char954
ENCODING 954
SWIDTH 480 0
DWIDTH 5 0
BBX 3 5 1 0
BITMAP
A0
C0
C0
A0
A0
ENDCHAR
STARTCHAR char955
ENCODING 955
SWIDTH 480 0
DWIDTH 5 0
BBX 3 7 1 0
BITMAP
40
20
20
20
40
40
40
ENDCHAR
STARTCHAR char956
ENCODING 956
SWIDTH 576 0
DWIDTH 6 0
BBX 4 7 1 -2
BITMAP
90
90
90
90
F0
80
80
ENDCHAR
STARTCHAR char957
ENCODING 957
SWIDTH 480 0
DWIDTH 5 0
BBX 5 5 0 0
BITMAP
88
50
50
50
20
ENDCHAR
STARTCHAR char958
ENCODING 958
SWIDTH 384 0
DWIDTH 4 0
BBX 3 9 1 -2
BITMAP
C0
80
40
80
80
80
E0
20
40
ENDCHAR
STARTCHAR char959
ENCODING 959
SWIDTH 576 0
DWIDTH 6 0
BBX 4 5 1 0
BITMAP
60
90
90
90
60
ENDCHAR
STARTCHAR char960
ENCODING 960
SWIDTH 672 0
DWIDTH 7 0
BBX 7 5 0 0
BITMAP
FE
44
44
44
44
ENDCHAR
STARTCHAR char961
ENCODING 961
SWIDTH 576 0
DWIDTH 6 0
BBX 4 7 1 -2
BITMAP
60
90
90
90
E0
80
80
ENDCHAR
STARTCHAR char962
ENCODING 962
SWIDTH 480 0
DWIDTH 5 0
BBX 3 7 1 -2
BITMAP
60
80
80
80
60
20
60
ENDCHAR
STARTCHAR char963
ENCODING 963
SWIDTH 576 0
DWIDTH 6 0
BBX 5 5 1 0
BITMAP
78
90
90
90
60
ENDCHAR
STARTCHAR char964
ENCODING 964
SWIDTH 288 0
DWIDTH 3 0
BBX 3 5 0 0
BITMAP
E0
40
40
40
40
ENDCHAR
STARTCHAR char965
ENCODING 965
SWIDTH 576 0
DWIDTH 6 0
BBX 4 5 1 0
BITMAP
90
90
90
90
60
ENDCHAR
STARTCHAR char966
ENCODING 966
SWIDTH 576 0
DWIDTH 6 0
BBX 5 7 0 -2
BITMAP
B0
A8
A8
A8
70
20
20
ENDCHAR
STARTCHAR char967
ENCODING 967
SWIDTH 480 0
DWIDTH 5 0
BBX 5 7 0 -2
BITMAP
40
28
28
10
28
28
40
ENDCHAR
STARTCHAR char968
ENCODING 968
SWIDTH 672 0
DWIDTH 7 0
BBX 5 7 1 -2
BITMAP
A8
A8
A8
A8
70
20
20
ENDCHAR
STARTCHAR char969
ENCODING 969
SWIDTH 768 0
DWIDTH 8 0
BBX 5 5 1 0
BITMAP
50
A8
A8
A8
D8
ENDCHAR
STARTCHAR char970
ENCODING 970
SWIDTH 288 0
DWIDTH 3 0
BBX 3 7 0 0
BITMAP
A0
00
40
40
40
40
40
ENDCHAR
STARTCHAR char971
ENCODING 971
SWIDTH 576 0
DWIDTH 6 0
BBX 4 7 1 0
BITMAP
50
00
90
90
90
90
60
ENDCHAR
STARTCHAR char972
ENCODING 972
SWIDTH 576 0
DWIDTH 6 0
BBX 4 8 1 0
BITMAP
20
40
00
60
90
90
90
60
ENDCHAR
STARTCHAR char973
ENCODING 973
SWIDTH 576 0
DWIDTH 6 0
BBX 4 8 1 0
BITMAP
20
40
00
90
90
90
90
60
ENDCHAR
STARTCHAR char974
ENCODING 974
SWIDTH 768 0
DWIDTH 8 0
BBX 5 8 1 0
BITMAP
10
20
00
50
A8
A8
A8
D8
ENDCHAR
STARTCHAR char1025
ENCODING 1025
SWIDTH 672 0
DWIDTH 7 0
BBX 5 9 1 0
BITMAP
50
00
F8
80
80
F8
80
80
F8
ENDCHAR
STARTCHAR char1026
ENCODING 1026
SWIDTH 864 0
DWIDTH 9 0
BBX 8 7 0 0
BITMAP
F8
20
3E
21
21
21
2E
ENDCHAR
STARTCHAR char1027
ENCODING 1027
SWIDTH 480 0
DWIDTH 5 0
BBX 4 10 1 0
BITMAP
10
20
00
F0
80
80
80
80
80
80
ENDCHAR
STARTCHAR char1028
ENCODING 1028
SWIDTH 672 0
DWIDTH 7 0
BBX 5 7 1 0
BITMAP
38
40
40
70
40
40
38
ENDCHAR
STARTCHAR char1029
ENCODING 1029
SWIDTH 672 0
DWIDTH 7 0
BBX 5 7 1 0
BITMAP
70
88
80
70
08
88
70
ENDCHAR
STARTCHAR char1030
ENCODING 1030
SWIDTH 288 0
DWIDTH 3 0
BBX 1 7 1 0
BITMAP
80
80
80
80
80
80
80
ENDCHAR
STARTCHAR char1031
ENCODING 1031
SWIDTH 288 0
DWIDTH 3 0
BBX 3 9 0 0
BITMAP
A0
00
40
40
40
40
40
40
40
ENDCHAR
STARTCHAR char1032
ENCODING 1032
SWIDTH 480 0
DWIDTH 5 0
BBX 3 2 1 0
BITMAP
80
E0
ENDCHAR
STARTCHAR char1033
ENCODING 1033
SWIDTH 1056 0
DWIDTH 11 0
BBX 10 7 0 0
BITMAP
7C00
4400
4400
4780
4440
4440
8780
ENDCHAR
STARTCHAR char1034
ENCODING 1034
SWIDTH 960 0
DWIDTH 10 0
BBX 8 7 1 0
BITMAP
90
90
90
FE
91
91
9E
ENDCHAR
STARTCHAR char1035
ENCODING 1035
SWIDTH 768 0
DWIDTH 8 0
BBX 7 7 0 0
BITMAP
F8
20
3C
22
22
22
22
ENDCHAR
STARTCHAR char1036
ENCODING 1036
SWIDTH 576 0
DWIDTH 6 0
BBX 5 10 1 0
BITMAP
20
40
00
88
90
A0
C0
A0
90
88
ENDCHAR
STARTCHAR char1038
ENCODING 1038
SWIDTH 576 0
DWIDTH 6 0
BBX 5 10 1 0
BITMAP
28
38
00
40
40
28
28
10
10
60
ENDCHAR
STARTCHAR char1039
ENCODING 1039
SWIDTH 672 0
DWIDTH 7 0
BBX 5 9 1 -2
BITMAP
88
88
88
88
88
88
F8
20
20
ENDCHAR
STARTCHAR char1040
ENCODING 1040
SWIDTH 672 0
DWIDTH 7 0
BBX 7 7 0 0
BITMAP
10
28
28
44
7C
44
82
ENDCHAR
STARTCHAR char1041
ENCODING 1041
SWIDTH 672 0
DWIDTH 7 0
BBX 5 7 1 0
BITMAP
F0
80
80
F0
88
88
F0
ENDCHAR
STARTCHAR char1042
ENCODING 1042
SWIDTH 672 0
DWIDTH 7 0
BBX 5 7 1 0
BITMAP
F0
88
88
F8
88
88
F0
ENDCHAR
STARTCHAR char1043
ENCODING 1043
SWIDTH 480 0
DWIDTH 5 0
BBX 4 7 1 0
BITMAP
F0
80
80
80
80
80
80
ENDCHAR
STARTCHAR char1044
ENCODING 1044
SWIDTH 672 0
DWIDTH 7 0
BBX 7 9 0 -2
BITMAP
3C
24
24
24
24
44
FE
82
82
ENDCHAR
STARTCHAR char1045
ENCODING 1045
SWIDTH 672 0
DWIDTH 7 0
BBX 5 7 1 0
BITMAP
F8
80
80
F8
80
80
F8
ENDCHAR
STARTCHAR char1046
ENCODING 1046
SWIDTH 864 0
DWIDTH 9 0
BBX 9 7 0 0
BITMAP
C980
4900
2A00
1C00
2A00
4900
8880
ENDCHAR
STARTCHAR char1047
ENCODING 1047
SWIDTH 576 0
DWIDTH 6 0
BBX 5 7 0 0
BITMAP
70
88
08
30
08
88
70
ENDCHAR
STARTCHAR char1048
ENCODING 1048
SWIDTH 672 0
DWIDTH 7 0
BBX 5 7 1 0
BITMAP
88
98
A8
A8
C8
C8
88
ENDCHAR
STARTCHAR char1049
ENCODING 1049
SWIDTH 672 0
DWIDTH 7 0
BBX 5 10 1 0
BITMAP
50
70
00
88
98
A8
A8
C8
C8
88
ENDCHAR
STARTCHAR char1050
ENCODING 1050
SWIDTH 576 0
DWIDTH 6 0
BBX 5 7 1 0
BITMAP
88
90
A0
C0
A0
90
88
ENDCHAR
STARTCHAR char1051
ENCODING 1051
SWIDTH 672 0
DWIDTH 7 0
BBX 6 7 0 0
BITMAP
7C
44
44
44
44
44
84
ENDCHAR
STARTCHAR char1052
ENCODING 1052
SWIDTH 864 0
DWIDTH 9 0
BBX 7 7 1 0
BITMAP
82
C6
C6
AA
AA
AA
92
ENDCHAR
STARTCHAR char1053
ENCODING 1053
SWIDTH 672 0
DWIDTH 7 0
BBX 5 7 1 0
BITMAP
88
88
88
F8
88
88
88
ENDCHAR
STARTCHAR char1054
ENCODING 1054
SWIDTH 768 0
DWIDTH 8 0
BBX 6 7 1 0
BITMAP
78
84
84
84
84
84
78
ENDCHAR
STARTCHAR char1055
ENCODING 1055
SWIDTH 672 0
DWIDTH 7 0
BBX 5 7 1 0
BITMAP
F8
88
88
88
88
88
88
ENDCHAR
STARTCHAR char1056
ENCODING 1056
SWIDTH 672 0
DWIDTH 7 0
BBX 5 7 1 0
BITMAP
F0
88
88
F0
80
80
80
ENDCHAR
STARTCHAR char1057
ENCODING 1057
SWIDTH 672 0
DWIDTH 7 0
BBX 5 7 1 0
BITMAP
70
88
80
80
80
88
70
ENDCHAR
STARTCHAR char1058
ENCODING 1058
SWIDTH 672 0
DWIDTH 7 0
BBX 5 7 1 0
BITMAP
F8
20
20
20
20
20
20
ENDCHAR
STARTCHAR char1059
ENCODING 1059
SWIDTH 576 0
DWIDTH 6 0
BBX 5 7 1 0
BITMAP
40
40
28
28
10
10
60
ENDCHAR
STARTCHAR char1060
ENCODING 1060
SWIDTH 672 0
DWIDTH 7 0
BBX 5 7 1 0
BITMAP
20
70
A8
A8
A8
70
20
ENDCHAR
STARTCHAR char1061
ENCODING 1061
SWIDTH 672 0
DWIDTH 7 0
BBX 7 7 0 0
BITMAP
44
28
10
10
28
44
82
ENDCHAR
STARTCHAR char1062
ENCODING 1062
SWIDTH 672 0
DWIDTH 7 0
BBX 6 9 1 -2
BITMAP
88
88
88
88
88
88
FC
04
04
ENDCHAR
STARTCHAR char1063
ENCODING 1063
SWIDTH 672 0
DWIDTH 7 0
BBX 5 7 1 0
BITMAP
88
88
88
88
78
08
08
ENDCHAR
STARTCHAR char1064
ENCODING 1064
SWIDTH 864 0
DWIDTH 9 0
BBX 7 7 1 0
BITMAP
92
92
92
92
92
92
FE
ENDCHAR
STARTCHAR char1065
ENCODING 1065
SWIDTH 864 0
DWIDTH 9 0
BBX 8 9 1 -2
BITMAP
92
92
92
92
92
92
FF
01
01
ENDCHAR
STARTCHAR char1066
ENCODING 1066
SWIDTH 768 0
DWIDTH 8 0
BBX 7 7 0 0
BITMAP
E0
20
20
3C
22
22
3C
ENDCHAR
STARTCHAR char1067
ENCODING 1067
SWIDTH 864 0
DWIDTH 9 0
BBX 7 7 1 0
BITMAP
82
82
82
F2
8A
8A
F2
ENDCHAR
STARTCHAR char1068
ENCODING 1068
SWIDTH 672 0
DWIDTH 7 0
BBX 5 7 1 0
BITMAP
80
80
80
F0
88
88
F0
ENDCHAR
STARTCHAR char1069
ENCODING 1069
SWIDTH 672 0
DWIDTH 7 0
BBX 5 7 1 0
BITMAP
70
88
08
38
08
88
70
ENDCHAR
STARTCHAR char1070
ENCODING 1070
SWIDTH 960 0
DWIDTH 10 0
BBX 8 7 1 0
BITMAP
9E
A1
A1
E1
A1
A1
9E
ENDCHAR
STARTCHAR char1071
ENCODING 1071
SWIDTH 672 0
DWIDTH 7 0
BBX 5 7 1 0
BITMAP
38
40
40
38
20
40
40
ENDCHAR
STARTCHAR char1072
ENCODING 1072
SWIDTH 576 0
DWIDTH 6 0
BBX 4 5 1 0
BITMAP
70
10
70
90
F0
ENDCHAR
STARTCHAR char1073
ENCODING 1073
SWIDTH 576 0
DWIDTH 6 0
BBX 4 7 1 0
BITMAP
70
80
E0
90
90
90
60
ENDCHAR
STARTCHAR char1074
ENCODING 1074
SWIDTH 480 0
DWIDTH 5 0
BBX 3 5 1 0
BITMAP
C0
A0
C0
A0
C0
ENDCHAR
STARTCHAR char1075
ENCODING 1075
SWIDTH 384 0
DWIDTH 4 0
BBX 3 5 1 0
BITMAP
E0
80
80
80
80
ENDCHAR
STARTCHAR char1076
ENCODING 1076
SWIDTH 576 0
DWIDTH 6 0
BBX 5 6 1 -1
BITMAP
70
50
50
90
F8
88
ENDCHAR
STARTCHAR char1077
ENCODING 1077
SWIDTH 576 0
DWIDTH 6 0
BBX 4 5 1 0
BITMAP
60
90
F0
80
70
ENDCHAR
STARTCHAR char1078
ENCODING 1078
SWIDTH 576 0
DWIDTH 6 0
BBX 5 5 0 0
BITMAP
A8
70
20
70
A8
ENDCHAR
STARTCHAR char1079
ENCODING 1079
SWIDTH 384 0
DWIDTH 4 0
BBX 4 5 0 0
BITMAP
60
90
20
90
60
ENDCHAR
STARTCHAR char1080
ENCODING 1080
SWIDTH 576 0
DWIDTH 6 0
BBX 4 5 1 0
BITMAP
90
B0
D0
D0
90
ENDCHAR
STARTCHAR char1081
ENCODING 1081
SWIDTH 576 0
DWIDTH 6 0
BBX 4 8 1 0
BITMAP
50
70
00
90
B0
D0
D0
90
ENDCHAR
STARTCHAR char1082
ENCODING 1082
SWIDTH 480 0
DWIDTH 5 0
BBX 3 5 1 0
BITMAP
A0
C0
C0
C0
A0
ENDCHAR
STARTCHAR char1083
ENCODING 1083
SWIDTH 576 0
DWIDTH 6 0
BBX 5 5 0 0
BITMAP
78
48
48
48
88
ENDCHAR
STARTCHAR char1084
ENCODING 1084
SWIDTH 672 0
DWIDTH 7 0
BBX 5 5 1 0
BITMAP
D8
D8
D8
A8
A8
ENDCHAR
STARTCHAR char1085
ENCODING 1085
SWIDTH 576 0
DWIDTH 6 0
BBX 4 5 1 0
BITMAP
90
90
F0
90
90
ENDCHAR
STARTCHAR char1086
ENCODING 1086
SWIDTH 576 0
DWIDTH 6 0
BBX 4 5 1 0
BITMAP
60
90
90
90
60
ENDCHAR
STARTCHAR char1087
ENCODING 1087
SWIDTH 576 0
DWIDTH 6 0
BBX 4 5 1 0
BITMAP
F0
90
90
90
90
ENDCHAR
STARTCHAR char1088
ENCODING 1088
SWIDTH 576 0
DWIDTH 6 0
BBX 4 7 1 -2
BITMAP
E0
90
90
90
E0
80
80
ENDCHAR
STARTCHAR char1089
ENCODING 1089
SWIDTH 576 0
DWIDTH 6 0
BBX 4 5 1 0
BITMAP
60
90
80
90
60
ENDCHAR
STARTCHAR char1090
ENCODING 1090
SWIDTH 480 0
DWIDTH 5 0
BBX 5 5 0 0
BITMAP
F8
20
20
20
20
ENDCHAR
STARTCHAR char1091
ENCODING 1091
SWIDTH 480 0
DWIDTH 5 0
BBX 5 7 0 -2
BITMAP
88
50
50
50
20
20
40
ENDCHAR
STARTCHAR char1092
ENCODING 1092
SWIDTH 864 0
DWIDTH 9 0
BBX 7 9 1 -2
BITMAP
10
10
7C
92
92
92
7C
10
10
ENDCHAR
STARTCHAR char1093
ENCODING 1093
SWIDTH 480 0
DWIDTH 5 0
BBX 5 5 0 0
BITMAP
88
50
20
50
88
ENDCHAR
STARTCHAR char1094
ENCODING 1094
SWIDTH 576 0
DWIDTH 6 0
BBX 5 7 1 -2
BITMAP
90
90
90
90
F8
08
08
ENDCHAR
STARTCHAR char1095
ENCODING 1095
SWIDTH 480 0
DWIDTH 5 0
BBX 3 5 1 0
BITMAP
A0
A0
A0
60
20
ENDCHAR
STARTCHAR char1096
ENCODING 1096
SWIDTH 672 0
DWIDTH 7 0
BBX 5 5 1 0
BITMAP
A8
A8
A8
A8
F8
ENDCHAR
STARTCHAR char1097
ENCODING 1097
SWIDTH 672 0
DWIDTH 7 0
BBX 6 7 1 -2
BITMAP
A8
A8
A8
A8
FC
04
04
ENDCHAR
STARTCHAR char1098
ENCODING 1098
SWIDTH 576 0
DWIDTH 6 0
BBX 4 5 1 0
BITMAP
C0
40
70
50
70
ENDCHAR
STARTCHAR char1099
ENCODING 1099
SWIDTH 672 0
DWIDTH 7 0
BBX 5 5 1 0
BITMAP
88
88
E8
98
E8
ENDCHAR
STARTCHAR char1100
ENCODING 1100
SWIDTH 576 0
DWIDTH 6 0
BBX 4 5 1 0
BITMAP
80
80
E0
90
E0
ENDCHAR
STARTCHAR char1101
ENCODING 1101
SWIDTH 480 0
DWIDTH 5 0
BBX 4 5 0 -1
BITMAP
60
90
30
90
60
ENDCHAR
STARTCHAR char1102
ENCODING 1102
SWIDTH 768 0
DWIDTH 8 0
BBX 6 5 1 0
BITMAP
98
A4
E4
A4
98
ENDCHAR
STARTCHAR char1103
ENCODING 1103
SWIDTH 480 0
DWIDTH 5 0
BBX 3 5 1 0
BITMAP
20
40
20
40
40
ENDCHAR
STARTCHAR char1105
ENCODING 1105
SWIDTH 576 0
DWIDTH 6 0
BBX 4 7 1 0
BITMAP
A0
00
60
90
F0
80
70
ENDCHAR
STARTCHAR char1106
ENCODING 1106
SWIDTH 576 0
DWIDTH 6 0
BBX 5 9 0 -2
BITMAP
E0
40
70
48
48
48
48
08
18
ENDCHAR
STARTCHAR char1107
ENCODING 1107
SWIDTH 384 0
DWIDTH 4 0
BBX 3 8 1 0
BITMAP
20
40
00
E0
80
80
80
80
ENDCHAR
STARTCHAR char1108
ENCODING 1108
SWIDTH 576 0
DWIDTH 6 0
BBX 4 5 1 -1
BITMAP
30
40
60
40
30
ENDCHAR
STARTCHAR char1109
ENCODING 1109
SWIDTH 384 0
DWIDTH 4 0
BBX 4 5 0 0
BITMAP
70
80
60
10
E0
ENDCHAR
STARTCHAR char1110
ENCODING 1110
SWIDTH 288 0
DWIDTH 3 0
BBX 1 7 1 0
BITMAP
80
00
80
80
80
80
80
ENDCHAR
STARTCHAR char1111
ENCODING 1111
SWIDTH 288 0
DWIDTH 3 0
BBX 3 7 0 0
BITMAP
A0
00
40
40
40
40
40
ENDCHAR
STARTCHAR char1112
ENCODING 1112
SWIDTH 288 0
DWIDTH 3 0
BBX 1 1 1 -2
BITMAP
80
ENDCHAR
STARTCHAR char1113
ENCODING 1113
SWIDTH 768 0
DWIDTH 8 0
BBX 8 5 0 0
BITMAP
78
48
4E
49
CE
ENDCHAR
STARTCHAR char1114
ENCODING 1114
SWIDTH 768 0
DWIDTH 8 0
BBX 7 5 1 0
BITMAP
90
90
FC
92
9C
ENDCHAR
STARTCHAR char1115
ENCODING 1115
SWIDTH 576 0
DWIDTH 6 0
BBX 5 7 0 0
BITMAP
E0
40
70
48
48
48
48
ENDCHAR
STARTCHAR char1116
ENCODING 1116
SWIDTH 480 0
DWIDTH 5 0
BBX 3 8 1 0
BITMAP
20
40
00
A0
C0
C0
C0
A0
ENDCHAR
STARTCHAR char1118
ENCODING 1118
SWIDTH 480 0
DWIDTH 5 0
BBX 5 10 0 -2
BITMAP
50
70
00
88
50
50
50
20
20
40
ENDCHAR
STARTCHAR char1119
ENCODING 1119
SWIDTH 576 0
DWIDTH 6 0
BBX 4 7 1 -2
BITMAP
90
90
90
90
F0
20
20
ENDCHAR
STARTCHAR char1168
ENCODING 1168
SWIDTH 480 0
DWIDTH 5 0
BBX 4 9 1 0
BITMAP
10
10
F0
80
80
80
80
80
80
ENDCHAR
STARTCHAR char1169
ENCODING 1169
SWIDTH 384 0
DWIDTH 4 0
BBX 3 7 1 0
BITMAP
20
20
E0
80
80
80
80
ENDCHAR
STARTCHAR char1456
ENCODING 1456
SWIDTH 288 0
DWIDTH 3 0
BBX 1 2 1 -2
BITMAP
80
80
ENDCHAR
STARTCHAR char1457
ENCODING 1457
SWIDTH 288 0
DWIDTH 3 0
BBX 5 2 -1 -2
BITMAP
A8
48
ENDCHAR
STARTCHAR char1458
ENCODING 1458
SWIDTH 288 0
DWIDTH 3 0
BBX 4 2 -1 -2
BITMAP
D0
10
ENDCHAR
STARTCHAR char1459
ENCODING 1459
SWIDTH 288 0
DWIDTH 3 0
BBX 5 2 -1 -2
BITMAP
E8
48
ENDCHAR
STARTCHAR char1460
ENCODING 1460
SWIDTH 288 0
DWIDTH 3 0
BBX 1 1 1 -2
BITMAP
80
ENDCHAR
STARTCHAR char1461
ENCODING 1461
SWIDTH 288 0
DWIDTH 3 0
BBX 3 1 0 -2
BITMAP
A0
ENDCHAR
STARTCHAR char1462
ENCODING 1462
SWIDTH 288 0
DWIDTH 3 0
BBX 3 2 0 -2
BITMAP
A0
40
ENDCHAR
STARTCHAR char1463
ENCODING 1463
SWIDTH 288 0
DWIDTH 3 0
BBX 2 1 1 -2
BITMAP
C0
ENDCHAR
STARTCHAR char1464
ENCODING 1464
SWIDTH 288 0
DWIDTH 3 0
BBX 3 2 0 -2
BITMAP
E0
40
ENDCHAR
STARTCHAR char1465
ENCODING 1465
SWIDTH 288 0
DWIDTH 3 0
BBX 1 1 1 5
BITMAP
80
ENDCHAR
STARTCHAR char1467
ENCODING 1467
SWIDTH 288 0
DWIDTH 3 0
BBX 3 2 0 -2
BITMAP
80
60
ENDCHAR
STARTCHAR char1468
ENCODING 1468
SWIDTH 288 0
DWIDTH 3 0
BBX 1 1 1 2
BITMAP
80
ENDCHAR
STARTCHAR char1469
ENCODING 1469
SWIDTH 288 0
DWIDTH 3 0
BBX 1 2 1 -2
BITMAP
80
80
ENDCHAR
STARTCHAR char1470
ENCODING 1470
SWIDTH 384 0
DWIDTH 4 0
BBX 3 1 1 4
BITMAP
E0
ENDCHAR
STARTCHAR char1471
ENCODING 1471
SWIDTH 288 0
DWIDTH 3 0
BBX 2 1 1 6
BITMAP
C0
ENDCHAR
STARTCHAR char1472
ENCODING 1472
SWIDTH 192 0
DWIDTH 2 0
BBX 1 6 0 0
BITMAP
80
80
80
80
80
80
ENDCHAR
STARTCHAR char1473
ENCODING 1473
SWIDTH 288 0
DWIDTH 3 0
BBX 1 1 4 6
BITMAP
80
ENDCHAR
STARTCHAR char1474
ENCODING 1474
SWIDTH 288 0
DWIDTH 3 0
BBX 1 1 -1 6
BITMAP
80
ENDCHAR
STARTCHAR char1475
ENCODING 1475
SWIDTH 288 0
DWIDTH 3 0
BBX 1 5 1 0
BITMAP
80
00
00
00
80
ENDCHAR
STARTCHAR char1488
ENCODING 1488
SWIDTH 576 0
DWIDTH 6 0
BBX 5 5 0 0
BITMAP
88
48
70
90
88
ENDCHAR
STARTCHAR char1489
ENCODING 1489
SWIDTH 480 0
DWIDTH 5 0
BBX 4 5 0 0
BITMAP
C0
20
20
20
F0
ENDCHAR
STARTCHAR char1490
ENCODING 1490
SWIDTH 384 0
DWIDTH 4 0
BBX 3 5 0 0
BITMAP
60
00
20
40
40
ENDCHAR
STARTCHAR char1491
ENCODING 1491
SWIDTH 480 0
DWIDTH 5 0
BBX 4 5 0 0
BITMAP
F0
20
20
20
20
ENDCHAR
STARTCHAR char1492
ENCODING 1492
SWIDTH 576 0
DWIDTH 6 0
BBX 5 5 0 0
BITMAP
F0
08
88
88
88
ENDCHAR
STARTCHAR char1493
ENCODING 1493
SWIDTH 192 0
DWIDTH 2 0
BBX 1 5 0 0
BITMAP
80
80
80
80
80
ENDCHAR
STARTCHAR char1494
ENCODING 1494
SWIDTH 384 0
DWIDTH 4 0
BBX 3 5 0 0
BITMAP
E0
40
40
40
40
ENDCHAR
STARTCHAR char1495
ENCODING 1495
SWIDTH 576 0
DWIDTH 6 0
BBX 5 5 0 0
BITMAP
F0
88
88
88
88
ENDCHAR
STARTCHAR char1496
ENCODING 1496
SWIDTH 576 0
DWIDTH 6 0
BBX 5 5 0 0
BITMAP
B0
88
88
88
70
ENDCHAR
STARTCHAR char1497
ENCODING 1497
SWIDTH 192 0
DWIDTH 2 0
BBX 1 3 0 2
BITMAP
80
80
80
ENDCHAR
STARTCHAR char1498
ENCODING 1498
SWIDTH 480 0
DWIDTH 5 0
BBX 4 7 0 -2
BITMAP
E0
10
10
10
10
10
10
ENDCHAR
STARTCHAR char1499
ENCODING 1499
SWIDTH 480 0
DWIDTH 5 0
BBX 4 5 0 0
BITMAP
E0
10
10
10
E0
ENDCHAR
STARTCHAR char1500
ENCODING 1500
SWIDTH 480 0
DWIDTH 5 0
BBX 4 7 0 0
BITMAP
80
80
F0
10
10
20
20
ENDCHAR
STARTCHAR char1501
ENCODING 1501
SWIDTH 576 0
DWIDTH 6 0
BBX 5 5 0 0
BITMAP
F0
88
88
88
F8
ENDCHAR
STARTCHAR char1502
ENCODING 1502
SWIDTH 576 0
DWIDTH 6 0
BBX 5 5 0 0
BITMAP
58
60
40
40
58
ENDCHAR
STARTCHAR char1503
ENCODING 1503
SWIDTH 192 0
DWIDTH 2 0
BBX 1 7 0 -2
BITMAP
80
80
80
80
80
80
80
ENDCHAR
STARTCHAR char1504
ENCODING 1504
SWIDTH 384 0
DWIDTH 4 0
BBX 3 5 0 0
BITMAP
C0
20
20
20
E0
ENDCHAR
STARTCHAR char1505
ENCODING 1505
SWIDTH 576 0
DWIDTH 6 0
BBX 5 5 0 0
BITMAP
70
88
88
88
70
ENDCHAR
STARTCHAR char1506
ENCODING 1506
SWIDTH 480 0
DWIDTH 5 0
BBX 4 6 0 -1
BITMAP
90
50
50
50
20
C0
ENDCHAR
STARTCHAR char1507
ENCODING 1507
SWIDTH 576 0
DWIDTH 6 0
BBX 5 7 0 -2
BITMAP
F0
88
C8
08
08
08
08
ENDCHAR
STARTCHAR char1508
ENCODING 1508
SWIDTH 480 0
DWIDTH 5 0
BBX 4 5 0 0
BITMAP
E0
90
D0
10
E0
ENDCHAR
STARTCHAR char1509
ENCODING 1509
SWIDTH 480 0
DWIDTH 5 0
BBX 4 7 0 -2
BITMAP
40
20
20
10
10
10
10
ENDCHAR
STARTCHAR char1510
ENCODING 1510
SWIDTH 480 0
DWIDTH 5 0
BBX 4 5 0 0
BITMAP
40
20
10
10
70
ENDCHAR
STARTCHAR char1511
ENCODING 1511
SWIDTH 480 0
DWIDTH 5 0
BBX 4 7 0 -2
BITMAP
F0
10
90
A0
A0
80
80
ENDCHAR
STARTCHAR char1512
ENCODING 1512
SWIDTH 480 0
DWIDTH 5 0
BBX 4 5 0 0
BITMAP
E0
10
10
10
10
ENDCHAR
STARTCHAR char1513
ENCODING 1513
SWIDTH 672 0
DWIDTH 7 0
BBX 6 5 0 0
BITMAP
94
94
E4
84
78
ENDCHAR
STARTCHAR char1514
ENCODING 1514
SWIDTH 576 0
DWIDTH 6 0
BBX 5 5 0 0
BITMAP
F0
48
48
48
C8
ENDCHAR
STARTCHAR char1520
ENCODING 1520
SWIDTH 480 0
DWIDTH 5 0
BBX 4 5 0 0
BITMAP
90
90
90
90
90
ENDCHAR
STARTCHAR char1521
ENCODING 1521
SWIDTH 480 0
DWIDTH 5 0
BBX 4 5 0 0
BITMAP
90
90
10
10
10
ENDCHAR
STARTCHAR char1522
ENCODING 1522
SWIDTH 480 0
DWIDTH 5 0
BBX 4 2 0 3
BITMAP
90
90
ENDCHAR
STARTCHAR char1523
ENCODING 1523
SWIDTH 192 0
DWIDTH 2 0
BBX 2 2 0 3
BITMAP
40
80
ENDCHAR
STARTCHAR char1524
ENCODING 1524
SWIDTH 384 0
DWIDTH 4 0
BBX 4 2 0 3
BITMAP
50
A0
ENDCHAR
STARTCHAR char1548
ENCODING 1548
SWIDTH 288 0
DWIDTH 3 0
BBX 2 3 1 1
BITMAP
40
80
C0
ENDCHAR
STARTCHAR char1563
ENCODING 1563
SWIDTH 288 0
DWIDTH 3 0
BBX 2 5 1 1
BITMAP
40
80
C0
00
80
ENDCHAR
STARTCHAR char1567
ENCODING 1567
SWIDTH 384 0
DWIDTH 4 0
BBX 3 6 0 1
BITMAP
E0
80
80
40
00
40
ENDCHAR
STARTCHAR char1569
ENCODING 1569
SWIDTH 384 0
DWIDTH 4 0
BBX 1 3 2 0
BITMAP
80
80
80
ENDCHAR
STARTCHAR char1570
ENCODING 1570
SWIDTH 192 0
DWIDTH 2 0
BBX 2 8 0 1
BITMAP
C0
00
40
40
40
40
40
40
ENDCHAR
STARTCHAR char1571
ENCODING 1571
SWIDTH 192 0
DWIDTH 2 0
BBX 2 8 0 1
BITMAP
C0
00
00
40
40
40
40
40
ENDCHAR
STARTCHAR char1572
ENCODING 1572
SWIDTH 384 0
DWIDTH 4 0
BBX 4 8 0 -1
BITMAP
C0
00
00
30
50
70
10
60
ENDCHAR
STARTCHAR char1573
ENCODING 1573
SWIDTH 192 0
DWIDTH 2 0
BBX 2 8 0 -2
BITMAP
40
40
40
40
40
40
00
C0
ENDCHAR
STARTCHAR char1574
ENCODING 1574
SWIDTH 576 0
DWIDTH 6 0
BBX 5 7 0 -1
BITMAP
C0
18
10
A0
B8
88
F0
ENDCHAR
STARTCHAR char1575
ENCODING 1575
SWIDTH 192 0
DWIDTH 2 0
BBX 0 0 0 0
BITMAP
ENDCHAR
STARTCHAR char1576
ENCODING 1576
SWIDTH 672 0
DWIDTH 7 0
BBX 6 6 1 -1
BITMAP
88
84
84
7C
00
20
ENDCHAR
STARTCHAR char1577
ENCODING 1577
SWIDTH 288 0
DWIDTH 3 0
BBX 3 5 0 1
BITMAP
C0
00
40
A0
E0
ENDCHAR
STARTCHAR char1578
ENCODING 1578
SWIDTH 672 0
DWIDTH 7 0
BBX 6 6 1 1
BITMAP
30
00
88
84
84
7C
ENDCHAR
STARTCHAR char1579
ENCODING 1579
SWIDTH 672 0
DWIDTH 7 0
BBX 6 7 1 1
BITMAP
20
30
00
88
84
84
7C
ENDCHAR
STARTCHAR char1580
ENCODING 1580
SWIDTH 576 0
DWIDTH 6 0
BBX 5 6 0 -2
BITMAP
F8
20
40
90
80
78
ENDCHAR
STARTCHAR char1581
ENCODING 1581
SWIDTH 576 0
DWIDTH 6 0
BBX 5 6 0 -2
BITMAP
F8
20
40
80
80
78
ENDCHAR
STARTCHAR char1582
ENCODING 1582
SWIDTH 576 0
DWIDTH 6 0
BBX 5 8 0 -2
BITMAP
20
00
F8
20
40
80
80
78
ENDCHAR
STARTCHAR char1583
ENCODING 1583
SWIDTH 288 0
DWIDTH 3 0
BBX 1 1 2 1
BITMAP
80
ENDCHAR
STARTCHAR char1584
ENCODING 1584
SWIDTH 288 0
DWIDTH 3 0
BBX 2 6 1 1
BITMAP
40
00
00
00
00
40
ENDCHAR
STARTCHAR char1585
ENCODING 1585
SWIDTH 480 0
DWIDTH 5 0
BBX 3 5 2 -1
BITMAP
20
00
00
20
40
ENDCHAR
STARTCHAR char1586
ENCODING 1586
SWIDTH 480 0
DWIDTH 5 0
BBX 3 7 2 -1
BITMAP
40
00
20
00
00
20
40
ENDCHAR
STARTCHAR char1587
ENCODING 1587
SWIDTH 768 0
DWIDTH 8 0
BBX 7 5 1 -1
BITMAP
2A
AA
BE
A0
C0
ENDCHAR
STARTCHAR char1588
ENCODING 1588
SWIDTH 768 0
DWIDTH 8 0
BBX 7 8 1 -1
BITMAP
08
0C
00
2A
AA
BE
A0
C0
ENDCHAR
STARTCHAR char1589
ENCODING 1589
SWIDTH 1056 0
DWIDTH 11 0
BBX 10 5 1 -1
BITMAP
10C0
8B40
8FC0
8800
F000
ENDCHAR
STARTCHAR char1590
ENCODING 1590
SWIDTH 1056 0
DWIDTH 11 0
BBX 10 7 1 -1
BITMAP
0200
0000
10C0
8B40
8FC0
8800
F000
ENDCHAR
STARTCHAR char1591
ENCODING 1591
SWIDTH 576 0
DWIDTH 6 0
BBX 6 7 0 1
BITMAP
40
40
40
20
3C
24
FC
ENDCHAR
STARTCHAR char1592
ENCODING 1592
SWIDTH 576 0
DWIDTH 6 0
BBX 6 7 0 1
BITMAP
40
40
48
20
3C
24
FC
ENDCHAR
STARTCHAR char1593
ENCODING 1593
SWIDTH 480 0
DWIDTH 5 0
BBX 4 8 0 -2
BITMAP
60
80
90
60
80
80
C0
70
ENDCHAR
STARTCHAR char1594
ENCODING 1594
SWIDTH 480 0
DWIDTH 5 0
BBX 4 10 0 -2
BITMAP
40
00
60
80
90
60
80
80
C0
70
ENDCHAR
STARTCHAR char1600
ENCODING 1600
SWIDTH 192 0
DWIDTH 2 0
BBX 2 1 0 1
BITMAP
C0
ENDCHAR
STARTCHAR char1601
ENCODING 1601
SWIDTH 768 0
DWIDTH 8 0
BBX 7 6 1 1
BITMAP
08
00
86
8A
8E
7E
ENDCHAR
STARTCHAR char1602
ENCODING 1602
SWIDTH 576 0
DWIDTH 6 0
BBX 5 8 1 -1
BITMAP
30
00
10
28
B8
88
88
F0
ENDCHAR
STARTCHAR char1603
ENCODING 1603
SWIDTH 576 0
DWIDTH 6 0
BBX 6 7 0 1
BITMAP
08
08
28
28
A4
84
FC
ENDCHAR
STARTCHAR char1604
ENCODING 1604
SWIDTH 480 0
DWIDTH 5 0
BBX 4 8 1 0
BITMAP
10
10
10
10
90
90
90
F0
ENDCHAR
STARTCHAR char1605
ENCODING 1605
SWIDTH 288 0
DWIDTH 3 0
BBX 3 6 0 -2
BITMAP
40
20
60
80
80
80
ENDCHAR
STARTCHAR char1606
ENCODING 1606
SWIDTH 480 0
DWIDTH 5 0
BBX 4 6 1 -1
BITMAP
80
20
90
90
90
E0
ENDCHAR
STARTCHAR char1607
ENCODING 1607
SWIDTH 288 0
DWIDTH 3 0
BBX 3 3 0 1
BITMAP
40
A0
E0
ENDCHAR
STARTCHAR char1608
ENCODING 1608
SWIDTH 384 0
DWIDTH 4 0
BBX 3 5 1 -1
BITMAP
20
40
60
00
60
ENDCHAR
STARTCHAR char1609
ENCODING 1609
SWIDTH 576 0
DWIDTH 6 0
BBX 5 6 0 -1
BITMAP
18
10
A0
B8
88
F0
ENDCHAR
STARTCHAR char1610
ENCODING 1610
SWIDTH 576 0
DWIDTH 6 0
BBX 5 7 0 -2
BITMAP
18
10
A0
B8
88
F0
60
ENDCHAR
STARTCHAR char1611
ENCODING 1611
SWIDTH 192 0
DWIDTH 2 0
BBX 2 4 0 6
BITMAP
40
80
40
80
ENDCHAR
STARTCHAR char1612
ENCODING 1612
SWIDTH 192 0
DWIDTH 2 0
BBX 4 4 -1 6
BITMAP
10
D0
60
40
ENDCHAR
STARTCHAR char1613
ENCODING 1613
SWIDTH 192 0
DWIDTH 2 0
BBX 2 4 0 -3
BITMAP
40
80
40
80
ENDCHAR
STARTCHAR char1614
ENCODING 1614
SWIDTH 192 0
DWIDTH 2 0
BBX 2 2 0 6
BITMAP
40
80
ENDCHAR
STARTCHAR char1615
ENCODING 1615
SWIDTH 192 0
DWIDTH 2 0
BBX 2 3 0 6
BITMAP
40
40
40
ENDCHAR
STARTCHAR char1616
ENCODING 1616
SWIDTH 192 0
DWIDTH 2 0
BBX 2 2 0 0
BITMAP
40
80
ENDCHAR
STARTCHAR char1617
ENCODING 1617
SWIDTH 192 0
DWIDTH 2 0
BBX 5 3 -1 6
BITMAP
10
58
60
ENDCHAR
STARTCHAR char1618
ENCODING 1618
SWIDTH 192 0
DWIDTH 2 0
BBX 3 3 0 6
BITMAP
60
A0
E0
ENDCHAR
STARTCHAR char1632
ENCODING 1632
SWIDTH 480 0
DWIDTH 5 0
BBX 2 2 2 2
BITMAP
80
C0
ENDCHAR
STARTCHAR char1633
ENCODING 1633
SWIDTH 480 0
DWIDTH 5 0
BBX 2 6 2 1
BITMAP
80
80
80
40
40
40
ENDCHAR
STARTCHAR char1634
ENCODING 1634
SWIDTH 480 0
DWIDTH 5 0
BBX 4 6 1 1
BITMAP
90
F0
40
40
20
20
ENDCHAR
STARTCHAR char1635
ENCODING 1635
SWIDTH 480 0
DWIDTH 5 0
BBX 5 6 0 1
BITMAP
A8
F8
80
40
40
40
ENDCHAR
STARTCHAR char1636
ENCODING 1636
SWIDTH 480 0
DWIDTH 5 0
BBX 2 6 1 1
BITMAP
40
80
80
40
80
C0
ENDCHAR
STARTCHAR char1637
ENCODING 1637
SWIDTH 480 0
DWIDTH 5 0
BBX 5 4 0 2
BITMAP
70
88
88
F0
ENDCHAR
STARTCHAR char1638
ENCODING 1638
SWIDTH 480 0
DWIDTH 5 0
BBX 3 5 1 2
BITMAP
80
E0
20
20
20
ENDCHAR
STARTCHAR char1639
ENCODING 1639
SWIDTH 480 0
DWIDTH 5 0
BBX 4 6 0 1
BITMAP
80
50
50
50
20
20
ENDCHAR
STARTCHAR char1640
ENCODING 1640
SWIDTH 480 0
DWIDTH 5 0
BBX 5 6 0 1
BITMAP
20
20
50
50
90
88
ENDCHAR
STARTCHAR char1641
ENCODING 1641
SWIDTH 480 0
DWIDTH 5 0
BBX 4 6 0 1
BITMAP
60
A0
E0
20
20
10
ENDCHAR
STARTCHAR char1642
ENCODING 1642
SWIDTH 480 0
DWIDTH 5 0
BBX 3 7 1 1
BITMAP
A0
20
40
40
40
80
A0
ENDCHAR
STARTCHAR char1643
ENCODING 1643
SWIDTH 288 0
DWIDTH 3 0
BBX 0 0 0 0
BITMAP
ENDCHAR
STARTCHAR char1645
ENCODING 1645
SWIDTH 480 0
DWIDTH 5 0
BBX 3 3 1 4
BITMAP
E0
A0
E0
ENDCHAR
STARTCHAR char1649
ENCODING 1649
SWIDTH 768 0
DWIDTH 8 0
BBX 5 6 1 0
BITMAP
F8
08
08
08
08
08
ENDCHAR
STARTCHAR char1662
ENCODING 1662
SWIDTH 672 0
DWIDTH 7 0
BBX 6 7 1 -2
BITMAP
88
84
84
7C
00
30
10
ENDCHAR
STARTCHAR char1670
ENCODING 1670
SWIDTH 576 0
DWIDTH 6 0
BBX 5 6 0 -2
BITMAP
F8
20
58
88
80
78
ENDCHAR
STARTCHAR char1688
ENCODING 1688
SWIDTH 480 0
DWIDTH 5 0
BBX 3 8 2 -1
BITMAP
40
60
00
20
00
00
20
40
ENDCHAR
STARTCHAR char1700
ENCODING 1700
SWIDTH 768 0
DWIDTH 8 0
BBX 5 6 1 0
BITMAP
F8
08
08
08
08
08
ENDCHAR
STARTCHAR char1705
ENCODING 1705
SWIDTH 768 0
DWIDTH 8 0
BBX 8 6 0 1
BITMAP
01
02
04
82
81
FF
ENDCHAR
STARTCHAR char1711
ENCODING 1711
SWIDTH 768 0
DWIDTH 8 0
BBX 8 8 0 1
BITMAP
01
02
05
02
04
82
81
FF
ENDCHAR
STARTCHAR char1740
ENCODING 1740
SWIDTH 576 0
DWIDTH 6 0
BBX 5 6 0 -1
BITMAP
18
10
A0
B8
88
F0
ENDCHAR
STARTCHAR char1749
ENCODING 1749
SWIDTH 288 0
DWIDTH 3 0
BBX 3 3 0 1
BITMAP
40
A0
E0
ENDCHAR
STARTCHAR char1776
ENCODING 1776
SWIDTH 480 0
DWIDTH 5 0
BBX 2 2 2 2
BITMAP
80
C0
ENDCHAR
STARTCHAR char1777
ENCODING 1777
SWIDTH 480 0
DWIDTH 5 0
BBX 2 6 2 1
BITMAP
80
80
80
40
40
40
ENDCHAR
STARTCHAR char1778
ENCODING 1778
SWIDTH 480 0
DWIDTH 5 0
BBX 4 6 1 1
BITMAP
90
F0
40
40
20
20
ENDCHAR
STARTCHAR char1779
ENCODING 1779
SWIDTH 480 0
DWIDTH 5 0
BBX 5 6 0 1
BITMAP
A8
F8
80
40
40
40
ENDCHAR
STARTCHAR char1780
ENCODING 1780
SWIDTH 480 0
DWIDTH 5 0
BBX 4 6 1 1
BITMAP
B0
A0
70
40
40
40
ENDCHAR
STARTCHAR char1781
ENCODING 1781
SWIDTH 480 0
DWIDTH 5 0
BBX 3 6 1 1
BITMAP
40
40
A0
A0
A0
E0
ENDCHAR
STARTCHAR char1782
ENCODING 1782
SWIDTH 480 0
DWIDTH 5 0
BBX 4 6 1 1
BITMAP
60
80
F0
20
40
40
ENDCHAR
STARTCHAR char1783
ENCODING 1783
SWIDTH 480 0
DWIDTH 5 0
BBX 4 6 0 1
BITMAP
80
50
50
50
20
20
ENDCHAR
STARTCHAR char1784
ENCODING 1784
SWIDTH 480 0
DWIDTH 5 0
BBX 5 6 0 1
BITMAP
20
20
50
50
90
88
ENDCHAR
STARTCHAR char1785
ENCODING 1785
SWIDTH 480 0
DWIDTH 5 0
BBX 4 6 0 1
BITMAP
60
A0
E0
20
20
10
ENDCHAR
STARTCHAR char7808
ENCODING 7808
SWIDTH 864 0
DWIDTH 9 0
BBX 9 10 0 0
BITMAP
1000
0800
0000
8880
9480
5500
5500
5500
5500
2200
ENDCHAR
STARTCHAR char7809
ENCODING 7809
SWIDTH 672 0
DWIDTH 7 0
BBX 7 8 0 0
BITMAP
20
10
00
92
AA
AA
AA
44
ENDCHAR
STARTCHAR char7810
ENCODING 7810
SWIDTH 864 0
DWIDTH 9 0
BBX 9 10 0 0
BITMAP
0400
0800
0000
8880
9480
5500
5500
5500
5500
2200
ENDCHAR
STARTCHAR char7811
ENCODING 7811
SWIDTH 672 0
DWIDTH 7 0
BBX 7 8 0 0
BITMAP
08
10
00
92
AA
AA
AA
44
ENDCHAR
STARTCHAR char7812
ENCODING 7812
SWIDTH 864 0
DWIDTH 9 0
BBX 9 9 0 0
BITMAP
1400
0000
8880
9480
5500
5500
5500
5500
2200
ENDCHAR
STARTCHAR char7813
ENCODING 7813
SWIDTH 672 0
DWIDTH 7 0
BBX 7 7 0 0
BITMAP
28
00
92
AA
AA
AA
44
ENDCHAR
STARTCHAR char7840
ENCODING 7840
SWIDTH 672 0
DWIDTH 7 0
BBX 7 9 0 -2
BITMAP
10
28
28
44
7C
44
82
00
10
ENDCHAR
STARTCHAR char7841
ENCODING 7841
SWIDTH 576 0
DWIDTH 6 0
BBX 4 7 1 -2
BITMAP
70
10
70
90
F0
00
20
ENDCHAR
STARTCHAR char7842
ENCODING 7842
SWIDTH 672 0
DWIDTH 7 0
BBX 7 10 0 0
BITMAP
38
10
00
10
28
28
44
7C
44
82
ENDCHAR
STARTCHAR char7843
ENCODING 7843
SWIDTH 576 0
DWIDTH 6 0
BBX 4 8 1 0
BITMAP
70
20
00
70
10
70
90
F0
ENDCHAR
STARTCHAR char7844
ENCODING 7844
SWIDTH 672 0
DWIDTH 7 0
BBX 7 10 0 0
BITMAP
06
1C
28
10
28
28
44
7C
44
82
ENDCHAR
STARTCHAR char7845
ENCODING 7845
SWIDTH 576 0
DWIDTH 6 0
BBX 4 10 1 0
BITMAP
10
20
20
50
00
70
10
70
90
F0
ENDCHAR
STARTCHAR char7846
ENCODING 7846
SWIDTH 672 0
DWIDTH 7 0
BBX 7 10 0 0
BITMAP
E0
70
28
10
28
28
44
7C
44
82
ENDCHAR
STARTCHAR char7847
ENCODING 7847
SWIDTH 576 0
DWIDTH 6 0
BBX 4 10 1 0
BITMAP
40
20
20
50
00
70
10
70
90
F0
ENDCHAR
STARTCHAR char7848
ENCODING 7848
SWIDTH 672 0
DWIDTH 7 0
BBX 7 10 0 0
BITMAP
3E
3C
28
10
28
28
44
7C
44
82
ENDCHAR
STARTCHAR char7849
ENCODING 7849
SWIDTH 576 0
DWIDTH 6 0
BBX 4 10 1 0
BITMAP
70
20
20
50
00
70
10
70
90
F0
ENDCHAR
STARTCHAR char7850
ENCODING 7850
SWIDTH 672 0
DWIDTH 7 0
BBX 7 10 0 0
BITMAP
4C
F8
28
10
28
28
44
7C
44
82
ENDCHAR
STARTCHAR char7851
ENCODING 7851
SWIDTH 576 0
DWIDTH 6 0
BBX 5 10 1 0
BITMAP
28
50
20
50
00
70
10
70
90
F0
ENDCHAR
STARTCHAR char7852
ENCODING 7852
SWIDTH 672 0
DWIDTH 7 0
BBX 7 13 0 -3
BITMAP
10
28
00
10
28
28
44
7C
44
82
00
18
18
ENDCHAR
STARTCHAR char7853
ENCODING 7853
SWIDTH 576 0
DWIDTH 6 0
BBX 4 10 1 -2
BITMAP
20
50
00
70
10
70
90
F0
00
20
ENDCHAR
STARTCHAR char7854
ENCODING 7854
SWIDTH 672 0
DWIDTH 7 0
BBX 7 10 0 0
BITMAP
1C
3C
18
10
28
28
44
7C
44
82
ENDCHAR
STARTCHAR char7855
ENCODING 7855
SWIDTH 576 0
DWIDTH 6 0
BBX 4 10 1 0
BITMAP
10
20
50
70
00
70
10
70
90
F0
ENDCHAR
STARTCHAR char7856
ENCODING 7856
SWIDTH 672 0
DWIDTH 7 0
BBX 7 10 0 0
BITMAP
70
3C
18
10
28
28
44
7C
44
82
ENDCHAR
STARTCHAR char7857
ENCODING 7857
SWIDTH 576 0
DWIDTH 6 0
BBX 4 10 1 0
BITMAP
40
20
50
70
00
70
10
70
90
F0
ENDCHAR
STARTCHAR char7858
ENCODING 7858
SWIDTH 672 0
DWIDTH 7 0
BBX 7 10 0 0
BITMAP
3E
3C
18
10
28
28
44
7C
44
82
ENDCHAR
STARTCHAR char7859
ENCODING 7859
SWIDTH 576 0
DWIDTH 6 0
BBX 4 10 1 0
BITMAP
70
20
50
70
00
70
10
70
90
F0
ENDCHAR
STARTCHAR char7860
ENCODING 7860
SWIDTH 672 0
DWIDTH 7 0
BBX 7 10 0 0
BITMAP
26
7C
18
10
28
28
44
7C
44
82
ENDCHAR
STARTCHAR char7861
ENCODING 7861
SWIDTH 576 0
DWIDTH 6 0
BBX 4 10 1 0
BITMAP
50
A0
50
70
00
70
10
70
90
F0
ENDCHAR
STARTCHAR char7862
ENCODING 7862
SWIDTH 672 0
DWIDTH 7 0
BBX 7 13 0 -3
BITMAP
24
18
00
10
28
28
44
7C
44
82
00
18
18
ENDCHAR
STARTCHAR char7863
ENCODING 7863
SWIDTH 576 0
DWIDTH 6 0
BBX 4 10 1 -2
BITMAP
50
70
00
70
10
70
90
F0
00
20
ENDCHAR
STARTCHAR char7864
ENCODING 7864
SWIDTH 672 0
DWIDTH 7 0
BBX 5 9 1 -2
BITMAP
F8
80
80
F8
80
80
F8
00
20
ENDCHAR
STARTCHAR char7865
ENCODING 7865
SWIDTH 576 0
DWIDTH 6 0
BBX 4 7 1 -2
BITMAP
60
90
F0
80
70
00
20
ENDCHAR
STARTCHAR char7866
ENCODING 7866
SWIDTH 672 0
DWIDTH 7 0
BBX 5 10 1 0
BITMAP
70
20
00
F8
80
80
F8
80
80
F8
ENDCHAR
STARTCHAR char7867
ENCODING 7867
SWIDTH 576 0
DWIDTH 6 0
BBX 4 8 1 0
BITMAP
70
20
00
60
90
F0
80
70
ENDCHAR
STARTCHAR char7868
ENCODING 7868
SWIDTH 672 0
DWIDTH 7 0
BBX 5 10 1 0
BITMAP
28
50
00
F8
80
80
F8
80
80
F8
ENDCHAR
STARTCHAR char7869
ENCODING 7869
SWIDTH 576 0
DWIDTH 6 0
BBX 4 8 1 0
BITMAP
50
A0
00
60
90
F0
80
70
ENDCHAR
STARTCHAR char7870
ENCODING 7870
SWIDTH 672 0
DWIDTH 7 0
BBX 6 10 1 0
BITMAP
0C
38
50
F8
80
80
F8
80
80
F8
ENDCHAR
STARTCHAR char7871
ENCODING 7871
SWIDTH 576 0
DWIDTH 6 0
BBX 4 10 1 0
BITMAP
10
20
20
50
00
60
90
F0
80
70
ENDCHAR
STARTCHAR char7872
ENCODING 7872
SWIDTH 672 0
DWIDTH 7 0
BBX 6 10 0 0
BITMAP
E0
70
28
7C
40
40
7C
40
40
7C
ENDCHAR
STARTCHAR char7873
ENCODING 7873
SWIDTH 576 0
DWIDTH 6 0
BBX 4 10 1 0
BITMAP
40
20
20
50
00
60
90
F0
80
70
ENDCHAR
STARTCHAR char7874
ENCODING 7874
SWIDTH 672 0
DWIDTH 7 0
BBX 6 10 1 0
BITMAP
7C
78
50
F8
80
80
F8
80
80
F8
ENDCHAR
STARTCHAR char7875
ENCODING 7875
SWIDTH 576 0
DWIDTH 6 0
BBX 4 10 1 0
BITMAP
70
20
20
50
00
60
90
F0
80
70
ENDCHAR
STARTCHAR char7876
ENCODING 7876
SWIDTH 672 0
DWIDTH 7 0
BBX 6 10 1 0
BITMAP
4C
F8
50
F8
80
80
F8
80
80
F8
ENDCHAR
STARTCHAR char7877
ENCODING 7877
SWIDTH 576 0
DWIDTH 6 0
BBX 5 10 1 0
BITMAP
28
50
20
50
00
60
90
F0
80
70
ENDCHAR
STARTCHAR char7878
ENCODING 7878
SWIDTH 672 0
DWIDTH 7 0
BBX 5 13 1 -3
BITMAP
20
50
00
F8
80
80
F8
80
80
F8
00
30
30
ENDCHAR
STARTCHAR char7879
ENCODING 7879
SWIDTH 576 0
DWIDTH 6 0
BBX 4 10 1 -2
BITMAP
20
50
00
60
90
F0
80
70
00
20
ENDCHAR
STARTCHAR char7880
ENCODING 7880
SWIDTH 288 0
DWIDTH 3 0
BBX 3 10 0 0
BITMAP
E0
40
00
40
40
40
40
40
40
40
ENDCHAR
STARTCHAR char7881
ENCODING 7881
SWIDTH 288 0
DWIDTH 3 0
BBX 3 8 0 0
BITMAP
E0
40
00
40
40
40
40
40
ENDCHAR
STARTCHAR char7882
ENCODING 7882
SWIDTH 288 0
DWIDTH 3 0
BBX 1 9 1 -2
BITMAP
80
80
80
80
80
80
80
00
80
ENDCHAR
STARTCHAR char7883
ENCODING 7883
SWIDTH 288 0
DWIDTH 3 0
BBX 1 9 1 -2
BITMAP
80
00
80
80
80
80
80
00
80
ENDCHAR
STARTCHAR char7884
ENCODING 7884
SWIDTH 768 0
DWIDTH 8 0
BBX 6 9 1 -2
BITMAP
78
84
84
84
84
84
78
00
10
ENDCHAR
STARTCHAR char7885
ENCODING 7885
SWIDTH 576 0
DWIDTH 6 0
BBX 4 7 1 -2
BITMAP
60
90
90
90
60
00
40
ENDCHAR
STARTCHAR char7886
ENCODING 7886
SWIDTH 768 0
DWIDTH 8 0
BBX 6 10 1 0
BITMAP
38
10
00
78
84
84
84
84
84
78
ENDCHAR
STARTCHAR char7887
ENCODING 7887
SWIDTH 576 0
DWIDTH 6 0
BBX 4 8 1 0
BITMAP
70
20
00
60
90
90
90
60
ENDCHAR
STARTCHAR char7888
ENCODING 7888
SWIDTH 768 0
DWIDTH 8 0
BBX 7 10 1 0
BITMAP
06
1C
28
78
84
84
84
84
84
78
ENDCHAR
STARTCHAR char7889
ENCODING 7889
SWIDTH 576 0
DWIDTH 6 0
BBX 4 10 1 0
BITMAP
10
20
20
50
00
60
90
90
90
60
ENDCHAR
STARTCHAR char7890
ENCODING 7890
SWIDTH 768 0
DWIDTH 8 0
BBX 6 10 1 0
BITMAP
E0
70
28
78
84
84
84
84
84
78
ENDCHAR
STARTCHAR char7891
ENCODING 7891
SWIDTH 576 0
DWIDTH 6 0
BBX 4 10 1 0
BITMAP
40
20
20
50
00
60
90
90
90
60
ENDCHAR
STARTCHAR char7892
ENCODING 7892
SWIDTH 768 0
DWIDTH 8 0
BBX 7 10 1 0
BITMAP
3E
3C
28
78
84
84
84
84
84
78
ENDCHAR
STARTCHAR char7893
ENCODING 7893
SWIDTH 576 0
DWIDTH 6 0
BBX 4 10 1 0
BITMAP
70
20
20
50
00
60
90
90
90
60
ENDCHAR
STARTCHAR char7894
ENCODING 7894
SWIDTH 768 0
DWIDTH 8 0
BBX 7 10 1 0
BITMAP
26
7C
28
78
84
84
84
84
84
78
ENDCHAR
STARTCHAR char7895
ENCODING 7895
SWIDTH 576 0
DWIDTH 6 0
BBX 5 10 1 0
BITMAP
28
50
20
50
00
60
90
90
90
60
ENDCHAR
STARTCHAR char7896
ENCODING 7896
SWIDTH 768 0
DWIDTH 8 0
BBX 6 13 1 -3
BITMAP
10
28
00
78
84
84
84
84
84
78
00
30
30
ENDCHAR
STARTCHAR char7897
ENCODING 7897
SWIDTH 576 0
DWIDTH 6 0
BBX 4 10 1 -2
BITMAP
20
50
00
60
90
90
90
60
00
40
ENDCHAR
STARTCHAR char7898
ENCODING 7898
SWIDTH 864 0
DWIDTH 9 0
BBX 7 10 1 0
BITMAP
10
20
00
7A
86
84
84
84
84
78
ENDCHAR
STARTCHAR char7899
ENCODING 7899
SWIDTH 672 0
DWIDTH 7 0
BBX 5 8 1 0
BITMAP
20
40
00
68
98
90
90
60
ENDCHAR
STARTCHAR char7900
ENCODING 7900
SWIDTH 864 0
DWIDTH 9 0
BBX 7 10 1 0
BITMAP
20
10
00
7A
86
84
84
84
84
78
ENDCHAR
STARTCHAR char7901
ENCODING 7901
SWIDTH 672 0
DWIDTH 7 0
BBX 5 8 1 0
BITMAP
40
20
00
68
98
90
90
60
ENDCHAR
STARTCHAR char7902
ENCODING 7902
SWIDTH 864 0
DWIDTH 9 0
BBX 7 10 1 0
BITMAP
38
10
00
7A
86
84
84
84
84
78
ENDCHAR
STARTCHAR char7903
ENCODING 7903
SWIDTH 672 0
DWIDTH 7 0
BBX 5 8 1 0
BITMAP
70
20
00
68
98
90
90
60
ENDCHAR
STARTCHAR char7904
ENCODING 7904
SWIDTH 864 0
DWIDTH 9 0
BBX 7 10 1 0
BITMAP
28
50
00
7A
86
84
84
84
84
78
ENDCHAR
STARTCHAR char7905
ENCODING 7905
SWIDTH 672 0
DWIDTH 7 0
BBX 5 8 1 0
BITMAP
50
A0
00
68
98
90
90
60
ENDCHAR
STARTCHAR char7906
ENCODING 7906
SWIDTH 864 0
DWIDTH 9 0
BBX 7 9 1 -2
BITMAP
7A
86
84
84
84
84
78
00
10
ENDCHAR
STARTCHAR char7907
ENCODING 7907
SWIDTH 672 0
DWIDTH 7 0
BBX 5 7 1 -2
BITMAP
68
98
90
90
60
00
40
ENDCHAR
STARTCHAR char7908
ENCODING 7908
SWIDTH 672 0
DWIDTH 7 0
BBX 5 9 1 -2
BITMAP
88
88
88
88
88
88
70
00
20
ENDCHAR
STARTCHAR char7909
ENCODING 7909
SWIDTH 576 0
DWIDTH 6 0
BBX 4 7 1 -2
BITMAP
90
90
90
90
70
00
40
ENDCHAR
STARTCHAR char7910
ENCODING 7910
SWIDTH 672 0
DWIDTH 7 0
BBX 5 10 1 0
BITMAP
70
20
00
88
88
88
88
88
88
70
ENDCHAR
STARTCHAR char7911
ENCODING 7911
SWIDTH 576 0
DWIDTH 6 0
BBX 4 8 1 0
BITMAP
E0
40
00
90
90
90
90
70
ENDCHAR
STARTCHAR char7912
ENCODING 7912
SWIDTH 864 0
DWIDTH 9 0
BBX 7 10 1 0
BITMAP
10
20
00
8A
8A
8C
88
88
88
70
ENDCHAR
STARTCHAR char7913
ENCODING 7913
SWIDTH 672 0
DWIDTH 7 0
BBX 6 8 1 0
BITMAP
20
40
00
94
94
98
90
70
ENDCHAR
STARTCHAR char7914
ENCODING 7914
SWIDTH 864 0
DWIDTH 9 0
BBX 7 10 1 0
BITMAP
40
20
00
8A
8A
8C
88
88
88
70
ENDCHAR
STARTCHAR char7915
ENCODING 7915
SWIDTH 672 0
DWIDTH 7 0
BBX 6 8 1 0
BITMAP
40
20
00
94
94
98
90
70
ENDCHAR
STARTCHAR char7916
ENCODING 7916
SWIDTH 864 0
DWIDTH 9 0
BBX 7 10 1 0
BITMAP
70
20
00
8A
8A
8C
88
88
88
70
ENDCHAR
STARTCHAR char7917
ENCODING 7917
SWIDTH 672 0
DWIDTH 7 0
BBX 6 8 1 0
BITMAP
70
20
00
94
94
98
90
70
ENDCHAR
STARTCHAR char7918
ENCODING 7918
SWIDTH 864 0
DWIDTH 9 0
BBX 7 10 1 0
BITMAP
28
50
00
8A
8A
8C
88
88
88
70
ENDCHAR
STARTCHAR char7919
ENCODING 7919
SWIDTH 672 0
DWIDTH 7 0
BBX 6 8 1 0
BITMAP
50
A0
00
94
94
98
90
70
ENDCHAR
STARTCHAR char7920
ENCODING 7920
SWIDTH 864 0
DWIDTH 9 0
BBX 7 9 1 -2
BITMAP
8A
8A
8C
88
88
88
70
00
20
ENDCHAR
STARTCHAR char7921
ENCODING 7921
SWIDTH 672 0
DWIDTH 7 0
BBX 6 7 1 -2
BITMAP
94
94
98
90
70
00
40
ENDCHAR
STARTCHAR char7922
ENCODING 7922
SWIDTH 672 0
DWIDTH 7 0
BBX 7 10 0 0
BITMAP
10
08
00
82
44
28
10
10
10
10
ENDCHAR
STARTCHAR char7923
ENCODING 7923
SWIDTH 480 0
DWIDTH 5 0
BBX 5 10 0 -2
BITMAP
20
10
00
88
50
50
50
20
20
40
ENDCHAR
STARTCHAR char7924
ENCODING 7924
SWIDTH 672 0
DWIDTH 7 0
BBX 7 9 0 -2
BITMAP
82
44
28
10
10
10
10
00
10
ENDCHAR
STARTCHAR char7925
ENCODING 7925
SWIDTH 480 0
DWIDTH 5 0
BBX 5 7 0 -2
BITMAP
88
50
50
50
20
20
48
ENDCHAR
STARTCHAR char7926
ENCODING 7926
SWIDTH 672 0
DWIDTH 7 0
BBX 7 10 0 0
BITMAP
38
10
00
82
44
28
10
10
10
10
ENDCHAR
STARTCHAR char7927
ENCODING 7927
SWIDTH 480 0
DWIDTH 5 0
BBX 5 10 0 -2
BITMAP
70
20
00
88
50
50
50
20
20
40
ENDCHAR
STARTCHAR char7928
ENCODING 7928
SWIDTH 672 0
DWIDTH 7 0
BBX 7 10 0 0
BITMAP
14
28
00
82
44
28
10
10
10
10
ENDCHAR
STARTCHAR char7929
ENCODING 7929
SWIDTH 480 0
DWIDTH 5 0
BBX 5 10 0 -2
BITMAP
28
50
00
88
50
50
50
20
20
40
ENDCHAR
STARTCHAR char8204
ENCODING 8204
SWIDTH 0 0
DWIDTH 0 0
BBX 1 7 0 -1
BITMAP
80
80
80
80
80
80
80
ENDCHAR
STARTCHAR char8205
ENCODING 8205
SWIDTH 0 0
DWIDTH 0 0
BBX 3 9 -1 -1
BITMAP
A0
40
E0
40
40
40
40
40
40
ENDCHAR
STARTCHAR char8206
ENCODING 8206
SWIDTH 0 0
DWIDTH 0 0
BBX 4 8 0 -1
BITMAP
20
F0
A0
80
80
80
80
80
ENDCHAR
STARTCHAR char8207
ENCODING 8207
SWIDTH 96 0
DWIDTH 1 0
BBX 4 8 -2 -1
BITMAP
40
F0
50
10
10
10
10
10
ENDCHAR
STARTCHAR char8211
ENCODING 8211
SWIDTH 576 0
DWIDTH 6 0
BBX 6 1 0 2
BITMAP
FC
ENDCHAR
STARTCHAR char8212
ENCODING 8212
SWIDTH 960 0
DWIDTH 10 0
BBX 10 1 0 2
BITMAP
FFC0
ENDCHAR
STARTCHAR char8213
ENCODING 8213
SWIDTH 960 0
DWIDTH 10 0
BBX 10 1 0 2
BITMAP
FFC0
ENDCHAR
STARTCHAR char8215
ENCODING 8215
SWIDTH 576 0
DWIDTH 6 0
BBX 6 3 0 -3
BITMAP
FC
00
FC
ENDCHAR
STARTCHAR char8216
ENCODING 8216
SWIDTH 192 0
DWIDTH 2 0
BBX 1 2 0 5
BITMAP
80
80
ENDCHAR
STARTCHAR char8217
ENCODING 8217
SWIDTH 192 0
DWIDTH 2 0
BBX 1 2 0 5
BITMAP
80
80
ENDCHAR
STARTCHAR char8218
ENCODING 8218
SWIDTH 192 0
DWIDTH 2 0
BBX 1 2 0 -1
BITMAP
80
80
ENDCHAR
STARTCHAR char8219
ENCODING 8219
SWIDTH 192 0
DWIDTH 2 0
BBX 1 2 0 5
BITMAP
80
80
ENDCHAR
STARTCHAR char8220
ENCODING 8220
SWIDTH 288 0
DWIDTH 3 0
BBX 3 2 0 5
BITMAP
A0
A0
ENDCHAR
STARTCHAR char8221
ENCODING 8221
SWIDTH 288 0
DWIDTH 3 0
BBX 3 2 0 5
BITMAP
A0
A0
ENDCHAR
STARTCHAR char8222
ENCODING 8222
SWIDTH 288 0
DWIDTH 3 0
BBX 3 2 0 -1
BITMAP
A0
A0
ENDCHAR
STARTCHAR char8224
ENCODING 8224
SWIDTH 576 0
DWIDTH 6 0
BBX 5 9 0 -2
BITMAP
20
20
F8
20
20
20
20
20
20
ENDCHAR
STARTCHAR char8225
ENCODING 8225
SWIDTH 576 0
DWIDTH 6 0
BBX 5 9 0 -2
BITMAP
20
20
F8
20
20
20
F8
20
20
ENDCHAR
STARTCHAR char8226
ENCODING 8226
SWIDTH 384 0
DWIDTH 4 0
BBX 2 2 1 2
BITMAP
C0
C0
ENDCHAR
STARTCHAR char8230
ENCODING 8230
SWIDTH 960 0
DWIDTH 10 0
BBX 7 1 1 0
BITMAP
92
ENDCHAR
STARTCHAR char8234
ENCODING 8234
SWIDTH 0 0
DWIDTH 0 0
BBX 3 7 0 -1
BITMAP
E0
80
80
80
80
80
80
ENDCHAR
STARTCHAR char8235
ENCODING 8235
SWIDTH 0 0
DWIDTH 0 0
BBX 3 7 -2 -1
BITMAP
E0
20
20
20
20
20
20
ENDCHAR
STARTCHAR char8236
ENCODING 8236
SWIDTH 0 0
DWIDTH 0 0
BBX 3 8 -1 -1
BITMAP
E0
E0
40
40
40
40
40
40
ENDCHAR
STARTCHAR char8237
ENCODING 8237
SWIDTH 0 0
DWIDTH 0 0
BBX 3 8 -1 -1
BITMAP
E0
80
E0
40
40
40
40
40
ENDCHAR
STARTCHAR char8238
ENCODING 8238
SWIDTH 0 0
DWIDTH 0 0
BBX 3 8 -1 -1
BITMAP
E0
20
E0
40
40
40
40
40
ENDCHAR
STARTCHAR char8240
ENCODING 8240
SWIDTH 960 0
DWIDTH 10 0
BBX 10 7 0 0
BITMAP
4800
A800
B000
5480
1B40
2B40
2480
ENDCHAR
STARTCHAR char8242
ENCODING 8242
SWIDTH 192 0
DWIDTH 2 0
BBX 0 0 0 0
BITMAP
ENDCHAR
STARTCHAR char8243
ENCODING 8243
SWIDTH 384 0
DWIDTH 4 0
BBX 3 3 0 4
BITMAP
40
40
40
ENDCHAR
STARTCHAR char8249
ENCODING 8249
SWIDTH 288 0
DWIDTH 3 0
BBX 2 4 0 0
BITMAP
40
80
80
40
ENDCHAR
STARTCHAR char8250
ENCODING 8250
SWIDTH 288 0
DWIDTH 3 0
BBX 2 4 0 0
BITMAP
80
40
40
80
ENDCHAR
STARTCHAR char8252
ENCODING 8252
SWIDTH 480 0
DWIDTH 5 0
BBX 3 7 1 0
BITMAP
A0
A0
A0
A0
A0
00
A0
ENDCHAR
STARTCHAR char8254
ENCODING 8254
SWIDTH 288 0
DWIDTH 3 0
BBX 3 1 0 6
BITMAP
E0
ENDCHAR
STARTCHAR char8260
ENCODING 8260
SWIDTH 192 0
DWIDTH 2 0
BBX 5 7 -1 -1
BITMAP
08
08
10
20
40
40
80
ENDCHAR
STARTCHAR char8298
ENCODING 8298
SWIDTH 0 0
DWIDTH 0 0
BBX 3 9 -1 -1
BITMAP
E0
40
E0
40
40
40
40
40
40
ENDCHAR
STARTCHAR char8299
ENCODING 8299
SWIDTH 0 0
DWIDTH 0 0
BBX 3 8 -1 -1
BITMAP
E0
A0
E0
40
40
40
40
40
ENDCHAR
STARTCHAR char8300
ENCODING 8300
SWIDTH 0 0
DWIDTH 0 0
BBX 3 8 -1 -1
BITMAP
E0
40
40
40
40
40
40
40
ENDCHAR
STARTCHAR char8301
ENCODING 8301
SWIDTH 0 0
DWIDTH 0 0
BBX 3 8 -1 -1
BITMAP
40
E0
40
40
40
40
40
40
ENDCHAR
STARTCHAR char8302
ENCODING 8302
SWIDTH 0 0
DWIDTH 0 0
BBX 3 9 -1 -1
BITMAP
40
A0
40
40
40
40
40
40
40
ENDCHAR
STARTCHAR char8303
ENCODING 8303
SWIDTH 0 0
DWIDTH 0 0
BBX 3 9 -1 -1
BITMAP
C0
40
E0
40
40
40
40
40
40
ENDCHAR
STARTCHAR char8319
ENCODING 8319
SWIDTH 384 0
DWIDTH 4 0
BBX 3 4 0 2
BITMAP
E0
A0
A0
A0
ENDCHAR
STARTCHAR char8355
ENCODING 8355
SWIDTH 576 0
DWIDTH 6 0
BBX 6 7 0 0
BITMAP
7C
40
40
78
40
F0
40
ENDCHAR
STARTCHAR char8356
ENCODING 8356
SWIDTH 576 0
DWIDTH 6 0
BBX 6 7 0 0
BITMAP
38
44
F0
20
F0
40
FC
ENDCHAR
STARTCHAR char8359
ENCODING 8359
SWIDTH 960 0
DWIDTH 10 0
BBX 10 7 0 0
BITMAP
F400
8C00
8F80
F640
8580
8640
8580
ENDCHAR
STARTCHAR char8362
ENCODING 8362
SWIDTH 768 0
DWIDTH 8 0
BBX 7 5 0 0
BITMAP
FA
8A
AA
A2
BE
ENDCHAR
STARTCHAR char8363
ENCODING 8363
SWIDTH 480 0
DWIDTH 5 0
BBX 4 7 1 0
BITMAP
70
20
E0
A0
E0
00
F0
ENDCHAR
STARTCHAR char8364
ENCODING 8364
SWIDTH 576 0
DWIDTH 6 0
BBX 6 7 0 0
BITMAP
3C
40
FC
40
FC
40
3C
ENDCHAR
STARTCHAR char8453
ENCODING 8453
SWIDTH 864 0
DWIDTH 9 0
BBX 8 7 0 0
BITMAP
74
84
88
77
15
25
27
ENDCHAR
STARTCHAR char8467
ENCODING 8467
SWIDTH 288 0
DWIDTH 3 0
BBX 3 7 1 0
BITMAP
60
40
60
40
40
40
60
ENDCHAR
STARTCHAR char8470
ENCODING 8470
SWIDTH 1056 0
DWIDTH 11 0
BBX 10 7 1 0
BITMAP
8980
CA40
CA40
A980
9800
9BC0
8800
ENDCHAR
STARTCHAR char8482
ENCODING 8482
SWIDTH 960 0
DWIDTH 10 0
BBX 8 4 1 3
BITMAP
F1
5B
5B
55
ENDCHAR
STARTCHAR char8486
ENCODING 8486
SWIDTH 768 0
DWIDTH 8 0
BBX 6 7 1 0
BITMAP
30
48
84
84
84
48
FC
ENDCHAR
STARTCHAR char8494
ENCODING 8494
SWIDTH 576 0
DWIDTH 6 0
BBX 4 5 1 0
BITMAP
60
90
F0
80
70
ENDCHAR
STARTCHAR char8531
ENCODING 8531
SWIDTH 768 0
DWIDTH 8 0
BBX 7 7 1 0
BITMAP
44
C8
48
5E
24
22
4E
ENDCHAR
STARTCHAR char8532
ENCODING 8532
SWIDTH 768 0
DWIDTH 8 0
BBX 8 7 0 0
BITMAP
E2
24
48
EF
12
21
47
ENDCHAR
STARTCHAR char8539
ENCODING 8539
SWIDTH 768 0
DWIDTH 8 0
BBX 7 8 1 0
BITMAP
44
C8
48
50
2E
24
4A
8E
ENDCHAR
STARTCHAR char8540
ENCODING 8540
SWIDTH 768 0
DWIDTH 8 0
BBX 8 8 0 0
BITMAP
E2
44
24
E8
17
12
25
47
ENDCHAR
STARTCHAR char8541
ENCODING 8541
SWIDTH 768 0
DWIDTH 8 0
BBX 7 8 1 0
BITMAP
E4
C8
28
F0
2E
24
4A
8E
ENDCHAR
STARTCHAR char8542
ENCODING 8542
SWIDTH 768 0
DWIDTH 8 0
BBX 8 8 0 0
BITMAP
E2
24
48
48
17
12
25
47
ENDCHAR
STARTCHAR char8592
ENCODING 8592
SWIDTH 960 0
DWIDTH 10 0
BBX 10 1 0 0
BITMAP
FFC0
ENDCHAR
STARTCHAR char8593
ENCODING 8593
SWIDTH 480 0
DWIDTH 5 0
BBX 0 0 0 0
BITMAP
ENDCHAR
STARTCHAR char8594
ENCODING 8594
SWIDTH 960 0
DWIDTH 10 0
BBX 10 1 0 0
BITMAP
FFC0
ENDCHAR
STARTCHAR char8595
ENCODING 8595
SWIDTH 480 0
DWIDTH 5 0
BBX 3 9 1 -3
BITMAP
20
20
20
20
20
20
20
60
20
ENDCHAR
STARTCHAR char8596
ENCODING 8596
SWIDTH 960 0
DWIDTH 10 0
BBX 10 1 0 0
BITMAP
FFC0
ENDCHAR
STARTCHAR char8597
ENCODING 8597
SWIDTH 480 0
DWIDTH 5 0
BBX 3 9 1 -3
BITMAP
20
60
20
20
20
20
20
60
20
ENDCHAR
STARTCHAR char8616
ENCODING 8616
SWIDTH 480 0
DWIDTH 5 0
BBX 3 11 1 -4
BITMAP
20
60
20
20
20
20
20
60
20
00
20
ENDCHAR
STARTCHAR char8706
ENCODING 8706
SWIDTH 480 0
DWIDTH 5 0
BBX 5 7 0 0
BITMAP
30
48
08
78
88
90
E0
ENDCHAR
STARTCHAR char8710
ENCODING 8710
SWIDTH 576 0
DWIDTH 6 0
BBX 7 7 -1 0
BITMAP
10
10
28
28
44
44
FE
ENDCHAR
STARTCHAR char8719
ENCODING 8719
SWIDTH 768 0
DWIDTH 8 0
BBX 6 9 1 -2
BITMAP
FC
84
84
84
84
84
84
84
84
ENDCHAR
STARTCHAR char8721
ENCODING 8721
SWIDTH 672 0
DWIDTH 7 0
BBX 6 9 1 -2
BITMAP
FC
80
40
20
10
20
40
80
FC
ENDCHAR
STARTCHAR char8722
ENCODING 8722
SWIDTH 576 0
DWIDTH 6 0
BBX 5 1 0 3
BITMAP
F8
ENDCHAR
STARTCHAR char8725
ENCODING 8725
SWIDTH 192 0
DWIDTH 2 0
BBX 5 7 -1 -1
BITMAP
08
08
10
20
40
40
80
ENDCHAR
STARTCHAR char8729
ENCODING 8729
SWIDTH 288 0
DWIDTH 3 0
BBX 1 1 1 3
BITMAP
80
ENDCHAR
STARTCHAR char8730
ENCODING 8730
SWIDTH 480 0
DWIDTH 5 0
BBX 5 9 0 -1
BITMAP
08
08
08
08
D0
50
30
10
10
ENDCHAR
STARTCHAR char8734
ENCODING 8734
SWIDTH 672 0
DWIDTH 7 0
BBX 5 3 1 2
BITMAP
50
A8
50
ENDCHAR
STARTCHAR char8735
ENCODING 8735
SWIDTH 960 0
DWIDTH 10 0
BBX 1 4 1 0
BITMAP
80
80
80
80
ENDCHAR
STARTCHAR char8745
ENCODING 8745
SWIDTH 672 0
DWIDTH 7 0
BBX 5 7 1 0
BITMAP
70
88
88
88
88
88
88
ENDCHAR
STARTCHAR char8747
ENCODING 8747
SWIDTH 288 0
DWIDTH 3 0
BBX 3 10 0 -1
BITMAP
20
40
40
40
40
40
40
40
40
80
ENDCHAR
STARTCHAR char8776
ENCODING 8776
SWIDTH 480 0
DWIDTH 5 0
BBX 5 4 0 1
BITMAP
68
10
68
90
ENDCHAR
STARTCHAR char8800
ENCODING 8800
SWIDTH 480 0
DWIDTH 5 0
BBX 5 7 0 0
BITMAP
08
10
F8
20
F8
40
80
ENDCHAR
STARTCHAR char8801
ENCODING 8801
SWIDTH 576 0
DWIDTH 6 0
BBX 5 5 0 1
BITMAP
F8
00
F8
00
F8
ENDCHAR
STARTCHAR char8804
ENCODING 8804
SWIDTH 480 0
DWIDTH 5 0
BBX 5 6 0 1
BITMAP
08
70
80
70
08
F8
ENDCHAR
STARTCHAR char8805
ENCODING 8805
SWIDTH 480 0
DWIDTH 5 0
BBX 5 6 0 1
BITMAP
80
70
08
70
80
F8
ENDCHAR
STARTCHAR char8962
ENCODING 8962
SWIDTH 576 0
DWIDTH 6 0
BBX 5 5 0 0
BITMAP
30
48
88
88
88
ENDCHAR
STARTCHAR char8976
ENCODING 8976
SWIDTH 576 0
DWIDTH 6 0
BBX 5 3 0 2
BITMAP
F8
80
80
ENDCHAR
STARTCHAR char8992
ENCODING 8992
SWIDTH 576 0
DWIDTH 6 0
BBX 1 10 2 -3
BITMAP
80
80
80
80
80
80
80
80
80
80
ENDCHAR
STARTCHAR char8993
ENCODING 8993
SWIDTH 576 0
DWIDTH 6 0
BBX 0 0 0 0
BITMAP
ENDCHAR
STARTCHAR char9472
ENCODING 9472
SWIDTH 672 0
DWIDTH 7 0
BBX 5 1 1 2
BITMAP
38
ENDCHAR
STARTCHAR char9474
ENCODING 9474
SWIDTH 576 0
DWIDTH 6 0
BBX 1 12 2 -4
BITMAP
80
80
80
80
80
80
80
80
80
80
80
80
ENDCHAR
STARTCHAR char9484
ENCODING 9484
SWIDTH 672 0
DWIDTH 7 0
BBX 3 6 3 -4
BITMAP
E0
80
80
80
80
80
ENDCHAR
STARTCHAR char9488
ENCODING 9488
SWIDTH 672 0
DWIDTH 7 0
BBX 1 1 3 1
BITMAP
80
ENDCHAR
STARTCHAR char9492
ENCODING 9492
SWIDTH 672 0
DWIDTH 7 0
BBX 3 7 3 2
BITMAP
80
80
80
80
80
80
60
ENDCHAR
STARTCHAR char9496
ENCODING 9496
SWIDTH 672 0
DWIDTH 7 0
BBX 1 1 3 2
BITMAP
80
ENDCHAR
STARTCHAR char9500
ENCODING 9500
SWIDTH 672 0
DWIDTH 7 0
BBX 3 12 3 -4
BITMAP
80
80
80
80
80
80
E0
80
80
80
80
80
ENDCHAR
STARTCHAR char9508
ENCODING 9508
SWIDTH 672 0
DWIDTH 7 0
BBX 1 1 3 1
BITMAP
80
ENDCHAR
STARTCHAR char9516
ENCODING 9516
SWIDTH 672 0
DWIDTH 7 0
BBX 5 6 1 -4
BITMAP
38
08
08
08
08
08
ENDCHAR
STARTCHAR char9524
ENCODING 9524
SWIDTH 672 0
DWIDTH 7 0
BBX 5 7 1 2
BITMAP
08
08
08
08
08
08
30
ENDCHAR
STARTCHAR char9532
ENCODING 9532
SWIDTH 672 0
DWIDTH 7 0
BBX 5 12 1 -4
BITMAP
08
08
08
08
08
08
38
08
08
08
08
08
ENDCHAR
STARTCHAR char9552
ENCODING 9552
SWIDTH 672 0
DWIDTH 7 0
BBX 7 2 0 1
BITMAP
3E
7E
ENDCHAR
STARTCHAR char9553
ENCODING 9553
SWIDTH 672 0
DWIDTH 7 0
BBX 3 12 2 -4
BITMAP
A0
A0
A0
A0
A0
A0
A0
A0
A0
A0
A0
A0
ENDCHAR
STARTCHAR char9554
ENCODING 9554
SWIDTH 672 0
DWIDTH 7 0
BBX 4 7 3 -4
BITMAP
E0
F0
80
80
80
80
80
ENDCHAR
STARTCHAR char9555
ENCODING 9555
SWIDTH 672 0
DWIDTH 7 0
BBX 4 6 2 -4
BITMAP
F0
A0
A0
A0
A0
A0
ENDCHAR
STARTCHAR char9556
ENCODING 9556
SWIDTH 672 0
DWIDTH 7 0
BBX 5 7 2 -4
BITMAP
F0
B8
A0
A0
A0
A0
A0
ENDCHAR
STARTCHAR char9557
ENCODING 9557
SWIDTH 672 0
DWIDTH 7 0
BBX 3 2 1 1
BITMAP
60
E0
ENDCHAR
STARTCHAR char9558
ENCODING 9558
SWIDTH 672 0
DWIDTH 7 0
BBX 4 6 1 -4
BITMAP
30
10
10
10
10
10
ENDCHAR
STARTCHAR char9559
ENCODING 9559
SWIDTH 672 0
DWIDTH 7 0
BBX 5 7 0 -4
BITMAP
38
70
10
10
10
10
10
ENDCHAR
STARTCHAR char9560
ENCODING 9560
SWIDTH 672 0
DWIDTH 7 0
BBX 4 7 3 1
BITMAP
80
80
80
80
80
E0
F0
ENDCHAR
STARTCHAR char9561
ENCODING 9561
SWIDTH 672 0
DWIDTH 7 0
BBX 4 7 2 2
BITMAP
A0
A0
A0
A0
A0
A0
50
ENDCHAR
STARTCHAR char9562
ENCODING 9562
SWIDTH 672 0
DWIDTH 7 0
BBX 5 7 2 1
BITMAP
A0
A0
A0
A0
A0
90
F8
ENDCHAR
STARTCHAR char9563
ENCODING 9563
SWIDTH 672 0
DWIDTH 7 0
BBX 3 2 1 1
BITMAP
60
E0
ENDCHAR
STARTCHAR char9564
ENCODING 9564
SWIDTH 672 0
DWIDTH 7 0
BBX 4 7 1 2
BITMAP
10
10
10
10
10
10
20
ENDCHAR
STARTCHAR char9565
ENCODING 9565
SWIDTH 672 0
DWIDTH 7 0
BBX 5 7 0 1
BITMAP
10
10
10
10
10
20
78
ENDCHAR
STARTCHAR char9566
ENCODING 9566
SWIDTH 672 0
DWIDTH 7 0
BBX 4 12 3 -4
BITMAP
80
80
80
80
80
E0
F0
80
80
80
80
80
ENDCHAR
STARTCHAR char9567
ENCODING 9567
SWIDTH 672 0
DWIDTH 7 0
BBX 4 12 2 -4
BITMAP
A0
A0
A0
A0
A0
A0
B0
A0
A0
A0
A0
A0
ENDCHAR
STARTCHAR char9568
ENCODING 9568
SWIDTH 672 0
DWIDTH 7 0
BBX 5 12 2 -4
BITMAP
A0
A0
A0
A0
A0
90
B8
A0
A0
A0
A0
A0
ENDCHAR
STARTCHAR char9569
ENCODING 9569
SWIDTH 672 0
DWIDTH 7 0
BBX 3 2 1 1
BITMAP
60
E0
ENDCHAR
STARTCHAR char9570
ENCODING 9570
SWIDTH 672 0
DWIDTH 7 0
BBX 4 12 1 -4
BITMAP
10
10
10
10
10
10
30
10
10
10
10
10
ENDCHAR
STARTCHAR char9571
ENCODING 9571
SWIDTH 672 0
DWIDTH 7 0
BBX 5 12 0 -4
BITMAP
10
10
10
10
10
20
70
10
10
10
10
10
ENDCHAR
STARTCHAR char9572
ENCODING 9572
SWIDTH 672 0
DWIDTH 7 0
BBX 7 7 0 -4
BITMAP
3E
7E
08
08
08
08
08
ENDCHAR
STARTCHAR char9573
ENCODING 9573
SWIDTH 672 0
DWIDTH 7 0
BBX 5 6 1 -4
BITMAP
38
10
10
10
10
10
ENDCHAR
STARTCHAR char9574
ENCODING 9574
SWIDTH 672 0
DWIDTH 7 0
BBX 7 7 0 -4
BITMAP
3E
76
14
14
14
14
14
ENDCHAR
STARTCHAR char9575
ENCODING 9575
SWIDTH 672 0
DWIDTH 7 0
BBX 7 7 0 1
BITMAP
08
08
08
08
08
36
7E
ENDCHAR
STARTCHAR char9576
ENCODING 9576
SWIDTH 672 0
DWIDTH 7 0
BBX 5 7 1 2
BITMAP
10
10
10
10
10
10
28
ENDCHAR
STARTCHAR char9577
ENCODING 9577
SWIDTH 672 0
DWIDTH 7 0
BBX 7 7 0 1
BITMAP
14
14
14
14
14
22
7E
ENDCHAR
STARTCHAR char9578
ENCODING 9578
SWIDTH 672 0
DWIDTH 7 0
BBX 7 12 0 -4
BITMAP
08
08
08
08
08
3E
7E
08
08
08
08
08
ENDCHAR
STARTCHAR char9579
ENCODING 9579
SWIDTH 672 0
DWIDTH 7 0
BBX 5 12 1 -4
BITMAP
10
10
10
10
10
10
38
10
10
10
10
10
ENDCHAR
STARTCHAR char9580
ENCODING 9580
SWIDTH 672 0
DWIDTH 7 0
BBX 7 12 0 -4
BITMAP
14
14
14
14
14
22
76
14
14
14
14
14
ENDCHAR
STARTCHAR char9600
ENCODING 9600
SWIDTH 672 0
DWIDTH 7 0
BBX 7 6 0 3
BITMAP
7E
7E
7E
7E
7E
7E
ENDCHAR
STARTCHAR char9604
ENCODING 9604
SWIDTH 672 0
DWIDTH 7 0
BBX 7 6 0 -4
BITMAP
7E
7E
7E
7E
7E
7E
ENDCHAR
STARTCHAR char9608
ENCODING 9608
SWIDTH 672 0
DWIDTH 7 0
BBX 7 12 0 -4
BITMAP
7E
7E
7E
7E
7E
7E
7E
7E
7E
7E
7E
7E
ENDCHAR
STARTCHAR char9612
ENCODING 9612
SWIDTH 672 0
DWIDTH 7 0
BBX 4 12 0 -4
BITMAP
70
70
70
70
70
70
70
70
70
70
70
70
ENDCHAR
STARTCHAR char9616
ENCODING 9616
SWIDTH 672 0
DWIDTH 7 0
BBX 3 12 4 -4
BITMAP
60
60
60
60
60
60
60
60
60
60
60
60
ENDCHAR
STARTCHAR char9617
ENCODING 9617
SWIDTH 672 0
DWIDTH 7 0
BBX 6 9 0 -3
BITMAP
94
08
94
00
00
00
08
94
08
ENDCHAR
STARTCHAR char9618
ENCODING 9618
SWIDTH 672 0
DWIDTH 7 0
BBX 7 9 0 -3
BITMAP
4E
70
4E
00
00
00
70
4E
70
ENDCHAR
STARTCHAR char9619
ENCODING 9619
SWIDTH 672 0
DWIDTH 7 0
BBX 7 12 0 -4
BITMAP
1C
FA
DE
FE
FE
FE
FA
DE
FA
FE
FE
FE
ENDCHAR
STARTCHAR char9632
ENCODING 9632
SWIDTH 576 0
DWIDTH 6 0
BBX 4 5 1 0
BITMAP
70
70
70
70
70
ENDCHAR
STARTCHAR char9633
ENCODING 9633
SWIDTH 576 0
DWIDTH 6 0
BBX 5 5 0 0
BITMAP
78
88
88
88
88
ENDCHAR
STARTCHAR char9642
ENCODING 9642
SWIDTH 384 0
DWIDTH 4 0
BBX 2 2 1 2
BITMAP
40
40
ENDCHAR
STARTCHAR char9643
ENCODING 9643
SWIDTH 384 0
DWIDTH 4 0
BBX 3 2 0 2
BITMAP
E0
60
ENDCHAR
STARTCHAR char9644
ENCODING 9644
SWIDTH 960 0
DWIDTH 10 0
BBX 10 1 0 1
BITMAP
FFC0
ENDCHAR
STARTCHAR char9650
ENCODING 9650
SWIDTH 960 0
DWIDTH 10 0
BBX 6 6 2 0
BITMAP
18
18
3C
3C
7C
7C
ENDCHAR
STARTCHAR char9658
ENCODING 9658
SWIDTH 960 0
DWIDTH 10 0
BBX 7 7 1 -1
BITMAP
80
E0
F8
FE
FC
F0
C0
ENDCHAR
STARTCHAR char9660
ENCODING 9660
SWIDTH 960 0
DWIDTH 10 0
BBX 6 6 2 -1
BITMAP
7C
7C
3C
3C
18
18
ENDCHAR
STARTCHAR char9668
ENCODING 9668
SWIDTH 960 0
DWIDTH 10 0
BBX 5 5 3 0
BITMAP
08
38
F8
78
18
ENDCHAR
STARTCHAR char9674
ENCODING 9674
SWIDTH 480 0
DWIDTH 5 0
BBX 5 7 0 0
BITMAP
20
50
50
88
50
50
20
ENDCHAR
STARTCHAR char9675
ENCODING 9675
SWIDTH 576 0
DWIDTH 6 0
BBX 5 5 0 0
BITMAP
70
88
88
48
30
ENDCHAR
STARTCHAR char9679
ENCODING 9679
SWIDTH 576 0
DWIDTH 6 0
BBX 4 4 1 0
BITMAP
30
70
70
70
ENDCHAR
STARTCHAR char9688
ENCODING 9688
SWIDTH 576 0
DWIDTH 6 0
BBX 4 5 1 0
BITMAP
70
70
40
70
70
ENDCHAR
STARTCHAR char9689
ENCODING 9689
SWIDTH 576 0
DWIDTH 6 0
BBX 6 6 0 0
BITMAP
FC
FC
FC
FC
B4
FC
ENDCHAR
STARTCHAR char9702
ENCODING 9702
SWIDTH 384 0
DWIDTH 4 0
BBX 3 3 0 2
BITMAP
40
A0
60
ENDCHAR
STARTCHAR char9786
ENCODING 9786
SWIDTH 960 0
DWIDTH 10 0
BBX 6 7 2 -1
BITMAP
30
CC
8C
04
8C
98
70
ENDCHAR
STARTCHAR char9787
ENCODING 9787
SWIDTH 1056 0
DWIDTH 11 0
BBX 6 7 2 -1
BITMAP
30
7C
F4
FC
F4
7C
10
ENDCHAR
STARTCHAR char9788
ENCODING 9788
SWIDTH 864 0
DWIDTH 9 0
BBX 9 9 0 -2
BITMAP
0800
4900
3600
4200
C180
4200
2200
5D00
0800
ENDCHAR
STARTCHAR char9792
ENCODING 9792
SWIDTH 768 0
DWIDTH 8 0
BBX 5 8 1 -3
BITMAP
F8
88
08
88
70
20
20
70
ENDCHAR
STARTCHAR char9794
ENCODING 9794
SWIDTH 768 0
DWIDTH 8 0
BBX 7 10 0 -2
BITMAP
04
1C
0A
08
30
C8
84
84
48
30
ENDCHAR
STARTCHAR char9824
ENCODING 9824
SWIDTH 480 0
DWIDTH 5 0
BBX 5 5 0 0
BITMAP
30
78
F8
58
20
ENDCHAR
STARTCHAR char9827
ENCODING 9827
SWIDTH 672 0
DWIDTH 7 0
BBX 6 6 0 0
BITMAP
30
38
7C
FC
6C
30
ENDCHAR
STARTCHAR char9829
ENCODING 9829
SWIDTH 576 0
DWIDTH 6 0
BBX 6 5 0 -1
BITMAP
78
FC
78
70
30
ENDCHAR
STARTCHAR char9830
ENCODING 9830
SWIDTH 480 0
DWIDTH 5 0
BBX 3 6 1 -1
BITMAP
20
20
60
60
60
20
ENDCHAR
STARTCHAR char9834
ENCODING 9834
SWIDTH 480 0
DWIDTH 5 0
BBX 5 7 0 -1
BITMAP
30
38
28
20
20
E0
E0
ENDCHAR
STARTCHAR char9835
ENCODING 9835
SWIDTH 768 0
DWIDTH 8 0
BBX 7 8 0 -1
BITMAP
0E
12
22
22
2E
6C
EC
40
ENDCHAR
STARTCHAR char59393
ENCODING 59393
SWIDTH 192 0
DWIDTH 2 0
BBX 2 7 -1 0
BITMAP
80
00
40
40
40
40
40
ENDCHAR
STARTCHAR char59394
ENCODING 59394
SWIDTH 480 0
DWIDTH 5 0
BBX 4 7 0 -2
BITMAP
E0
10
10
50
50
10
10
ENDCHAR
STARTCHAR char59395
ENCODING 59395
SWIDTH 480 0
DWIDTH 5 0
BBX 4 7 0 -2
BITMAP
E0
10
10
F0
50
10
10
ENDCHAR
STARTCHAR char59396
ENCODING 59396
SWIDTH 480 0
DWIDTH 5 0
BBX 5 7 -1 0
BITMAP
40
C0
78
08
08
10
10
ENDCHAR
STARTCHAR char59397
ENCODING 59397
SWIDTH 480 0
DWIDTH 5 0
BBX 5 7 -1 0
BITMAP
40
C0
78
08
28
10
10
ENDCHAR
STARTCHAR char59416
ENCODING 59416
SWIDTH 192 0
DWIDTH 2 0
BBX 5 7 -1 6
BITMAP
10
20
10
20
10
58
60
ENDCHAR
STARTCHAR char59450
ENCODING 59450
SWIDTH 576 0
DWIDTH 6 0
BBX 6 1 0 1
BITMAP
FC
ENDCHAR
STARTCHAR char61441
ENCODING 61441
SWIDTH 480 0
DWIDTH 5 0
BBX 4 7 0 0
BITMAP
30
40
F0
50
50
50
50
ENDCHAR
STARTCHAR char61442
ENCODING 61442
SWIDTH 480 0
DWIDTH 5 0
BBX 4 7 0 0
BITMAP
30
50
F0
50
50
50
50
ENDCHAR
STARTCHAR char61444
ENCODING 61444
SWIDTH 288 0
DWIDTH 3 0
BBX 1 3 1 -4
BITMAP
80
80
80
ENDCHAR
STARTCHAR char61445
ENCODING 61445
SWIDTH 288 0
DWIDTH 3 0
BBX 2 3 0 -3
BITMAP
C0
40
C0
ENDCHAR
STARTCHAR char61446
ENCODING 61446
SWIDTH 0 0
DWIDTH 0 0
BBX 1 1 -1 8
BITMAP
80
ENDCHAR
STARTCHAR char61447
ENCODING 61447
SWIDTH 0 0
DWIDTH 0 0
BBX 1 1 -3 8
BITMAP
80
ENDCHAR
STARTCHAR char61448
ENCODING 61448
SWIDTH 0 0
DWIDTH 0 0
BBX 2 2 -2 6
BITMAP
40
80
ENDCHAR
STARTCHAR char61449
ENCODING 61449
SWIDTH 0 0
DWIDTH 0 0
BBX 2 2 -3 8
BITMAP
40
80
ENDCHAR
STARTCHAR char61450
ENCODING 61450
SWIDTH 0 0
DWIDTH 0 0
BBX 1 11 0 -2
BITMAP
80
80
80
80
00
00
80
80
80
80
80
ENDCHAR
STARTCHAR char61451
ENCODING 61451
SWIDTH 0 0
DWIDTH 0 0
BBX 3 11 -1 -2
BITMAP
E0
40
40
40
40
40
40
40
40
40
E0
ENDCHAR
STARTCHAR char61452
ENCODING 61452
SWIDTH 0 0
DWIDTH 0 0
BBX 2 11 0 -2
BITMAP
80
C0
80
80
80
80
80
80
80
80
80
ENDCHAR
STARTCHAR char61453
ENCODING 61453
SWIDTH 0 0
DWIDTH 0 0
BBX 2 11 -1 -2
BITMAP
40
C0
40
40
40
40
40
40
40
40
40
ENDCHAR
STARTCHAR char61454
ENCODING 61454
SWIDTH 0 0
DWIDTH 0 0
BBX 2 11 0 -2
BITMAP
80
80
80
80
80
80
80
80
80
80
C0
ENDCHAR
STARTCHAR char61455
ENCODING 61455
SWIDTH 0 0
DWIDTH 0 0
BBX 2 2 -4 6
BITMAP
80
40
ENDCHAR
STARTCHAR char61456
ENCODING 61456
SWIDTH 0 0
DWIDTH 0 0
BBX 3 2 -3 8
BITMAP
E0
40
ENDCHAR
STARTCHAR char61457
ENCODING 61457
SWIDTH 0 0
DWIDTH 0 0
BBX 3 2 -5 8
BITMAP
E0
40
ENDCHAR
STARTCHAR char61458
ENCODING 61458
SWIDTH 0 0
DWIDTH 0 0
BBX 3 2 -2 6
BITMAP
E0
40
ENDCHAR
STARTCHAR char61459
ENCODING 61459
SWIDTH 0 0
DWIDTH 0 0
BBX 3 2 -4 8
BITMAP
E0
40
ENDCHAR
STARTCHAR char61460
ENCODING 61460
SWIDTH 0 0
DWIDTH 0 0
BBX 3 2 -4 6
BITMAP
E0
40
ENDCHAR
STARTCHAR char61461
ENCODING 61461
SWIDTH 0 0
DWIDTH 0 0
BBX 4 2 -6 8
BITMAP
50
A0
ENDCHAR
STARTCHAR char61462
ENCODING 61462
SWIDTH 0 0
DWIDTH 0 0
BBX 4 2 -6 8
BITMAP
20
50
ENDCHAR
STARTCHAR char61463
ENCODING 61463
SWIDTH 0 0
DWIDTH 0 0
BBX 4 2 -7 8
BITMAP
20
50
ENDCHAR
STARTCHAR char61464
ENCODING 61464
SWIDTH 0 0
DWIDTH 0 0
BBX 4 2 -7 8
BITMAP
50
A0
ENDCHAR
STARTCHAR char61465
ENCODING 61465
SWIDTH 0 0
DWIDTH 0 0
BBX 4 2 -5 6
BITMAP
50
A0
ENDCHAR
STARTCHAR char61466
ENCODING 61466
SWIDTH 0 0
DWIDTH 0 0
BBX 4 2 -6 6
BITMAP
50
A0
ENDCHAR
STARTCHAR char61467
ENCODING 61467
SWIDTH 0 0
DWIDTH 0 0
BBX 4 2 -6 6
BITMAP
50
A0
ENDCHAR
STARTCHAR char61468
ENCODING 61468
SWIDTH 0 0
DWIDTH 0 0
BBX 4 2 -3 8
BITMAP
50
A0
ENDCHAR
STARTCHAR char61469
ENCODING 61469
SWIDTH 0 0
DWIDTH 0 0
BBX 4 2 -3 6
BITMAP
50
A0
ENDCHAR
STARTCHAR char61470
ENCODING 61470
SWIDTH 0 0
DWIDTH 0 0
BBX 1 1 -5 -2
BITMAP
80
ENDCHAR
STARTCHAR char61471
ENCODING 61471
SWIDTH 0 0
DWIDTH 0 0
BBX 1 1 -5 -2
BITMAP
80
ENDCHAR
STARTCHAR char61472
ENCODING 61472
SWIDTH 0 0
DWIDTH 0 0
BBX 1 1 -6 -2
BITMAP
80
ENDCHAR
STARTCHAR char61473
ENCODING 61473
SWIDTH 0 0
DWIDTH 0 0
BBX 1 1 -5 -2
BITMAP
80
ENDCHAR
STARTCHAR char61474
ENCODING 61474
SWIDTH 0 0
DWIDTH 0 0
BBX 1 1 -6 -2
BITMAP
80
ENDCHAR
STARTCHAR char61475
ENCODING 61475
SWIDTH 0 0
DWIDTH 0 0
BBX 1 1 -4 -2
BITMAP
80
ENDCHAR
STARTCHAR char61476
ENCODING 61476
SWIDTH 0 0
DWIDTH 0 0
BBX 1 1 -4 -2
BITMAP
80
ENDCHAR
STARTCHAR char61477
ENCODING 61477
SWIDTH 0 0
DWIDTH 0 0
BBX 1 1 -4 -2
BITMAP
80
ENDCHAR
STARTCHAR char61478
ENCODING 61478
SWIDTH 0 0
DWIDTH 0 0
BBX 1 1 -5 -2
BITMAP
80
ENDCHAR
STARTCHAR char61479
ENCODING 61479
SWIDTH 0 0
DWIDTH 0 0
BBX 1 1 -4 -2
BITMAP
80
ENDCHAR
STARTCHAR char61480
ENCODING 61480
SWIDTH 0 0
DWIDTH 0 0
BBX 1 1 -6 -2
BITMAP
80
ENDCHAR
STARTCHAR char61481
ENCODING 61481
SWIDTH 0 0
DWIDTH 0 0
BBX 1 1 -3 -2
BITMAP
80
ENDCHAR
STARTCHAR char61482
ENCODING 61482
SWIDTH 0 0
DWIDTH 0 0
BBX 1 1 -2 -2
BITMAP
80
ENDCHAR
STARTCHAR char61483
ENCODING 61483
SWIDTH 0 0
DWIDTH 0 0
BBX 1 1 -5 -2
BITMAP
80
ENDCHAR
STARTCHAR char61484
ENCODING 61484
SWIDTH 0 0
DWIDTH 0 0
BBX 1 1 -2 -2
BITMAP
80
ENDCHAR
STARTCHAR char61485
ENCODING 61485
SWIDTH 0 0
DWIDTH 0 0
BBX 4 2 -5 8
BITMAP
50
A0
ENDCHAR
STARTCHAR char61486
ENCODING 61486
SWIDTH 0 0
DWIDTH 0 0
BBX 4 2 -5 8
BITMAP
50
A0
ENDCHAR
STARTCHAR char61487
ENCODING 61487
SWIDTH 0 0
DWIDTH 0 0
BBX 4 2 -6 8
BITMAP
50
A0
ENDCHAR
STARTCHAR char61488
ENCODING 61488
SWIDTH 0 0
DWIDTH 0 0
BBX 4 2 -6 8
BITMAP
50
A0
ENDCHAR
STARTCHAR char61489
ENCODING 61489
SWIDTH 288 0
DWIDTH 3 0
BBX 1 5 1 0
BITMAP
80
80
80
80
80
ENDCHAR
STARTCHAR char64257
ENCODING 64257
SWIDTH 480 0
DWIDTH 5 0
BBX 4 7 0 0
BITMAP
30
40
F0
50
50
50
50
ENDCHAR
STARTCHAR char64258
ENCODING 64258
SWIDTH 480 0
DWIDTH 5 0
BBX 4 7 0 0
BITMAP
30
50
F0
50
50
50
50
ENDCHAR
STARTCHAR char64288
ENCODING 64288
SWIDTH 480 0
DWIDTH 5 0
BBX 4 5 0 0
BITMAP
90
50
50
50
E0
ENDCHAR
STARTCHAR char64298
ENCODING 64298
SWIDTH 672 0
DWIDTH 7 0
BBX 6 7 0 0
BITMAP
04
00
94
94
E4
84
78
ENDCHAR
STARTCHAR char64299
ENCODING 64299
SWIDTH 672 0
DWIDTH 7 0
BBX 6 7 0 0
BITMAP
80
00
94
94
E4
84
78
ENDCHAR
STARTCHAR char64300
ENCODING 64300
SWIDTH 672 0
DWIDTH 7 0
BBX 6 7 0 0
BITMAP
04
00
94
94
EC
84
78
ENDCHAR
STARTCHAR char64301
ENCODING 64301
SWIDTH 672 0
DWIDTH 7 0
BBX 6 7 0 0
BITMAP
80
00
94
94
EC
84
78
ENDCHAR
STARTCHAR char64302
ENCODING 64302
SWIDTH 576 0
DWIDTH 6 0
BBX 5 7 0 -2
BITMAP
88
48
70
90
88
00
30
ENDCHAR
STARTCHAR char64303
ENCODING 64303
SWIDTH 576 0
DWIDTH 6 0
BBX 5 8 0 -3
BITMAP
88
48
70
90
88
00
70
20
ENDCHAR
STARTCHAR char64304
ENCODING 64304
SWIDTH 576 0
DWIDTH 6 0
BBX 5 5 0 0
BITMAP
88
48
70
90
A8
ENDCHAR
STARTCHAR char64305
ENCODING 64305
SWIDTH 480 0
DWIDTH 5 0
BBX 4 5 0 0
BITMAP
C0
20
A0
20
F0
ENDCHAR
STARTCHAR char64306
ENCODING 64306
SWIDTH 384 0
DWIDTH 4 0
BBX 3 5 0 0
BITMAP
60
40
20
40
40
ENDCHAR
STARTCHAR char64307
ENCODING 64307
SWIDTH 480 0
DWIDTH 5 0
BBX 4 5 0 0
BITMAP
F0
20
A0
20
20
ENDCHAR
STARTCHAR char64308
ENCODING 64308
SWIDTH 576 0
DWIDTH 6 0
BBX 5 5 0 0
BITMAP
F0
08
A8
88
88
ENDCHAR
STARTCHAR char64309
ENCODING 64309
SWIDTH 288 0
DWIDTH 3 0
BBX 2 5 0 0
BITMAP
40
40
C0
40
40
ENDCHAR
STARTCHAR char64310
ENCODING 64310
SWIDTH 480 0
DWIDTH 5 0
BBX 4 5 0 0
BITMAP
70
20
A0
20
20
ENDCHAR
STARTCHAR char64312
ENCODING 64312
SWIDTH 576 0
DWIDTH 6 0
BBX 5 5 0 0
BITMAP
B0
88
A8
88
70
ENDCHAR
STARTCHAR char64313
ENCODING 64313
SWIDTH 288 0
DWIDTH 3 0
BBX 2 3 0 2
BITMAP
40
C0
40
ENDCHAR
STARTCHAR char64314
ENCODING 64314
SWIDTH 480 0
DWIDTH 5 0
BBX 4 7 0 -2
BITMAP
E0
10
50
10
10
10
10
ENDCHAR
STARTCHAR char64315
ENCODING 64315
SWIDTH 480 0
DWIDTH 5 0
BBX 4 5 0 0
BITMAP
E0
10
50
10
E0
ENDCHAR
STARTCHAR char64316
ENCODING 64316
SWIDTH 480 0
DWIDTH 5 0
BBX 4 7 0 0
BITMAP
80
80
F0
10
50
20
20
ENDCHAR
STARTCHAR char64318
ENCODING 64318
SWIDTH 576 0
DWIDTH 6 0
BBX 5 5 0 0
BITMAP
58
60
50
40
58
ENDCHAR
STARTCHAR char64320
ENCODING 64320
SWIDTH 384 0
DWIDTH 4 0
BBX 3 5 0 0
BITMAP
C0
20
A0
20
E0
ENDCHAR
STARTCHAR char64321
ENCODING 64321
SWIDTH 576 0
DWIDTH 6 0
BBX 5 5 0 0
BITMAP
70
88
A8
88
70
ENDCHAR
STARTCHAR char64323
ENCODING 64323
SWIDTH 576 0
DWIDTH 6 0
BBX 5 7 0 -2
BITMAP
F0
88
A8
08
08
08
08
ENDCHAR
STARTCHAR char64324
ENCODING 64324
SWIDTH 480 0
DWIDTH 5 0
BBX 4 5 0 0
BITMAP
E0
90
B0
10
E0
ENDCHAR
STARTCHAR char64326
ENCODING 64326
SWIDTH 480 0
DWIDTH 5 0
BBX 4 5 0 0
BITMAP
40
20
50
10
70
ENDCHAR
STARTCHAR char64327
ENCODING 64327
SWIDTH 480 0
DWIDTH 5 0
BBX 4 7 0 -2
BITMAP
F0
10
D0
A0
A0
80
80
ENDCHAR
STARTCHAR char64328
ENCODING 64328
SWIDTH 480 0
DWIDTH 5 0
BBX 4 5 0 0
BITMAP
E0
10
50
10
10
ENDCHAR
STARTCHAR char64329
ENCODING 64329
SWIDTH 672 0
DWIDTH 7 0
BBX 6 5 0 0
BITMAP
94
94
EC
84
78
ENDCHAR
STARTCHAR char64330
ENCODING 64330
SWIDTH 576 0
DWIDTH 6 0
BBX 5 5 0 0
BITMAP
F0
48
58
48
C8
ENDCHAR
STARTCHAR char64331
ENCODING 64331
SWIDTH 192 0
DWIDTH 2 0
BBX 1 7 0 0
BITMAP
80
00
80
80
80
80
80
ENDCHAR
STARTCHAR char64332
ENCODING 64332
SWIDTH 480 0
DWIDTH 5 0
BBX 4 7 0 0
BITMAP
C0
00
C0
20
20
20
F0
ENDCHAR
STARTCHAR char64333
ENCODING 64333
SWIDTH 480 0
DWIDTH 5 0
BBX 4 7 0 0
BITMAP
60
00
E0
10
10
10
E0
ENDCHAR
STARTCHAR char64334
ENCODING 64334
SWIDTH 480 0
DWIDTH 5 0
BBX 4 7 0 0
BITMAP
C0
00
E0
90
D0
10
E0
ENDCHAR
STARTCHAR char64335
ENCODING 64335
SWIDTH 576 0
DWIDTH 6 0
BBX 5 7 0 0
BITMAP
80
80
C8
28
70
90
88
ENDCHAR
STARTCHAR char64342
ENCODING 64342
SWIDTH 672 0
DWIDTH 7 0
BBX 6 7 1 -2
BITMAP
88
84
84
7C
00
30
10
ENDCHAR
STARTCHAR char64343
ENCODING 64343
SWIDTH 672 0
DWIDTH 7 0
BBX 6 7 1 -2
BITMAP
88
84
84
7C
00
30
10
ENDCHAR
STARTCHAR char64344
ENCODING 64344
SWIDTH 192 0
DWIDTH 2 0
BBX 2 7 0 -2
BITMAP
80
40
40
C0
00
C0
40
ENDCHAR
STARTCHAR char64345
ENCODING 64345
SWIDTH 192 0
DWIDTH 2 0
BBX 2 7 0 -2
BITMAP
80
40
40
C0
00
C0
40
ENDCHAR
STARTCHAR char64378
ENCODING 64378
SWIDTH 576 0
DWIDTH 6 0
BBX 5 6 0 -2
BITMAP
F8
20
58
88
80
78
ENDCHAR
STARTCHAR char64379
ENCODING 64379
SWIDTH 480 0
DWIDTH 5 0
BBX 5 6 0 -2
BITMAP
F8
50
98
E0
A0
78
ENDCHAR
STARTCHAR char64380
ENCODING 64380
SWIDTH 480 0
DWIDTH 5 0
BBX 5 6 0 -2
BITMAP
60
10
F8
00
30
10
ENDCHAR
STARTCHAR char64381
ENCODING 64381
SWIDTH 480 0
DWIDTH 5 0
BBX 5 6 0 -2
BITMAP
60
10
F8
00
30
10
ENDCHAR
STARTCHAR char64394
ENCODING 64394
SWIDTH 480 0
DWIDTH 5 0
BBX 3 8 2 -1
BITMAP
40
60
00
20
00
00
20
40
ENDCHAR
STARTCHAR char64395
ENCODING 64395
SWIDTH 480 0
DWIDTH 5 0
BBX 3 8 2 -1
BITMAP
40
60
00
20
00
00
20
40
ENDCHAR
STARTCHAR char64398
ENCODING 64398
SWIDTH 768 0
DWIDTH 8 0
BBX 8 6 0 1
BITMAP
01
02
04
82
81
FF
ENDCHAR
STARTCHAR char64399
ENCODING 64399
SWIDTH 864 0
DWIDTH 9 0
BBX 9 6 0 1
BITMAP
0300
0600
0800
8600
8300
FC80
ENDCHAR
STARTCHAR char64400
ENCODING 64400
SWIDTH 384 0
DWIDTH 4 0
BBX 4 6 0 1
BITMAP
30
40
80
60
10
F0
ENDCHAR
STARTCHAR char64401
ENCODING 64401
SWIDTH 480 0
DWIDTH 5 0
BBX 5 6 0 1
BITMAP
30
40
80
60
30
C8
ENDCHAR
STARTCHAR char64402
ENCODING 64402
SWIDTH 768 0
DWIDTH 8 0
BBX 8 8 0 1
BITMAP
01
02
05
02
04
82
81
FF
ENDCHAR
STARTCHAR char64403
ENCODING 64403
SWIDTH 864 0
DWIDTH 9 0
BBX 9 8 0 1
BITMAP
0300
0400
0B00
0600
0800
8600
8300
FC80
ENDCHAR
STARTCHAR char64404
ENCODING 64404
SWIDTH 384 0
DWIDTH 4 0
BBX 4 8 0 1
BITMAP
30
40
B0
40
80
60
10
F0
ENDCHAR
STARTCHAR char64405
ENCODING 64405
SWIDTH 480 0
DWIDTH 5 0
BBX 5 8 0 1
BITMAP
30
40
B0
40
80
60
30
C8
ENDCHAR
STARTCHAR char64508
ENCODING 64508
SWIDTH 576 0
DWIDTH 6 0
BBX 5 6 0 -1
BITMAP
18
10
A0
B8
88
F0
ENDCHAR
STARTCHAR char64509
ENCODING 64509
SWIDTH 576 0
DWIDTH 6 0
BBX 5 4 1 -2
BITMAP
B8
A0
90
F0
ENDCHAR
STARTCHAR char64606
ENCODING 64606
SWIDTH 192 0
DWIDTH 2 0
BBX 5 8 -1 6
BITMAP
08
08
68
30
20
10
58
60
ENDCHAR
STARTCHAR char64607
ENCODING 64607
SWIDTH 192 0
DWIDTH 2 0
BBX 4 6 0 6
BITMAP
B0
C0
20
40
20
40
ENDCHAR
STARTCHAR char64608
ENCODING 64608
SWIDTH 192 0
DWIDTH 2 0
BBX 5 5 -1 6
BITMAP
10
20
10
58
60
ENDCHAR
STARTCHAR char64609
ENCODING 64609
SWIDTH 192 0
DWIDTH 2 0
BBX 5 6 -1 6
BITMAP
30
30
00
00
58
60
ENDCHAR
STARTCHAR char64610
ENCODING 64610
SWIDTH 192 0
DWIDTH 2 0
BBX 4 4 0 6
BITMAP
B0
C0
20
40
ENDCHAR
STARTCHAR char64830
ENCODING 64830
SWIDTH 288 0
DWIDTH 3 0
BBX 2 10 1 -2
BITMAP
40
80
80
80
80
80
80
80
80
40
ENDCHAR
STARTCHAR char64831
ENCODING 64831
SWIDTH 288 0
DWIDTH 3 0
BBX 2 10 0 -2
BITMAP
80
40
40
40
40
40
40
40
40
80
ENDCHAR
STARTCHAR char65010
ENCODING 65010
SWIDTH 576 0
DWIDTH 6 0
BBX 6 8 0 1
BITMAP
20
14
5C
60
08
28
28
5C
ENDCHAR
STARTCHAR char65152
ENCODING 65152
SWIDTH 384 0
DWIDTH 4 0
BBX 1 3 2 0
BITMAP
80
80
80
ENDCHAR
STARTCHAR char65153
ENCODING 65153
SWIDTH 192 0
DWIDTH 2 0
BBX 2 8 0 1
BITMAP
C0
00
40
40
40
40
40
40
ENDCHAR
STARTCHAR char65154
ENCODING 65154
SWIDTH 192 0
DWIDTH 2 0
BBX 2 8 0 1
BITMAP
C0
00
80
80
80
80
80
C0
ENDCHAR
STARTCHAR char65155
ENCODING 65155
SWIDTH 192 0
DWIDTH 2 0
BBX 2 8 0 1
BITMAP
C0
00
00
40
40
40
40
40
ENDCHAR
STARTCHAR char65156
ENCODING 65156
SWIDTH 192 0
DWIDTH 2 0
BBX 3 8 -1 1
BITMAP
C0
00
00
40
40
40
40
60
ENDCHAR
STARTCHAR char65157
ENCODING 65157
SWIDTH 384 0
DWIDTH 4 0
BBX 4 8 0 -1
BITMAP
C0
00
00
30
50
70
10
60
ENDCHAR
STARTCHAR char65158
ENCODING 65158
SWIDTH 384 0
DWIDTH 4 0
BBX 4 8 0 -1
BITMAP
C0
00
00
30
50
70
10
60
ENDCHAR
STARTCHAR char65159
ENCODING 65159
SWIDTH 192 0
DWIDTH 2 0
BBX 2 8 0 -2
BITMAP
40
40
40
40
40
40
00
C0
ENDCHAR
STARTCHAR char65160
ENCODING 65160
SWIDTH 192 0
DWIDTH 2 0
BBX 2 8 0 -2
BITMAP
80
80
80
80
80
C0
00
C0
ENDCHAR
STARTCHAR char65161
ENCODING 65161
SWIDTH 576 0
DWIDTH 6 0
BBX 5 7 0 -1
BITMAP
C0
18
10
A0
B8
88
F0
ENDCHAR
STARTCHAR char65162
ENCODING 65162
SWIDTH 576 0
DWIDTH 6 0
BBX 5 7 1 -2
BITMAP
C0
00
00
B8
A0
90
F0
ENDCHAR
STARTCHAR char65163
ENCODING 65163
SWIDTH 192 0
DWIDTH 2 0
BBX 2 7 0 1
BITMAP
C0
00
00
80
40
40
C0
ENDCHAR
STARTCHAR char65164
ENCODING 65164
SWIDTH 192 0
DWIDTH 2 0
BBX 2 7 0 1
BITMAP
C0
00
00
80
40
40
C0
ENDCHAR
STARTCHAR char65165
ENCODING 65165
SWIDTH 192 0
DWIDTH 2 0
BBX 0 0 0 0
BITMAP
ENDCHAR
STARTCHAR char65166
ENCODING 65166
SWIDTH 192 0
DWIDTH 2 0
BBX 2 6 0 1
BITMAP
80
80
80
80
80
C0
ENDCHAR
STARTCHAR char65167
ENCODING 65167
SWIDTH 672 0
DWIDTH 7 0
BBX 6 6 1 -1
BITMAP
88
84
84
7C
00
20
ENDCHAR
STARTCHAR char65168
ENCODING 65168
SWIDTH 672 0
DWIDTH 7 0
BBX 6 6 1 -1
BITMAP
88
84
84
7C
00
20
ENDCHAR
STARTCHAR char65169
ENCODING 65169
SWIDTH 192 0
DWIDTH 2 0
BBX 2 6 0 -1
BITMAP
80
40
40
C0
00
80
ENDCHAR
STARTCHAR char65170
ENCODING 65170
SWIDTH 192 0
DWIDTH 2 0
BBX 2 6 0 -1
BITMAP
80
40
40
C0
00
80
ENDCHAR
STARTCHAR char65171
ENCODING 65171
SWIDTH 288 0
DWIDTH 3 0
BBX 3 5 0 1
BITMAP
C0
00
40
A0
E0
ENDCHAR
STARTCHAR char65172
ENCODING 65172
SWIDTH 384 0
DWIDTH 4 0
BBX 4 7 0 1
BITMAP
60
00
20
60
A0
E0
10
ENDCHAR
STARTCHAR char65173
ENCODING 65173
SWIDTH 672 0
DWIDTH 7 0
BBX 6 6 1 1
BITMAP
30
00
88
84
84
7C
ENDCHAR
STARTCHAR char65174
ENCODING 65174
SWIDTH 672 0
DWIDTH 7 0
BBX 6 6 1 1
BITMAP
30
00
88
84
84
7C
ENDCHAR
STARTCHAR char65175
ENCODING 65175
SWIDTH 192 0
DWIDTH 2 0
BBX 2 6 0 1
BITMAP
C0
00
80
40
40
C0
ENDCHAR
STARTCHAR char65176
ENCODING 65176
SWIDTH 192 0
DWIDTH 2 0
BBX 2 6 0 1
BITMAP
C0
00
80
40
40
C0
ENDCHAR
STARTCHAR char65177
ENCODING 65177
SWIDTH 672 0
DWIDTH 7 0
BBX 6 7 1 1
BITMAP
20
30
00
88
84
84
7C
ENDCHAR
STARTCHAR char65178
ENCODING 65178
SWIDTH 672 0
DWIDTH 7 0
BBX 6 7 1 1
BITMAP
20
30
00
88
84
84
7C
ENDCHAR
STARTCHAR char65179
ENCODING 65179
SWIDTH 192 0
DWIDTH 2 0
BBX 2 7 0 1
BITMAP
80
C0
00
80
40
40
C0
ENDCHAR
STARTCHAR char65180
ENCODING 65180
SWIDTH 192 0
DWIDTH 2 0
BBX 2 7 0 1
BITMAP
80
C0
00
80
40
40
C0
ENDCHAR
STARTCHAR char65181
ENCODING 65181
SWIDTH 576 0
DWIDTH 6 0
BBX 5 6 0 -2
BITMAP
F8
20
40
90
80
78
ENDCHAR
STARTCHAR char65182
ENCODING 65182
SWIDTH 480 0
DWIDTH 5 0
BBX 5 6 0 -2
BITMAP
F8
50
98
A0
80
78
ENDCHAR
STARTCHAR char65183
ENCODING 65183
SWIDTH 480 0
DWIDTH 5 0
BBX 5 5 0 -1
BITMAP
60
10
F8
00
10
ENDCHAR
STARTCHAR char65184
ENCODING 65184
SWIDTH 480 0
DWIDTH 5 0
BBX 5 5 0 -1
BITMAP
60
10
F8
00
10
ENDCHAR
STARTCHAR char65185
ENCODING 65185
SWIDTH 576 0
DWIDTH 6 0
BBX 5 6 0 -2
BITMAP
F8
20
40
80
80
78
ENDCHAR
STARTCHAR char65186
ENCODING 65186
SWIDTH 480 0
DWIDTH 5 0
BBX 5 6 0 -2
BITMAP
F8
50
98
80
80
78
ENDCHAR
STARTCHAR char65187
ENCODING 65187
SWIDTH 480 0
DWIDTH 5 0
BBX 5 3 0 1
BITMAP
60
10
F8
ENDCHAR
STARTCHAR char65188
ENCODING 65188
SWIDTH 480 0
DWIDTH 5 0
BBX 5 3 0 1
BITMAP
60
10
F8
ENDCHAR
STARTCHAR char65189
ENCODING 65189
SWIDTH 576 0
DWIDTH 6 0
BBX 5 8 0 -2
BITMAP
20
00
F8
20
40
80
80
78
ENDCHAR
STARTCHAR char65190
ENCODING 65190
SWIDTH 480 0
DWIDTH 5 0
BBX 5 8 0 -2
BITMAP
20
00
F8
50
98
80
80
78
ENDCHAR
STARTCHAR char65191
ENCODING 65191
SWIDTH 480 0
DWIDTH 5 0
BBX 5 5 0 1
BITMAP
10
00
60
10
F8
ENDCHAR
STARTCHAR char65192
ENCODING 65192
SWIDTH 480 0
DWIDTH 5 0
BBX 5 5 0 1
BITMAP
10
00
60
10
F8
ENDCHAR
STARTCHAR char65193
ENCODING 65193
SWIDTH 288 0
DWIDTH 3 0
BBX 1 1 2 1
BITMAP
80
ENDCHAR
STARTCHAR char65194
ENCODING 65194
SWIDTH 288 0
DWIDTH 3 0
BBX 1 1 2 1
BITMAP
80
ENDCHAR
STARTCHAR char65195
ENCODING 65195
SWIDTH 288 0
DWIDTH 3 0
BBX 2 6 1 1
BITMAP
40
00
00
00
00
40
ENDCHAR
STARTCHAR char65196
ENCODING 65196
SWIDTH 288 0
DWIDTH 3 0
BBX 2 6 1 1
BITMAP
40
00
00
00
00
40
ENDCHAR
STARTCHAR char65197
ENCODING 65197
SWIDTH 480 0
DWIDTH 5 0
BBX 3 5 2 -1
BITMAP
20
00
00
20
40
ENDCHAR
STARTCHAR char65198
ENCODING 65198
SWIDTH 480 0
DWIDTH 5 0
BBX 3 5 2 -1
BITMAP
20
00
00
20
40
ENDCHAR
STARTCHAR char65199
ENCODING 65199
SWIDTH 480 0
DWIDTH 5 0
BBX 3 7 2 -1
BITMAP
40
00
20
00
00
20
40
ENDCHAR
STARTCHAR char65200
ENCODING 65200
SWIDTH 480 0
DWIDTH 5 0
BBX 3 7 2 -1
BITMAP
40
00
20
00
00
20
40
ENDCHAR
STARTCHAR char65201
ENCODING 65201
SWIDTH 768 0
DWIDTH 8 0
BBX 7 5 1 -1
BITMAP
2A
AA
BE
A0
C0
ENDCHAR
STARTCHAR char65202
ENCODING 65202
SWIDTH 768 0
DWIDTH 8 0
BBX 7 5 1 -1
BITMAP
2A
AA
BE
A0
C0
ENDCHAR
STARTCHAR char65203
ENCODING 65203
SWIDTH 480 0
DWIDTH 5 0
BBX 5 3 0 1
BITMAP
08
A8
F8
ENDCHAR
STARTCHAR char65204
ENCODING 65204
SWIDTH 480 0
DWIDTH 5 0
BBX 5 3 0 1
BITMAP
08
A8
F8
ENDCHAR
STARTCHAR char65205
ENCODING 65205
SWIDTH 768 0
DWIDTH 8 0
BBX 7 8 1 -1
BITMAP
08
0C
00
2A
AA
BE
A0
C0
ENDCHAR
STARTCHAR char65206
ENCODING 65206
SWIDTH 768 0
DWIDTH 8 0
BBX 7 8 1 -1
BITMAP
08
0C
00
2A
AA
BE
A0
C0
ENDCHAR
STARTCHAR char65207
ENCODING 65207
SWIDTH 480 0
DWIDTH 5 0
BBX 5 6 0 1
BITMAP
40
60
00
08
A8
F8
ENDCHAR
STARTCHAR char65208
ENCODING 65208
SWIDTH 480 0
DWIDTH 5 0
BBX 5 6 0 1
BITMAP
40
60
00
08
A8
F8
ENDCHAR
STARTCHAR char65209
ENCODING 65209
SWIDTH 1056 0
DWIDTH 11 0
BBX 10 5 1 -1
BITMAP
10C0
8B40
8FC0
8800
F000
ENDCHAR
STARTCHAR char65210
ENCODING 65210
SWIDTH 1056 0
DWIDTH 11 0
BBX 10 5 1 -1
BITMAP
10C0
8B40
8FC0
8800
F000
ENDCHAR
STARTCHAR char65211
ENCODING 65211
SWIDTH 768 0
DWIDTH 8 0
BBX 8 3 0 1
BITMAP
47
49
FF
ENDCHAR
STARTCHAR char65212
ENCODING 65212
SWIDTH 768 0
DWIDTH 8 0
BBX 8 3 0 1
BITMAP
47
49
FF
ENDCHAR
STARTCHAR char65213
ENCODING 65213
SWIDTH 1056 0
DWIDTH 11 0
BBX 10 7 1 -1
BITMAP
0200
0000
10C0
8B40
8FC0
8800
F000
ENDCHAR
STARTCHAR char65214
ENCODING 65214
SWIDTH 1056 0
DWIDTH 11 0
BBX 10 7 1 -1
BITMAP
0200
0000
10C0
8B40
8FC0
8800
F000
ENDCHAR
STARTCHAR char65215
ENCODING 65215
SWIDTH 768 0
DWIDTH 8 0
BBX 8 5 0 1
BITMAP
08
00
47
49
FF
ENDCHAR
STARTCHAR char65216
ENCODING 65216
SWIDTH 768 0
DWIDTH 8 0
BBX 8 5 0 1
BITMAP
08
00
47
49
FF
ENDCHAR
STARTCHAR char65217
ENCODING 65217
SWIDTH 576 0
DWIDTH 6 0
BBX 6 7 0 1
BITMAP
40
40
40
20
3C
24
FC
ENDCHAR
STARTCHAR char65218
ENCODING 65218
SWIDTH 576 0
DWIDTH 6 0
BBX 6 7 0 1
BITMAP
40
40
40
20
3C
24
FC
ENDCHAR
STARTCHAR char65219
ENCODING 65219
SWIDTH 576 0
DWIDTH 6 0
BBX 6 7 0 1
BITMAP
40
40
40
20
3C
24
FC
ENDCHAR
STARTCHAR char65220
ENCODING 65220
SWIDTH 576 0
DWIDTH 6 0
BBX 6 7 0 1
BITMAP
40
40
40
20
3C
24
FC
ENDCHAR
STARTCHAR char65221
ENCODING 65221
SWIDTH 576 0
DWIDTH 6 0
BBX 6 7 0 1
BITMAP
40
40
48
20
3C
24
FC
ENDCHAR
STARTCHAR char65222
ENCODING 65222
SWIDTH 576 0
DWIDTH 6 0
BBX 6 7 0 1
BITMAP
40
40
48
20
3C
24
FC
ENDCHAR
STARTCHAR char65223
ENCODING 65223
SWIDTH 576 0
DWIDTH 6 0
BBX 6 7 0 1
BITMAP
40
40
48
20
3C
24
FC
ENDCHAR
STARTCHAR char65224
ENCODING 65224
SWIDTH 576 0
DWIDTH 6 0
BBX 6 7 0 1
BITMAP
40
40
48
20
3C
24
FC
ENDCHAR
STARTCHAR char65225
ENCODING 65225
SWIDTH 480 0
DWIDTH 5 0
BBX 4 8 0 -2
BITMAP
60
80
90
60
80
80
C0
70
ENDCHAR
STARTCHAR char65226
ENCODING 65226
SWIDTH 480 0
DWIDTH 5 0
BBX 5 6 0 -2
BITMAP
60
20
58
80
80
78
ENDCHAR
STARTCHAR char65227
ENCODING 65227
SWIDTH 480 0
DWIDTH 5 0
BBX 5 4 0 1
BITMAP
70
40
48
F0
ENDCHAR
STARTCHAR char65228
ENCODING 65228
SWIDTH 384 0
DWIDTH 4 0
BBX 4 3 0 1
BITMAP
60
20
D0
ENDCHAR
STARTCHAR char65229
ENCODING 65229
SWIDTH 480 0
DWIDTH 5 0
BBX 4 10 0 -2
BITMAP
40
00
60
80
90
60
80
80
C0
70
ENDCHAR
STARTCHAR char65230
ENCODING 65230
SWIDTH 480 0
DWIDTH 5 0
BBX 5 8 0 -2
BITMAP
20
00
60
20
58
80
80
78
ENDCHAR
STARTCHAR char65231
ENCODING 65231
SWIDTH 480 0
DWIDTH 5 0
BBX 5 6 0 1
BITMAP
20
00
70
40
48
F0
ENDCHAR
STARTCHAR char65232
ENCODING 65232
SWIDTH 384 0
DWIDTH 4 0
BBX 4 5 0 1
BITMAP
40
00
60
20
D0
ENDCHAR
STARTCHAR char65233
ENCODING 65233
SWIDTH 768 0
DWIDTH 8 0
BBX 7 6 1 1
BITMAP
08
00
86
8A
8E
7E
ENDCHAR
STARTCHAR char65234
ENCODING 65234
SWIDTH 768 0
DWIDTH 8 0
BBX 7 6 1 1
BITMAP
08
00
86
8A
8E
7E
ENDCHAR
STARTCHAR char65235
ENCODING 65235
SWIDTH 288 0
DWIDTH 3 0
BBX 3 7 0 1
BITMAP
40
00
C0
A0
E0
20
E0
ENDCHAR
STARTCHAR char65236
ENCODING 65236
SWIDTH 288 0
DWIDTH 3 0
BBX 3 6 0 1
BITMAP
40
00
E0
A0
60
E0
ENDCHAR
STARTCHAR char65237
ENCODING 65237
SWIDTH 576 0
DWIDTH 6 0
BBX 5 8 1 -1
BITMAP
30
00
10
28
B8
88
88
F0
ENDCHAR
STARTCHAR char65238
ENCODING 65238
SWIDTH 576 0
DWIDTH 6 0
BBX 5 8 1 -1
BITMAP
30
00
10
28
B8
88
88
F0
ENDCHAR
STARTCHAR char65239
ENCODING 65239
SWIDTH 288 0
DWIDTH 3 0
BBX 3 7 0 1
BITMAP
C0
00
C0
A0
E0
20
E0
ENDCHAR
STARTCHAR char65240
ENCODING 65240
SWIDTH 288 0
DWIDTH 3 0
BBX 3 6 0 1
BITMAP
C0
00
E0
A0
60
E0
ENDCHAR
STARTCHAR char65241
ENCODING 65241
SWIDTH 576 0
DWIDTH 6 0
BBX 6 7 0 1
BITMAP
08
08
28
28
A4
84
FC
ENDCHAR
STARTCHAR char65242
ENCODING 65242
SWIDTH 576 0
DWIDTH 6 0
BBX 6 7 0 1
BITMAP
08
08
28
28
A4
84
FC
ENDCHAR
STARTCHAR char65243
ENCODING 65243
SWIDTH 384 0
DWIDTH 4 0
BBX 4 6 0 1
BITMAP
30
40
80
60
10
F0
ENDCHAR
STARTCHAR char65244
ENCODING 65244
SWIDTH 384 0
DWIDTH 4 0
BBX 4 6 0 1
BITMAP
30
40
80
60
10
F0
ENDCHAR
STARTCHAR char65245
ENCODING 65245
SWIDTH 480 0
DWIDTH 5 0
BBX 4 8 1 0
BITMAP
10
10
10
10
90
90
90
F0
ENDCHAR
STARTCHAR char65246
ENCODING 65246
SWIDTH 480 0
DWIDTH 5 0
BBX 4 8 1 0
BITMAP
10
10
10
10
90
90
90
F0
ENDCHAR
STARTCHAR char65247
ENCODING 65247
SWIDTH 192 0
DWIDTH 2 0
BBX 2 7 0 1
BITMAP
80
80
80
80
40
40
C0
ENDCHAR
STARTCHAR char65248
ENCODING 65248
SWIDTH 192 0
DWIDTH 2 0
BBX 2 7 0 1
BITMAP
80
80
80
80
40
40
C0
ENDCHAR
STARTCHAR char65249
ENCODING 65249
SWIDTH 288 0
DWIDTH 3 0
BBX 3 6 0 -2
BITMAP
40
20
60
80
80
80
ENDCHAR
STARTCHAR char65250
ENCODING 65250
SWIDTH 288 0
DWIDTH 3 0
BBX 3 6 0 -2
BITMAP
40
20
60
80
80
80
ENDCHAR
STARTCHAR char65251
ENCODING 65251
SWIDTH 384 0
DWIDTH 4 0
BBX 4 4 0 1
BITMAP
20
50
50
B0
ENDCHAR
STARTCHAR char65252
ENCODING 65252
SWIDTH 384 0
DWIDTH 4 0
BBX 4 4 0 1
BITMAP
20
50
50
B0
ENDCHAR
STARTCHAR char65253
ENCODING 65253
SWIDTH 480 0
DWIDTH 5 0
BBX 4 6 1 -1
BITMAP
80
20
90
90
90
E0
ENDCHAR
STARTCHAR char65254
ENCODING 65254
SWIDTH 480 0
DWIDTH 5 0
BBX 4 6 1 -1
BITMAP
80
20
90
90
90
E0
ENDCHAR
STARTCHAR char65255
ENCODING 65255
SWIDTH 192 0
DWIDTH 2 0
BBX 2 6 0 1
BITMAP
40
00
80
40
40
C0
ENDCHAR
STARTCHAR char65256
ENCODING 65256
SWIDTH 192 0
DWIDTH 2 0
BBX 2 6 0 1
BITMAP
40
00
80
40
40
C0
ENDCHAR
STARTCHAR char65257
ENCODING 65257
SWIDTH 288 0
DWIDTH 3 0
BBX 3 3 0 1
BITMAP
40
A0
E0
ENDCHAR
STARTCHAR char65258
ENCODING 65258
SWIDTH 384 0
DWIDTH 4 0
BBX 4 5 0 1
BITMAP
20
60
A0
E0
10
ENDCHAR
STARTCHAR char65259
ENCODING 65259
SWIDTH 480 0
DWIDTH 5 0
BBX 5 5 0 1
BITMAP
20
30
50
28
D8
ENDCHAR
STARTCHAR char65260
ENCODING 65260
SWIDTH 384 0
DWIDTH 4 0
BBX 4 5 0 -1
BITMAP
30
50
F0
50
30
ENDCHAR
STARTCHAR char65261
ENCODING 65261
SWIDTH 384 0
DWIDTH 4 0
BBX 3 5 1 -1
BITMAP
20
40
60
00
60
ENDCHAR
STARTCHAR char65262
ENCODING 65262
SWIDTH 384 0
DWIDTH 4 0
BBX 3 5 1 -1
BITMAP
20
40
60
00
60
ENDCHAR
STARTCHAR char65263
ENCODING 65263
SWIDTH 576 0
DWIDTH 6 0
BBX 5 6 0 -1
BITMAP
18
10
A0
B8
88
F0
ENDCHAR
STARTCHAR char65264
ENCODING 65264
SWIDTH 576 0
DWIDTH 6 0
BBX 5 4 1 -2
BITMAP
B8
A0
90
F0
ENDCHAR
STARTCHAR char65265
ENCODING 65265
SWIDTH 576 0
DWIDTH 6 0
BBX 5 7 0 -2
BITMAP
18
10
A0
B8
88
F0
60
ENDCHAR
STARTCHAR char65266
ENCODING 65266
SWIDTH 576 0
DWIDTH 6 0
BBX 5 4 1 -2
BITMAP
98
90
F0
60
ENDCHAR
STARTCHAR char65267
ENCODING 65267
SWIDTH 192 0
DWIDTH 2 0
BBX 2 6 0 -1
BITMAP
80
40
40
C0
00
C0
ENDCHAR
STARTCHAR char65268
ENCODING 65268
SWIDTH 192 0
DWIDTH 2 0
BBX 2 6 0 -1
BITMAP
80
40
40
C0
00
C0
ENDCHAR
STARTCHAR char65269
ENCODING 65269
SWIDTH 480 0
DWIDTH 5 0
BBX 6 9 0 0
BITMAP
C0
00
88
4C
28
28
10
28
38
ENDCHAR
STARTCHAR char65270
ENCODING 65270
SWIDTH 576 0
DWIDTH 6 0
BBX 5 8 1 1
BITMAP
C0
00
90
90
50
10
10
E8
ENDCHAR
STARTCHAR char65271
ENCODING 65271
SWIDTH 480 0
DWIDTH 5 0
BBX 7 10 -1 0
BITMAP
C0
00
00
44
26
14
14
08
14
1C
ENDCHAR
STARTCHAR char65272
ENCODING 65272
SWIDTH 576 0
DWIDTH 6 0
BBX 6 9 0 1
BITMAP
C0
00
00
48
48
28
08
08
74
ENDCHAR
STARTCHAR char65273
ENCODING 65273
SWIDTH 480 0
DWIDTH 5 0
BBX 6 8 0 -2
BITMAP
88
4C
28
28
10
28
38
60
ENDCHAR
STARTCHAR char65274
ENCODING 65274
SWIDTH 576 0
DWIDTH 6 0
BBX 5 8 1 -2
BITMAP
90
90
50
10
10
E8
00
C0
ENDCHAR
STARTCHAR char65275
ENCODING 65275
SWIDTH 480 0
DWIDTH 5 0
BBX 6 7 0 0
BITMAP
88
4C
28
28
10
28
38
ENDCHAR
STARTCHAR char65276
ENCODING 65276
SWIDTH 576 0
DWIDTH 6 0
BBX 5 6 1 1
BITMAP
90
90
50
10
10
E8
ENDCHAR
STARTCHAR char65532
ENCODING 65532
SWIDTH 960 0
DWIDTH 10 0
BBX 10 7 0 0
BITMAP
DEC0
8040
3D00
AD40
3F00
8040
DEC0
ENDCHAR
ENDFONT
